G04 #@! TF.GenerationSoftware,KiCad,Pcbnew,(6.0.7-1)-1*
G04 #@! TF.CreationDate,2022-11-04T13:37:49+01:00*
G04 #@! TF.ProjectId,wrist-support,77726973-742d-4737-9570-706f72742e6b,rev?*
G04 #@! TF.SameCoordinates,Original*
G04 #@! TF.FileFunction,Copper,L2,Bot*
G04 #@! TF.FilePolarity,Positive*
%FSLAX46Y46*%
G04 Gerber Fmt 4.6, Leading zero omitted, Abs format (unit mm)*
G04 Created by KiCad (PCBNEW (6.0.7-1)-1) date 2022-11-04 13:37:49*
%MOMM*%
%LPD*%
G01*
G04 APERTURE LIST*
G04 #@! TA.AperFunction,SMDPad,CuDef*
%ADD10C,6.200000*%
G04 #@! TD*
G04 #@! TA.AperFunction,ViaPad*
%ADD11C,0.800000*%
G04 #@! TD*
G04 #@! TA.AperFunction,Conductor*
%ADD12C,0.250000*%
G04 #@! TD*
G04 APERTURE END LIST*
D10*
X6500000Y-44025000D03*
X6500000Y-96025000D03*
X81500000Y-96025000D03*
X81500000Y-44025000D03*
D11*
X79050000Y-39300000D03*
D12*
X78400000Y-92925000D02*
X81500000Y-96025000D01*
G04 #@! TA.AperFunction,Conductor*
G36*
X79970018Y-38035000D02*
G01*
X79984852Y-38037310D01*
X79984855Y-38037310D01*
X79993724Y-38038691D01*
X80002627Y-38037527D01*
X80002628Y-38037527D01*
X80015874Y-38035795D01*
X80036704Y-38034811D01*
X80281858Y-38043567D01*
X80529944Y-38052427D01*
X80538916Y-38053069D01*
X81061677Y-38109272D01*
X81070580Y-38110552D01*
X81302951Y-38152476D01*
X81588008Y-38203906D01*
X81596792Y-38205817D01*
X82106244Y-38335846D01*
X82114864Y-38338378D01*
X82613752Y-38504423D01*
X82622156Y-38507558D01*
X82948996Y-38642939D01*
X83107929Y-38708772D01*
X83116111Y-38712509D01*
X83586265Y-38947851D01*
X83594159Y-38952161D01*
X84046341Y-39220453D01*
X84053908Y-39225316D01*
X84485794Y-39525180D01*
X84492994Y-39530570D01*
X84902381Y-39860475D01*
X84909179Y-39866365D01*
X85293996Y-40224644D01*
X85300356Y-40231004D01*
X85658635Y-40615821D01*
X85664525Y-40622619D01*
X85994430Y-41032006D01*
X85999820Y-41039206D01*
X86299684Y-41471092D01*
X86304547Y-41478659D01*
X86572839Y-41930841D01*
X86577149Y-41938735D01*
X86812491Y-42408889D01*
X86816228Y-42417071D01*
X87017438Y-42902833D01*
X87020577Y-42911248D01*
X87142339Y-43277086D01*
X87186621Y-43410131D01*
X87189155Y-43418761D01*
X87319183Y-43928206D01*
X87321094Y-43936992D01*
X87335244Y-44015420D01*
X87414448Y-44454420D01*
X87415728Y-44463323D01*
X87471931Y-44986084D01*
X87472573Y-44995056D01*
X87489920Y-45480769D01*
X87488500Y-45504649D01*
X87487690Y-45509848D01*
X87487690Y-45509855D01*
X87486309Y-45518724D01*
X87487473Y-45527626D01*
X87487473Y-45527628D01*
X87490436Y-45550283D01*
X87491500Y-45566621D01*
X87491500Y-94475633D01*
X87490000Y-94495018D01*
X87486309Y-94518724D01*
X87487473Y-94527627D01*
X87487473Y-94527628D01*
X87489205Y-94540874D01*
X87490189Y-94561704D01*
X87481433Y-94806858D01*
X87472573Y-95054944D01*
X87471931Y-95063916D01*
X87415728Y-95586677D01*
X87414448Y-95595580D01*
X87334662Y-96037810D01*
X87321095Y-96113005D01*
X87319183Y-96121794D01*
X87189155Y-96631239D01*
X87186622Y-96639864D01*
X87140193Y-96779364D01*
X87020581Y-97138740D01*
X87017438Y-97147167D01*
X86816228Y-97632929D01*
X86812491Y-97641111D01*
X86577149Y-98111265D01*
X86572839Y-98119159D01*
X86304547Y-98571341D01*
X86299684Y-98578908D01*
X85999820Y-99010794D01*
X85994430Y-99017994D01*
X85664525Y-99427381D01*
X85658635Y-99434179D01*
X85300356Y-99818996D01*
X85293996Y-99825356D01*
X84909179Y-100183635D01*
X84902381Y-100189525D01*
X84492994Y-100519430D01*
X84485794Y-100524820D01*
X84053908Y-100824684D01*
X84046341Y-100829547D01*
X83594159Y-101097839D01*
X83586265Y-101102149D01*
X83116111Y-101337491D01*
X83107929Y-101341228D01*
X82948996Y-101407061D01*
X82622156Y-101542442D01*
X82613752Y-101545577D01*
X82114864Y-101711622D01*
X82106244Y-101714154D01*
X81596794Y-101844183D01*
X81588008Y-101846094D01*
X81329293Y-101892771D01*
X81070580Y-101939448D01*
X81061677Y-101940728D01*
X80538916Y-101996931D01*
X80529944Y-101997573D01*
X80044231Y-102014920D01*
X80020351Y-102013500D01*
X80015152Y-102012690D01*
X80015145Y-102012690D01*
X80006276Y-102011309D01*
X79997374Y-102012473D01*
X79997372Y-102012473D01*
X79984129Y-102014205D01*
X79974714Y-102015436D01*
X79958379Y-102016500D01*
X8049367Y-102016500D01*
X8029982Y-102015000D01*
X8015148Y-102012690D01*
X8015145Y-102012690D01*
X8006276Y-102011309D01*
X7997373Y-102012473D01*
X7997372Y-102012473D01*
X7984126Y-102014205D01*
X7963296Y-102015189D01*
X7718142Y-102006433D01*
X7470056Y-101997573D01*
X7461084Y-101996931D01*
X6938323Y-101940728D01*
X6929420Y-101939448D01*
X6670707Y-101892771D01*
X6411992Y-101846094D01*
X6403206Y-101844183D01*
X5893756Y-101714154D01*
X5885136Y-101711622D01*
X5386248Y-101545577D01*
X5377844Y-101542442D01*
X5051004Y-101407061D01*
X4892071Y-101341228D01*
X4883889Y-101337491D01*
X4413735Y-101102149D01*
X4405841Y-101097839D01*
X3953659Y-100829547D01*
X3946092Y-100824684D01*
X3514206Y-100524820D01*
X3507006Y-100519430D01*
X3097619Y-100189525D01*
X3090821Y-100183635D01*
X2706004Y-99825356D01*
X2699644Y-99818996D01*
X2341365Y-99434179D01*
X2335475Y-99427381D01*
X2005570Y-99017994D01*
X2000180Y-99010794D01*
X1820000Y-98751286D01*
X4138861Y-98751286D01*
X4146318Y-98761654D01*
X4373800Y-98945865D01*
X4379115Y-98949727D01*
X4690773Y-99152121D01*
X4696450Y-99155398D01*
X5027540Y-99324097D01*
X5033565Y-99326779D01*
X5380447Y-99459935D01*
X5386729Y-99461976D01*
X5745636Y-99558144D01*
X5752086Y-99559515D01*
X6119096Y-99617645D01*
X6125634Y-99618331D01*
X6496699Y-99637778D01*
X6503301Y-99637778D01*
X6874366Y-99618331D01*
X6880904Y-99617645D01*
X7247914Y-99559515D01*
X7254364Y-99558144D01*
X7613271Y-99461976D01*
X7619553Y-99459935D01*
X7966435Y-99326779D01*
X7972460Y-99324097D01*
X8303550Y-99155398D01*
X8309227Y-99152121D01*
X8620885Y-98949727D01*
X8626200Y-98945865D01*
X8852730Y-98762424D01*
X8860424Y-98751286D01*
X79138861Y-98751286D01*
X79146318Y-98761654D01*
X79373800Y-98945865D01*
X79379115Y-98949727D01*
X79690773Y-99152121D01*
X79696450Y-99155398D01*
X80027540Y-99324097D01*
X80033565Y-99326779D01*
X80380447Y-99459935D01*
X80386729Y-99461976D01*
X80745636Y-99558144D01*
X80752086Y-99559515D01*
X81119096Y-99617645D01*
X81125634Y-99618331D01*
X81496699Y-99637778D01*
X81503301Y-99637778D01*
X81874366Y-99618331D01*
X81880904Y-99617645D01*
X82247914Y-99559515D01*
X82254364Y-99558144D01*
X82613271Y-99461976D01*
X82619553Y-99459935D01*
X82966435Y-99326779D01*
X82972460Y-99324097D01*
X83303550Y-99155398D01*
X83309227Y-99152121D01*
X83620885Y-98949727D01*
X83626200Y-98945865D01*
X83852730Y-98762424D01*
X83861198Y-98750166D01*
X83854865Y-98739076D01*
X81512810Y-96397020D01*
X81498869Y-96389408D01*
X81497034Y-96389539D01*
X81490420Y-96393790D01*
X79146001Y-98738210D01*
X79138861Y-98751286D01*
X8860424Y-98751286D01*
X8861198Y-98750166D01*
X8854865Y-98739076D01*
X6512810Y-96397020D01*
X6498869Y-96389408D01*
X6497034Y-96389539D01*
X6490420Y-96393790D01*
X4146001Y-98738210D01*
X4138861Y-98751286D01*
X1820000Y-98751286D01*
X1700316Y-98578908D01*
X1695453Y-98571341D01*
X1427161Y-98119159D01*
X1422851Y-98111265D01*
X1187509Y-97641111D01*
X1183772Y-97632929D01*
X982562Y-97147167D01*
X979419Y-97138740D01*
X859808Y-96779364D01*
X813378Y-96639864D01*
X810845Y-96631239D01*
X680817Y-96121794D01*
X678905Y-96113005D01*
X665339Y-96037810D01*
X663623Y-96028301D01*
X2887222Y-96028301D01*
X2906669Y-96399366D01*
X2907355Y-96405904D01*
X2965485Y-96772914D01*
X2966856Y-96779364D01*
X3063024Y-97138271D01*
X3065065Y-97144553D01*
X3198221Y-97491435D01*
X3200903Y-97497460D01*
X3369594Y-97828534D01*
X3372891Y-97834244D01*
X3575259Y-98145864D01*
X3579147Y-98151215D01*
X3762576Y-98377730D01*
X3774834Y-98386198D01*
X3785924Y-98379865D01*
X6127980Y-96037810D01*
X6134357Y-96026131D01*
X6864408Y-96026131D01*
X6864539Y-96027966D01*
X6868790Y-96034580D01*
X9213210Y-98378999D01*
X9226286Y-98386139D01*
X9236654Y-98378682D01*
X9420853Y-98151215D01*
X9424741Y-98145864D01*
X9627109Y-97834244D01*
X9630406Y-97828534D01*
X9799097Y-97497460D01*
X9801779Y-97491435D01*
X9934935Y-97144553D01*
X9936976Y-97138271D01*
X10033144Y-96779364D01*
X10034515Y-96772914D01*
X10092645Y-96405904D01*
X10093331Y-96399366D01*
X10112778Y-96028301D01*
X77887222Y-96028301D01*
X77906669Y-96399366D01*
X77907355Y-96405904D01*
X77965485Y-96772914D01*
X77966856Y-96779364D01*
X78063024Y-97138271D01*
X78065065Y-97144553D01*
X78198221Y-97491435D01*
X78200903Y-97497460D01*
X78369594Y-97828534D01*
X78372891Y-97834244D01*
X78575259Y-98145864D01*
X78579147Y-98151215D01*
X78762576Y-98377730D01*
X78774834Y-98386198D01*
X78785924Y-98379865D01*
X81127980Y-96037810D01*
X81134357Y-96026131D01*
X81864408Y-96026131D01*
X81864539Y-96027966D01*
X81868790Y-96034580D01*
X84213210Y-98378999D01*
X84226286Y-98386139D01*
X84236654Y-98378682D01*
X84420853Y-98151215D01*
X84424741Y-98145864D01*
X84627109Y-97834244D01*
X84630406Y-97828534D01*
X84799097Y-97497460D01*
X84801779Y-97491435D01*
X84934935Y-97144553D01*
X84936976Y-97138271D01*
X85033144Y-96779364D01*
X85034515Y-96772914D01*
X85092645Y-96405904D01*
X85093331Y-96399366D01*
X85112778Y-96028301D01*
X85112778Y-96021699D01*
X85093331Y-95650634D01*
X85092645Y-95644096D01*
X85034515Y-95277086D01*
X85033144Y-95270636D01*
X84936976Y-94911729D01*
X84934935Y-94905447D01*
X84801779Y-94558565D01*
X84799097Y-94552540D01*
X84630406Y-94221466D01*
X84627109Y-94215756D01*
X84424741Y-93904136D01*
X84420853Y-93898785D01*
X84237424Y-93672270D01*
X84225166Y-93663802D01*
X84214076Y-93670135D01*
X81872020Y-96012190D01*
X81864408Y-96026131D01*
X81134357Y-96026131D01*
X81135592Y-96023869D01*
X81135461Y-96022034D01*
X81131210Y-96015420D01*
X78786790Y-93671001D01*
X78773714Y-93663861D01*
X78763346Y-93671318D01*
X78579147Y-93898785D01*
X78575259Y-93904136D01*
X78372891Y-94215756D01*
X78369594Y-94221466D01*
X78200903Y-94552540D01*
X78198221Y-94558565D01*
X78065065Y-94905447D01*
X78063024Y-94911729D01*
X77966856Y-95270636D01*
X77965485Y-95277086D01*
X77907355Y-95644096D01*
X77906669Y-95650634D01*
X77887222Y-96021699D01*
X77887222Y-96028301D01*
X10112778Y-96028301D01*
X10112778Y-96021699D01*
X10093331Y-95650634D01*
X10092645Y-95644096D01*
X10034515Y-95277086D01*
X10033144Y-95270636D01*
X9936976Y-94911729D01*
X9934935Y-94905447D01*
X9801779Y-94558565D01*
X9799097Y-94552540D01*
X9630406Y-94221466D01*
X9627109Y-94215756D01*
X9424741Y-93904136D01*
X9420853Y-93898785D01*
X9237424Y-93672270D01*
X9225166Y-93663802D01*
X9214076Y-93670135D01*
X6872020Y-96012190D01*
X6864408Y-96026131D01*
X6134357Y-96026131D01*
X6135592Y-96023869D01*
X6135461Y-96022034D01*
X6131210Y-96015420D01*
X3786790Y-93671001D01*
X3773714Y-93663861D01*
X3763346Y-93671318D01*
X3579147Y-93898785D01*
X3575259Y-93904136D01*
X3372891Y-94215756D01*
X3369594Y-94221466D01*
X3200903Y-94552540D01*
X3198221Y-94558565D01*
X3065065Y-94905447D01*
X3063024Y-94911729D01*
X2966856Y-95270636D01*
X2965485Y-95277086D01*
X2907355Y-95644096D01*
X2906669Y-95650634D01*
X2887222Y-96021699D01*
X2887222Y-96028301D01*
X663623Y-96028301D01*
X585552Y-95595580D01*
X584272Y-95586677D01*
X528069Y-95063916D01*
X527427Y-95054944D01*
X510216Y-94573025D01*
X511881Y-94547632D01*
X512768Y-94542355D01*
X513576Y-94537552D01*
X513729Y-94525000D01*
X509773Y-94497376D01*
X508500Y-94479514D01*
X508500Y-93299834D01*
X4138802Y-93299834D01*
X4145135Y-93310924D01*
X6487190Y-95652980D01*
X6501131Y-95660592D01*
X6502966Y-95660461D01*
X6509580Y-95656210D01*
X8853999Y-93311790D01*
X8860527Y-93299834D01*
X79138802Y-93299834D01*
X79145135Y-93310924D01*
X81487190Y-95652980D01*
X81501131Y-95660592D01*
X81502966Y-95660461D01*
X81509580Y-95656210D01*
X83853999Y-93311790D01*
X83861139Y-93298714D01*
X83853682Y-93288346D01*
X83626200Y-93104135D01*
X83620885Y-93100273D01*
X83309227Y-92897879D01*
X83303550Y-92894602D01*
X82972460Y-92725903D01*
X82966435Y-92723221D01*
X82619553Y-92590065D01*
X82613271Y-92588024D01*
X82254364Y-92491856D01*
X82247914Y-92490485D01*
X81880904Y-92432355D01*
X81874366Y-92431669D01*
X81503301Y-92412222D01*
X81496699Y-92412222D01*
X81125634Y-92431669D01*
X81119096Y-92432355D01*
X80752086Y-92490485D01*
X80745636Y-92491856D01*
X80386729Y-92588024D01*
X80380447Y-92590065D01*
X80033565Y-92723221D01*
X80027540Y-92725903D01*
X79696466Y-92894594D01*
X79690756Y-92897891D01*
X79379136Y-93100259D01*
X79373785Y-93104147D01*
X79147270Y-93287576D01*
X79138802Y-93299834D01*
X8860527Y-93299834D01*
X8861139Y-93298714D01*
X8853682Y-93288346D01*
X8626200Y-93104135D01*
X8620885Y-93100273D01*
X8309227Y-92897879D01*
X8303550Y-92894602D01*
X7972460Y-92725903D01*
X7966435Y-92723221D01*
X7619553Y-92590065D01*
X7613271Y-92588024D01*
X7254364Y-92491856D01*
X7247914Y-92490485D01*
X6880904Y-92432355D01*
X6874366Y-92431669D01*
X6503301Y-92412222D01*
X6496699Y-92412222D01*
X6125634Y-92431669D01*
X6119096Y-92432355D01*
X5752086Y-92490485D01*
X5745636Y-92491856D01*
X5386729Y-92588024D01*
X5380447Y-92590065D01*
X5033565Y-92723221D01*
X5027540Y-92725903D01*
X4696466Y-92894594D01*
X4690756Y-92897891D01*
X4379136Y-93100259D01*
X4373785Y-93104147D01*
X4147270Y-93287576D01*
X4138802Y-93299834D01*
X508500Y-93299834D01*
X508500Y-46751286D01*
X4138861Y-46751286D01*
X4146318Y-46761654D01*
X4373800Y-46945865D01*
X4379115Y-46949727D01*
X4690773Y-47152121D01*
X4696450Y-47155398D01*
X5027540Y-47324097D01*
X5033565Y-47326779D01*
X5380447Y-47459935D01*
X5386729Y-47461976D01*
X5745636Y-47558144D01*
X5752086Y-47559515D01*
X6119096Y-47617645D01*
X6125634Y-47618331D01*
X6496699Y-47637778D01*
X6503301Y-47637778D01*
X6874366Y-47618331D01*
X6880904Y-47617645D01*
X7247914Y-47559515D01*
X7254364Y-47558144D01*
X7613271Y-47461976D01*
X7619553Y-47459935D01*
X7966435Y-47326779D01*
X7972460Y-47324097D01*
X8303550Y-47155398D01*
X8309227Y-47152121D01*
X8620885Y-46949727D01*
X8626200Y-46945865D01*
X8852730Y-46762424D01*
X8860424Y-46751286D01*
X79138861Y-46751286D01*
X79146318Y-46761654D01*
X79373800Y-46945865D01*
X79379115Y-46949727D01*
X79690773Y-47152121D01*
X79696450Y-47155398D01*
X80027540Y-47324097D01*
X80033565Y-47326779D01*
X80380447Y-47459935D01*
X80386729Y-47461976D01*
X80745636Y-47558144D01*
X80752086Y-47559515D01*
X81119096Y-47617645D01*
X81125634Y-47618331D01*
X81496699Y-47637778D01*
X81503301Y-47637778D01*
X81874366Y-47618331D01*
X81880904Y-47617645D01*
X82247914Y-47559515D01*
X82254364Y-47558144D01*
X82613271Y-47461976D01*
X82619553Y-47459935D01*
X82966435Y-47326779D01*
X82972460Y-47324097D01*
X83303550Y-47155398D01*
X83309227Y-47152121D01*
X83620885Y-46949727D01*
X83626200Y-46945865D01*
X83852730Y-46762424D01*
X83861198Y-46750166D01*
X83854865Y-46739076D01*
X81512810Y-44397020D01*
X81498869Y-44389408D01*
X81497034Y-44389539D01*
X81490420Y-44393790D01*
X79146001Y-46738210D01*
X79138861Y-46751286D01*
X8860424Y-46751286D01*
X8861198Y-46750166D01*
X8854865Y-46739076D01*
X6512810Y-44397020D01*
X6498869Y-44389408D01*
X6497034Y-44389539D01*
X6490420Y-44393790D01*
X4146001Y-46738210D01*
X4138861Y-46751286D01*
X508500Y-46751286D01*
X508500Y-45578250D01*
X510246Y-45557345D01*
X512770Y-45542344D01*
X512770Y-45542341D01*
X513576Y-45537552D01*
X513729Y-45525000D01*
X511137Y-45506898D01*
X509945Y-45484542D01*
X527427Y-44995056D01*
X528069Y-44986084D01*
X584272Y-44463323D01*
X585552Y-44454420D01*
X662432Y-44028301D01*
X2887222Y-44028301D01*
X2906669Y-44399366D01*
X2907355Y-44405904D01*
X2965485Y-44772914D01*
X2966856Y-44779364D01*
X3063024Y-45138271D01*
X3065065Y-45144553D01*
X3198221Y-45491435D01*
X3200903Y-45497460D01*
X3369594Y-45828534D01*
X3372891Y-45834244D01*
X3575259Y-46145864D01*
X3579147Y-46151215D01*
X3762576Y-46377730D01*
X3774834Y-46386198D01*
X3785924Y-46379865D01*
X6127980Y-44037810D01*
X6134357Y-44026131D01*
X6864408Y-44026131D01*
X6864539Y-44027966D01*
X6868790Y-44034580D01*
X9213210Y-46378999D01*
X9226286Y-46386139D01*
X9236654Y-46378682D01*
X9420853Y-46151215D01*
X9424741Y-46145864D01*
X9627109Y-45834244D01*
X9630406Y-45828534D01*
X9799097Y-45497460D01*
X9801779Y-45491435D01*
X9934935Y-45144553D01*
X9936976Y-45138271D01*
X10033144Y-44779364D01*
X10034515Y-44772914D01*
X10092645Y-44405904D01*
X10093331Y-44399366D01*
X10112778Y-44028301D01*
X77887222Y-44028301D01*
X77906669Y-44399366D01*
X77907355Y-44405904D01*
X77965485Y-44772914D01*
X77966856Y-44779364D01*
X78063024Y-45138271D01*
X78065065Y-45144553D01*
X78198221Y-45491435D01*
X78200903Y-45497460D01*
X78369594Y-45828534D01*
X78372891Y-45834244D01*
X78575259Y-46145864D01*
X78579147Y-46151215D01*
X78762576Y-46377730D01*
X78774834Y-46386198D01*
X78785924Y-46379865D01*
X81127980Y-44037810D01*
X81134357Y-44026131D01*
X81864408Y-44026131D01*
X81864539Y-44027966D01*
X81868790Y-44034580D01*
X84213210Y-46378999D01*
X84226286Y-46386139D01*
X84236654Y-46378682D01*
X84420853Y-46151215D01*
X84424741Y-46145864D01*
X84627109Y-45834244D01*
X84630406Y-45828534D01*
X84799097Y-45497460D01*
X84801779Y-45491435D01*
X84934935Y-45144553D01*
X84936976Y-45138271D01*
X85033144Y-44779364D01*
X85034515Y-44772914D01*
X85092645Y-44405904D01*
X85093331Y-44399366D01*
X85112778Y-44028301D01*
X85112778Y-44021699D01*
X85093331Y-43650634D01*
X85092645Y-43644096D01*
X85034515Y-43277086D01*
X85033144Y-43270636D01*
X84936976Y-42911729D01*
X84934935Y-42905447D01*
X84801779Y-42558565D01*
X84799097Y-42552540D01*
X84630406Y-42221466D01*
X84627109Y-42215756D01*
X84424741Y-41904136D01*
X84420853Y-41898785D01*
X84237424Y-41672270D01*
X84225166Y-41663802D01*
X84214076Y-41670135D01*
X81872020Y-44012190D01*
X81864408Y-44026131D01*
X81134357Y-44026131D01*
X81135592Y-44023869D01*
X81135461Y-44022034D01*
X81131210Y-44015420D01*
X78786790Y-41671001D01*
X78773714Y-41663861D01*
X78763346Y-41671318D01*
X78579147Y-41898785D01*
X78575259Y-41904136D01*
X78372891Y-42215756D01*
X78369594Y-42221466D01*
X78200903Y-42552540D01*
X78198221Y-42558565D01*
X78065065Y-42905447D01*
X78063024Y-42911729D01*
X77966856Y-43270636D01*
X77965485Y-43277086D01*
X77907355Y-43644096D01*
X77906669Y-43650634D01*
X77887222Y-44021699D01*
X77887222Y-44028301D01*
X10112778Y-44028301D01*
X10112778Y-44021699D01*
X10093331Y-43650634D01*
X10092645Y-43644096D01*
X10034515Y-43277086D01*
X10033144Y-43270636D01*
X9936976Y-42911729D01*
X9934935Y-42905447D01*
X9801779Y-42558565D01*
X9799097Y-42552540D01*
X9630406Y-42221466D01*
X9627109Y-42215756D01*
X9424741Y-41904136D01*
X9420853Y-41898785D01*
X9237424Y-41672270D01*
X9225166Y-41663802D01*
X9214076Y-41670135D01*
X6872020Y-44012190D01*
X6864408Y-44026131D01*
X6134357Y-44026131D01*
X6135592Y-44023869D01*
X6135461Y-44022034D01*
X6131210Y-44015420D01*
X3786790Y-41671001D01*
X3773714Y-41663861D01*
X3763346Y-41671318D01*
X3579147Y-41898785D01*
X3575259Y-41904136D01*
X3372891Y-42215756D01*
X3369594Y-42221466D01*
X3200903Y-42552540D01*
X3198221Y-42558565D01*
X3065065Y-42905447D01*
X3063024Y-42911729D01*
X2966856Y-43270636D01*
X2965485Y-43277086D01*
X2907355Y-43644096D01*
X2906669Y-43650634D01*
X2887222Y-44021699D01*
X2887222Y-44028301D01*
X662432Y-44028301D01*
X664756Y-44015420D01*
X678906Y-43936992D01*
X680817Y-43928206D01*
X810845Y-43418761D01*
X813379Y-43410131D01*
X857661Y-43277086D01*
X979423Y-42911248D01*
X982562Y-42902833D01*
X1183772Y-42417071D01*
X1187509Y-42408889D01*
X1422851Y-41938735D01*
X1427161Y-41930841D01*
X1695453Y-41478659D01*
X1700316Y-41471092D01*
X1819223Y-41299834D01*
X4138802Y-41299834D01*
X4145135Y-41310924D01*
X6487190Y-43652980D01*
X6501131Y-43660592D01*
X6502966Y-43660461D01*
X6509580Y-43656210D01*
X8853999Y-41311790D01*
X8860527Y-41299834D01*
X79138802Y-41299834D01*
X79145135Y-41310924D01*
X81487190Y-43652980D01*
X81501131Y-43660592D01*
X81502966Y-43660461D01*
X81509580Y-43656210D01*
X83853999Y-41311790D01*
X83861139Y-41298714D01*
X83853682Y-41288346D01*
X83626200Y-41104135D01*
X83620885Y-41100273D01*
X83309227Y-40897879D01*
X83303550Y-40894602D01*
X82972460Y-40725903D01*
X82966435Y-40723221D01*
X82619553Y-40590065D01*
X82613271Y-40588024D01*
X82254364Y-40491856D01*
X82247914Y-40490485D01*
X81880904Y-40432355D01*
X81874366Y-40431669D01*
X81503301Y-40412222D01*
X81496699Y-40412222D01*
X81125634Y-40431669D01*
X81119096Y-40432355D01*
X80752086Y-40490485D01*
X80745636Y-40491856D01*
X80386729Y-40588024D01*
X80380447Y-40590065D01*
X80033565Y-40723221D01*
X80027540Y-40725903D01*
X79696466Y-40894594D01*
X79690756Y-40897891D01*
X79379136Y-41100259D01*
X79373785Y-41104147D01*
X79147270Y-41287576D01*
X79138802Y-41299834D01*
X8860527Y-41299834D01*
X8861139Y-41298714D01*
X8853682Y-41288346D01*
X8626200Y-41104135D01*
X8620885Y-41100273D01*
X8309227Y-40897879D01*
X8303550Y-40894602D01*
X7972460Y-40725903D01*
X7966435Y-40723221D01*
X7619553Y-40590065D01*
X7613271Y-40588024D01*
X7254364Y-40491856D01*
X7247914Y-40490485D01*
X6880904Y-40432355D01*
X6874366Y-40431669D01*
X6503301Y-40412222D01*
X6496699Y-40412222D01*
X6125634Y-40431669D01*
X6119096Y-40432355D01*
X5752086Y-40490485D01*
X5745636Y-40491856D01*
X5386729Y-40588024D01*
X5380447Y-40590065D01*
X5033565Y-40723221D01*
X5027540Y-40725903D01*
X4696466Y-40894594D01*
X4690756Y-40897891D01*
X4379136Y-41100259D01*
X4373785Y-41104147D01*
X4147270Y-41287576D01*
X4138802Y-41299834D01*
X1819223Y-41299834D01*
X2000180Y-41039206D01*
X2005570Y-41032006D01*
X2335475Y-40622619D01*
X2341365Y-40615821D01*
X2699644Y-40231004D01*
X2706004Y-40224644D01*
X3090821Y-39866365D01*
X3097619Y-39860475D01*
X3507006Y-39530570D01*
X3514206Y-39525180D01*
X3946092Y-39225316D01*
X3953659Y-39220453D01*
X4405841Y-38952161D01*
X4413735Y-38947851D01*
X4883889Y-38712509D01*
X4892071Y-38708772D01*
X5051004Y-38642939D01*
X5377844Y-38507558D01*
X5386248Y-38504423D01*
X5885136Y-38338378D01*
X5893756Y-38335846D01*
X6403208Y-38205817D01*
X6411992Y-38203906D01*
X6697049Y-38152476D01*
X6929420Y-38110552D01*
X6938323Y-38109272D01*
X7461084Y-38053069D01*
X7470056Y-38052427D01*
X7955769Y-38035080D01*
X7979649Y-38036500D01*
X7984848Y-38037310D01*
X7984855Y-38037310D01*
X7993724Y-38038691D01*
X8002626Y-38037527D01*
X8002628Y-38037527D01*
X8021338Y-38035080D01*
X8025286Y-38034564D01*
X8041621Y-38033500D01*
X79950633Y-38033500D01*
X79970018Y-38035000D01*
G37*
G04 #@! TD.AperFunction*
M02*
