%TF.GenerationSoftware,KiCad,Pcbnew,(6.0.7-1)-1*%
%TF.CreationDate,2022-11-04T13:28:15+01:00*%
%TF.ProjectId,switch-plate,73776974-6368-42d7-906c-6174652e6b69,rev?*%
%TF.SameCoordinates,Original*%
%TF.FileFunction,Drillmap*%
%TF.FilePolarity,Positive*%
%FSLAX45Y45*%
G04 Gerber Fmt 4.5, Leading zero omitted, Abs format (unit mm)*
G04 Created by KiCad (PCBNEW (6.0.7-1)-1) date 2022-11-04 13:28:15*
%MOMM*%
%LPD*%
G01*
G04 APERTURE LIST*
%ADD10C,0.100000*%
%ADD11C,0.200000*%
%ADD12C,0.170000*%
G04 APERTURE END LIST*
D10*
X20722112Y-8628134D02*
X21107500Y-8627500D01*
X17602723Y-9684846D02*
X17510507Y-9540477D01*
X12953147Y-8630753D02*
X14596853Y-8630753D01*
X9994245Y-9595604D02*
X9932491Y-9708509D01*
X5837500Y-8632500D02*
X6551397Y-8652508D01*
X800000Y-1300000D02*
G75*
G03*
X770000Y-1270000I-30000J0D01*
G01*
X770000Y-2210000D02*
G75*
G03*
X800000Y-2180000I0J30000D01*
G01*
X-80000Y-2210000D02*
X-77500Y-8432500D01*
X770000Y-2210000D02*
X-80000Y-2210000D01*
X800000Y-1300000D02*
X800000Y-2180000D01*
X-80000Y-1270000D02*
X770000Y-1270000D01*
X-77500Y227500D02*
X-80000Y-1270000D01*
X14773442Y-8736859D02*
G75*
G03*
X14596853Y-8630753I-176590J-93894D01*
G01*
X15803052Y-10673273D02*
X14773442Y-8736859D01*
X15803052Y-10673273D02*
G75*
G03*
X16073536Y-10755968I176590J93894D01*
G01*
X17534814Y-9978993D02*
G75*
G03*
X17602723Y-9684846I-93894J176590D01*
G01*
X17534814Y-9978993D02*
X16073536Y-10755968D01*
X17638089Y-9266877D02*
G75*
G03*
X17510507Y-9540477I55128J-192252D01*
G01*
X17638089Y-9266877D02*
X17638089Y-9266877D01*
X19228330Y-8811548D02*
X18916567Y-8900279D01*
X17638089Y-9266877D02*
X18916567Y-8900279D01*
X19228330Y-8811548D02*
X20722112Y-8628134D01*
X12953147Y-8630753D02*
G75*
G03*
X12776558Y-8736859I0J-200000D01*
G01*
X11746948Y-10673273D02*
X12776558Y-8736859D01*
X11476464Y-10755968D02*
G75*
G03*
X11746948Y-10673273I93894J176590D01*
G01*
X9932491Y-9708509D02*
G75*
G03*
X10015186Y-9978993I176590J-93894D01*
G01*
X10015186Y-9978993D02*
X11476464Y-10755968D01*
X9994245Y-9595604D02*
G75*
G03*
X9866664Y-9322004I-182709J81347D01*
G01*
X8359285Y-8889771D02*
X9866664Y-9322004D01*
X8359285Y-8889771D02*
X7846670Y-8811548D01*
X6551397Y-8652508D02*
X7846670Y-8811548D01*
X28727500Y-8627500D02*
X21107500Y-8627500D01*
X28727500Y-8627500D02*
G75*
G03*
X29527500Y-7827500I0J800000D01*
G01*
X29527500Y827500D02*
X29527500Y-7827500D01*
X122500Y-8632500D02*
X5837500Y-8632500D01*
X-77500Y-8432500D02*
G75*
G03*
X122500Y-8632500I200000J0D01*
G01*
X29527500Y827500D02*
G75*
G03*
X29327500Y1027500I-200000J0D01*
G01*
X722500Y1027500D02*
G75*
G03*
X-77500Y227500I0J-800000D01*
G01*
X722500Y1027500D02*
X29327500Y1027500D01*
D11*
D12*
X149000Y-8225000D02*
X319000Y-8395000D01*
X319000Y-8225000D02*
X149000Y-8395000D01*
X2765000Y795000D02*
X2935000Y625000D01*
X2935000Y795000D02*
X2765000Y625000D01*
X3477500Y-2705000D02*
X3647500Y-2875000D01*
X3647500Y-2705000D02*
X3477500Y-2875000D01*
X4665000Y-4725000D02*
X4835000Y-4895000D01*
X4835000Y-4725000D02*
X4665000Y-4895000D01*
X8108750Y-8415000D02*
X8278750Y-8585000D01*
X8278750Y-8415000D02*
X8108750Y-8585000D01*
X9415000Y-2705000D02*
X9585000Y-2875000D01*
X9585000Y-2705000D02*
X9415000Y-2875000D01*
X10365000Y795000D02*
X10535000Y625000D01*
X10535000Y795000D02*
X10365000Y625000D01*
X13690000Y-4605000D02*
X13860000Y-4775000D01*
X13860000Y-4605000D02*
X13690000Y-4775000D01*
X17015000Y-2705000D02*
X17185000Y-2875000D01*
X17185000Y-2705000D02*
X17015000Y-2875000D01*
X18440000Y-6625000D02*
X18610000Y-6795000D01*
X18610000Y-6625000D02*
X18440000Y-6795000D01*
X19865000Y795000D02*
X20035000Y625000D01*
X20035000Y795000D02*
X19865000Y625000D01*
X21005000Y-8225000D02*
X21175000Y-8395000D01*
X21175000Y-8225000D02*
X21005000Y-8395000D01*
X23190000Y-4605000D02*
X23360000Y-4775000D01*
X23360000Y-4605000D02*
X23190000Y-4775000D01*
X26752500Y-2705000D02*
X26922500Y-2875000D01*
X26922500Y-2705000D02*
X26752500Y-2875000D01*
X27465000Y795000D02*
X27635000Y625000D01*
X27635000Y795000D02*
X27465000Y625000D01*
X29090000Y-4665000D02*
X29260000Y-4835000D01*
X29260000Y-4665000D02*
X29090000Y-4835000D01*
X29095000Y-7925000D02*
X29265000Y-8095000D01*
X29265000Y-7925000D02*
X29095000Y-8095000D01*
D11*
X172619Y-11094855D02*
X172619Y-10894855D01*
X220238Y-10894855D01*
X248809Y-10904379D01*
X267857Y-10923426D01*
X277381Y-10942474D01*
X286905Y-10980569D01*
X286905Y-11009141D01*
X277381Y-11047236D01*
X267857Y-11066283D01*
X248809Y-11085331D01*
X220238Y-11094855D01*
X172619Y-11094855D01*
X372619Y-11094855D02*
X372619Y-10961522D01*
X372619Y-10999617D02*
X382143Y-10980569D01*
X391667Y-10971045D01*
X410714Y-10961522D01*
X429762Y-10961522D01*
X496428Y-11094855D02*
X496428Y-10961522D01*
X496428Y-10894855D02*
X486905Y-10904379D01*
X496428Y-10913903D01*
X505952Y-10904379D01*
X496428Y-10894855D01*
X496428Y-10913903D01*
X620238Y-11094855D02*
X601190Y-11085331D01*
X591667Y-11066283D01*
X591667Y-10894855D01*
X725000Y-11094855D02*
X705952Y-11085331D01*
X696429Y-11066283D01*
X696429Y-10894855D01*
X953571Y-11094855D02*
X953571Y-10894855D01*
X1020238Y-11037712D01*
X1086905Y-10894855D01*
X1086905Y-11094855D01*
X1267857Y-11094855D02*
X1267857Y-10990093D01*
X1258333Y-10971045D01*
X1239286Y-10961522D01*
X1201190Y-10961522D01*
X1182143Y-10971045D01*
X1267857Y-11085331D02*
X1248810Y-11094855D01*
X1201190Y-11094855D01*
X1182143Y-11085331D01*
X1172619Y-11066283D01*
X1172619Y-11047236D01*
X1182143Y-11028188D01*
X1201190Y-11018664D01*
X1248810Y-11018664D01*
X1267857Y-11009141D01*
X1363095Y-10961522D02*
X1363095Y-11161522D01*
X1363095Y-10971045D02*
X1382143Y-10961522D01*
X1420238Y-10961522D01*
X1439286Y-10971045D01*
X1448809Y-10980569D01*
X1458333Y-10999617D01*
X1458333Y-11056760D01*
X1448809Y-11075807D01*
X1439286Y-11085331D01*
X1420238Y-11094855D01*
X1382143Y-11094855D01*
X1363095Y-11085331D01*
X1544048Y-11075807D02*
X1553571Y-11085331D01*
X1544048Y-11094855D01*
X1534524Y-11085331D01*
X1544048Y-11075807D01*
X1544048Y-11094855D01*
X1544048Y-10971045D02*
X1553571Y-10980569D01*
X1544048Y-10990093D01*
X1534524Y-10980569D01*
X1544048Y-10971045D01*
X1544048Y-10990093D01*
D12*
X-255000Y-11339379D02*
X-85000Y-11509379D01*
X-85000Y-11339379D02*
X-255000Y-11509379D01*
D11*
X277381Y-11514855D02*
X163095Y-11514855D01*
X220238Y-11514855D02*
X220238Y-11314855D01*
X201190Y-11343426D01*
X182143Y-11362474D01*
X163095Y-11371998D01*
X363095Y-11495807D02*
X372619Y-11505331D01*
X363095Y-11514855D01*
X353571Y-11505331D01*
X363095Y-11495807D01*
X363095Y-11514855D01*
X439286Y-11314855D02*
X572619Y-11314855D01*
X486905Y-11514855D01*
X686905Y-11314855D02*
X705952Y-11314855D01*
X725000Y-11324379D01*
X734524Y-11333902D01*
X744048Y-11352950D01*
X753571Y-11391045D01*
X753571Y-11438664D01*
X744048Y-11476760D01*
X734524Y-11495807D01*
X725000Y-11505331D01*
X705952Y-11514855D01*
X686905Y-11514855D01*
X667857Y-11505331D01*
X658333Y-11495807D01*
X648810Y-11476760D01*
X639286Y-11438664D01*
X639286Y-11391045D01*
X648810Y-11352950D01*
X658333Y-11333902D01*
X667857Y-11324379D01*
X686905Y-11314855D01*
X877381Y-11314855D02*
X896428Y-11314855D01*
X915476Y-11324379D01*
X925000Y-11333902D01*
X934524Y-11352950D01*
X944048Y-11391045D01*
X944048Y-11438664D01*
X934524Y-11476760D01*
X925000Y-11495807D01*
X915476Y-11505331D01*
X896428Y-11514855D01*
X877381Y-11514855D01*
X858333Y-11505331D01*
X848809Y-11495807D01*
X839286Y-11476760D01*
X829762Y-11438664D01*
X829762Y-11391045D01*
X839286Y-11352950D01*
X848809Y-11333902D01*
X858333Y-11324379D01*
X877381Y-11314855D01*
X1029762Y-11514855D02*
X1029762Y-11381521D01*
X1029762Y-11400569D02*
X1039286Y-11391045D01*
X1058333Y-11381521D01*
X1086905Y-11381521D01*
X1105952Y-11391045D01*
X1115476Y-11410093D01*
X1115476Y-11514855D01*
X1115476Y-11410093D02*
X1125000Y-11391045D01*
X1144048Y-11381521D01*
X1172619Y-11381521D01*
X1191667Y-11391045D01*
X1201190Y-11410093D01*
X1201190Y-11514855D01*
X1296429Y-11514855D02*
X1296429Y-11381521D01*
X1296429Y-11400569D02*
X1305952Y-11391045D01*
X1325000Y-11381521D01*
X1353571Y-11381521D01*
X1372619Y-11391045D01*
X1382143Y-11410093D01*
X1382143Y-11514855D01*
X1382143Y-11410093D02*
X1391667Y-11391045D01*
X1410714Y-11381521D01*
X1439286Y-11381521D01*
X1458333Y-11391045D01*
X1467857Y-11410093D01*
X1467857Y-11514855D01*
X1858333Y-11305331D02*
X1686905Y-11562474D01*
X2115476Y-11314855D02*
X2134524Y-11314855D01*
X2153571Y-11324379D01*
X2163095Y-11333902D01*
X2172619Y-11352950D01*
X2182143Y-11391045D01*
X2182143Y-11438664D01*
X2172619Y-11476760D01*
X2163095Y-11495807D01*
X2153571Y-11505331D01*
X2134524Y-11514855D01*
X2115476Y-11514855D01*
X2096428Y-11505331D01*
X2086905Y-11495807D01*
X2077381Y-11476760D01*
X2067857Y-11438664D01*
X2067857Y-11391045D01*
X2077381Y-11352950D01*
X2086905Y-11333902D01*
X2096428Y-11324379D01*
X2115476Y-11314855D01*
X2267857Y-11495807D02*
X2277381Y-11505331D01*
X2267857Y-11514855D01*
X2258333Y-11505331D01*
X2267857Y-11495807D01*
X2267857Y-11514855D01*
X2401190Y-11314855D02*
X2420238Y-11314855D01*
X2439286Y-11324379D01*
X2448810Y-11333902D01*
X2458333Y-11352950D01*
X2467857Y-11391045D01*
X2467857Y-11438664D01*
X2458333Y-11476760D01*
X2448810Y-11495807D01*
X2439286Y-11505331D01*
X2420238Y-11514855D01*
X2401190Y-11514855D01*
X2382143Y-11505331D01*
X2372619Y-11495807D01*
X2363095Y-11476760D01*
X2353571Y-11438664D01*
X2353571Y-11391045D01*
X2363095Y-11352950D01*
X2372619Y-11333902D01*
X2382143Y-11324379D01*
X2401190Y-11314855D01*
X2639286Y-11314855D02*
X2601190Y-11314855D01*
X2582143Y-11324379D01*
X2572619Y-11333902D01*
X2553571Y-11362474D01*
X2544048Y-11400569D01*
X2544048Y-11476760D01*
X2553571Y-11495807D01*
X2563095Y-11505331D01*
X2582143Y-11514855D01*
X2620238Y-11514855D01*
X2639286Y-11505331D01*
X2648810Y-11495807D01*
X2658333Y-11476760D01*
X2658333Y-11429141D01*
X2648810Y-11410093D01*
X2639286Y-11400569D01*
X2620238Y-11391045D01*
X2582143Y-11391045D01*
X2563095Y-11400569D01*
X2553571Y-11410093D01*
X2544048Y-11429141D01*
X2829762Y-11314855D02*
X2791667Y-11314855D01*
X2772619Y-11324379D01*
X2763095Y-11333902D01*
X2744048Y-11362474D01*
X2734524Y-11400569D01*
X2734524Y-11476760D01*
X2744048Y-11495807D01*
X2753571Y-11505331D01*
X2772619Y-11514855D01*
X2810714Y-11514855D01*
X2829762Y-11505331D01*
X2839286Y-11495807D01*
X2848809Y-11476760D01*
X2848809Y-11429141D01*
X2839286Y-11410093D01*
X2829762Y-11400569D01*
X2810714Y-11391045D01*
X2772619Y-11391045D01*
X2753571Y-11400569D01*
X2744048Y-11410093D01*
X2734524Y-11429141D01*
X2944048Y-11514855D02*
X2982143Y-11514855D01*
X3001190Y-11505331D01*
X3010714Y-11495807D01*
X3029762Y-11467236D01*
X3039286Y-11429141D01*
X3039286Y-11352950D01*
X3029762Y-11333902D01*
X3020238Y-11324379D01*
X3001190Y-11314855D01*
X2963095Y-11314855D01*
X2944048Y-11324379D01*
X2934524Y-11333902D01*
X2925000Y-11352950D01*
X2925000Y-11400569D01*
X2934524Y-11419617D01*
X2944048Y-11429141D01*
X2963095Y-11438664D01*
X3001190Y-11438664D01*
X3020238Y-11429141D01*
X3029762Y-11419617D01*
X3039286Y-11400569D01*
X3115476Y-11314855D02*
X3115476Y-11352950D01*
X3191667Y-11314855D02*
X3191667Y-11352950D01*
X3486905Y-11591045D02*
X3477381Y-11581521D01*
X3458333Y-11552950D01*
X3448809Y-11533902D01*
X3439286Y-11505331D01*
X3429762Y-11457712D01*
X3429762Y-11419617D01*
X3439286Y-11371998D01*
X3448809Y-11343426D01*
X3458333Y-11324379D01*
X3477381Y-11295807D01*
X3486905Y-11286283D01*
X3667857Y-11514855D02*
X3553571Y-11514855D01*
X3610714Y-11514855D02*
X3610714Y-11314855D01*
X3591667Y-11343426D01*
X3572619Y-11362474D01*
X3553571Y-11371998D01*
X3734524Y-11314855D02*
X3867857Y-11314855D01*
X3782143Y-11514855D01*
X4096428Y-11514855D02*
X4096428Y-11314855D01*
X4182143Y-11514855D02*
X4182143Y-11410093D01*
X4172619Y-11391045D01*
X4153571Y-11381521D01*
X4125000Y-11381521D01*
X4105952Y-11391045D01*
X4096428Y-11400569D01*
X4305952Y-11514855D02*
X4286905Y-11505331D01*
X4277381Y-11495807D01*
X4267857Y-11476760D01*
X4267857Y-11419617D01*
X4277381Y-11400569D01*
X4286905Y-11391045D01*
X4305952Y-11381521D01*
X4334524Y-11381521D01*
X4353571Y-11391045D01*
X4363095Y-11400569D01*
X4372619Y-11419617D01*
X4372619Y-11476760D01*
X4363095Y-11495807D01*
X4353571Y-11505331D01*
X4334524Y-11514855D01*
X4305952Y-11514855D01*
X4486905Y-11514855D02*
X4467857Y-11505331D01*
X4458333Y-11486283D01*
X4458333Y-11314855D01*
X4639286Y-11505331D02*
X4620238Y-11514855D01*
X4582143Y-11514855D01*
X4563095Y-11505331D01*
X4553571Y-11486283D01*
X4553571Y-11410093D01*
X4563095Y-11391045D01*
X4582143Y-11381521D01*
X4620238Y-11381521D01*
X4639286Y-11391045D01*
X4648810Y-11410093D01*
X4648810Y-11429141D01*
X4553571Y-11448188D01*
X4725000Y-11505331D02*
X4744048Y-11514855D01*
X4782143Y-11514855D01*
X4801190Y-11505331D01*
X4810714Y-11486283D01*
X4810714Y-11476760D01*
X4801190Y-11457712D01*
X4782143Y-11448188D01*
X4753571Y-11448188D01*
X4734524Y-11438664D01*
X4725000Y-11419617D01*
X4725000Y-11410093D01*
X4734524Y-11391045D01*
X4753571Y-11381521D01*
X4782143Y-11381521D01*
X4801190Y-11391045D01*
X4877381Y-11591045D02*
X4886905Y-11581521D01*
X4905952Y-11552950D01*
X4915476Y-11533902D01*
X4925000Y-11505331D01*
X4934524Y-11457712D01*
X4934524Y-11419617D01*
X4925000Y-11371998D01*
X4915476Y-11343426D01*
X4905952Y-11324379D01*
X4886905Y-11295807D01*
X4877381Y-11286283D01*
X5239286Y-11591045D02*
X5229762Y-11581521D01*
X5210714Y-11552950D01*
X5201190Y-11533902D01*
X5191667Y-11505331D01*
X5182143Y-11457712D01*
X5182143Y-11419617D01*
X5191667Y-11371998D01*
X5201190Y-11343426D01*
X5210714Y-11324379D01*
X5229762Y-11295807D01*
X5239286Y-11286283D01*
X5315476Y-11381521D02*
X5315476Y-11514855D01*
X5315476Y-11400569D02*
X5325000Y-11391045D01*
X5344048Y-11381521D01*
X5372619Y-11381521D01*
X5391667Y-11391045D01*
X5401190Y-11410093D01*
X5401190Y-11514855D01*
X5525000Y-11514855D02*
X5505952Y-11505331D01*
X5496429Y-11495807D01*
X5486905Y-11476760D01*
X5486905Y-11419617D01*
X5496429Y-11400569D01*
X5505952Y-11391045D01*
X5525000Y-11381521D01*
X5553571Y-11381521D01*
X5572619Y-11391045D01*
X5582143Y-11400569D01*
X5591667Y-11419617D01*
X5591667Y-11476760D01*
X5582143Y-11495807D01*
X5572619Y-11505331D01*
X5553571Y-11514855D01*
X5525000Y-11514855D01*
X5648809Y-11381521D02*
X5725000Y-11381521D01*
X5677381Y-11314855D02*
X5677381Y-11486283D01*
X5686905Y-11505331D01*
X5705952Y-11514855D01*
X5725000Y-11514855D01*
X5944048Y-11381521D02*
X5944048Y-11581521D01*
X5944048Y-11391045D02*
X5963095Y-11381521D01*
X6001190Y-11381521D01*
X6020238Y-11391045D01*
X6029762Y-11400569D01*
X6039286Y-11419617D01*
X6039286Y-11476760D01*
X6029762Y-11495807D01*
X6020238Y-11505331D01*
X6001190Y-11514855D01*
X5963095Y-11514855D01*
X5944048Y-11505331D01*
X6153571Y-11514855D02*
X6134524Y-11505331D01*
X6125000Y-11486283D01*
X6125000Y-11314855D01*
X6315476Y-11514855D02*
X6315476Y-11410093D01*
X6305952Y-11391045D01*
X6286905Y-11381521D01*
X6248809Y-11381521D01*
X6229762Y-11391045D01*
X6315476Y-11505331D02*
X6296428Y-11514855D01*
X6248809Y-11514855D01*
X6229762Y-11505331D01*
X6220238Y-11486283D01*
X6220238Y-11467236D01*
X6229762Y-11448188D01*
X6248809Y-11438664D01*
X6296428Y-11438664D01*
X6315476Y-11429141D01*
X6382143Y-11381521D02*
X6458333Y-11381521D01*
X6410714Y-11314855D02*
X6410714Y-11486283D01*
X6420238Y-11505331D01*
X6439286Y-11514855D01*
X6458333Y-11514855D01*
X6601190Y-11505331D02*
X6582143Y-11514855D01*
X6544048Y-11514855D01*
X6525000Y-11505331D01*
X6515476Y-11486283D01*
X6515476Y-11410093D01*
X6525000Y-11391045D01*
X6544048Y-11381521D01*
X6582143Y-11381521D01*
X6601190Y-11391045D01*
X6610714Y-11410093D01*
X6610714Y-11429141D01*
X6515476Y-11448188D01*
X6782143Y-11514855D02*
X6782143Y-11314855D01*
X6782143Y-11505331D02*
X6763095Y-11514855D01*
X6725000Y-11514855D01*
X6705952Y-11505331D01*
X6696428Y-11495807D01*
X6686905Y-11476760D01*
X6686905Y-11419617D01*
X6696428Y-11400569D01*
X6705952Y-11391045D01*
X6725000Y-11381521D01*
X6763095Y-11381521D01*
X6782143Y-11391045D01*
X6858333Y-11591045D02*
X6867857Y-11581521D01*
X6886905Y-11552950D01*
X6896428Y-11533902D01*
X6905952Y-11505331D01*
X6915476Y-11457712D01*
X6915476Y-11419617D01*
X6905952Y-11371998D01*
X6896428Y-11343426D01*
X6886905Y-11324379D01*
X6867857Y-11295807D01*
X6858333Y-11286283D01*
M02*
