G04 #@! TF.GenerationSoftware,KiCad,Pcbnew,(6.0.7-1)-1*
G04 #@! TF.CreationDate,2022-12-06T10:28:10+01:00*
G04 #@! TF.ProjectId,pcb,7063622e-6b69-4636-9164-5f7063625858,rev?*
G04 #@! TF.SameCoordinates,Original*
G04 #@! TF.FileFunction,Paste,Top*
G04 #@! TF.FilePolarity,Positive*
%FSLAX46Y46*%
G04 Gerber Fmt 4.6, Leading zero omitted, Abs format (unit mm)*
G04 Created by KiCad (PCBNEW (6.0.7-1)-1) date 2022-12-06 10:28:10*
%MOMM*%
%LPD*%
G01*
G04 APERTURE LIST*
G04 Aperture macros list*
%AMRoundRect*
0 Rectangle with rounded corners*
0 $1 Rounding radius*
0 $2 $3 $4 $5 $6 $7 $8 $9 X,Y pos of 4 corners*
0 Add a 4 corners polygon primitive as box body*
4,1,4,$2,$3,$4,$5,$6,$7,$8,$9,$2,$3,0*
0 Add four circle primitives for the rounded corners*
1,1,$1+$1,$2,$3*
1,1,$1+$1,$4,$5*
1,1,$1+$1,$6,$7*
1,1,$1+$1,$8,$9*
0 Add four rect primitives between the rounded corners*
20,1,$1+$1,$2,$3,$4,$5,0*
20,1,$1+$1,$4,$5,$6,$7,0*
20,1,$1+$1,$6,$7,$8,$9,0*
20,1,$1+$1,$8,$9,$2,$3,0*%
%AMRotRect*
0 Rectangle, with rotation*
0 The origin of the aperture is its center*
0 $1 length*
0 $2 width*
0 $3 Rotation angle, in degrees counterclockwise*
0 Add horizontal line*
21,1,$1,$2,0,0,$3*%
G04 Aperture macros list end*
%ADD10R,0.700000X0.800000*%
%ADD11RotRect,0.700000X0.800000X7.000000*%
%ADD12RotRect,0.700000X0.800000X353.000000*%
%ADD13RotRect,0.700000X0.800000X62.000000*%
%ADD14RotRect,0.700000X0.800000X298.000000*%
%ADD15RotRect,0.700000X0.800000X16.000000*%
%ADD16RotRect,0.700000X0.800000X344.000000*%
%ADD17RoundRect,0.237500X-0.287500X-0.237500X0.287500X-0.237500X0.287500X0.237500X-0.287500X0.237500X0*%
%ADD18RoundRect,0.237500X-0.237500X0.250000X-0.237500X-0.250000X0.237500X-0.250000X0.237500X0.250000X0*%
%ADD19RoundRect,0.237500X0.237500X-0.300000X0.237500X0.300000X-0.237500X0.300000X-0.237500X-0.300000X0*%
%ADD20RoundRect,0.237500X0.300000X0.237500X-0.300000X0.237500X-0.300000X-0.237500X0.300000X-0.237500X0*%
%ADD21RotRect,1.050000X0.600000X0.100000*%
%ADD22RotRect,0.520000X0.400000X0.100000*%
%ADD23RotRect,0.320000X0.600000X0.100000*%
%ADD24RoundRect,0.237500X0.237500X-0.250000X0.237500X0.250000X-0.237500X0.250000X-0.237500X-0.250000X0*%
%ADD25RoundRect,0.237500X-0.092332X0.332236X-0.327068X-0.109237X0.092332X-0.332236X0.327068X0.109237X0*%
%ADD26R,1.000000X1.300000*%
%ADD27RoundRect,0.250000X0.650000X-0.325000X0.650000X0.325000X-0.650000X0.325000X-0.650000X-0.325000X0*%
%ADD28R,1.500000X0.550000*%
%ADD29RoundRect,0.237500X-0.297209X0.174852X-0.159390X-0.305779X0.297209X-0.174852X0.159390X0.305779X0*%
%ADD30RoundRect,0.237500X-0.250000X-0.237500X0.250000X-0.237500X0.250000X0.237500X-0.250000X0.237500X0*%
%ADD31RoundRect,0.237500X-0.237500X0.300000X-0.237500X-0.300000X0.237500X-0.300000X0.237500X0.300000X0*%
%ADD32RoundRect,0.237500X-0.300000X-0.237500X0.300000X-0.237500X0.300000X0.237500X-0.300000X0.237500X0*%
%ADD33RoundRect,0.237500X0.305779X0.159390X-0.174852X0.297209X-0.305779X-0.159390X0.174852X-0.297209X0*%
%ADD34R,1.150000X0.300000*%
%ADD35R,0.700000X0.510000*%
%ADD36RoundRect,0.237500X-0.344673X0.142348X-0.074727X-0.365347X0.344673X-0.142348X0.074727X0.365347X0*%
%ADD37RoundRect,0.237500X-0.341827X-0.149054X0.210899X-0.307545X0.341827X0.149054X-0.210899X0.307545X0*%
%ADD38RoundRect,0.237500X0.250000X0.237500X-0.250000X0.237500X-0.250000X-0.237500X0.250000X-0.237500X0*%
%ADD39RoundRect,0.237500X-0.109237X-0.327068X0.332236X-0.092332X0.109237X0.327068X-0.332236X0.092332X0*%
%ADD40RoundRect,0.237500X-0.210899X-0.307545X0.341827X-0.149054X0.210899X0.307545X-0.341827X0.149054X0*%
%ADD41RoundRect,0.250000X0.292217X-0.292217X0.292217X0.292217X-0.292217X0.292217X-0.292217X-0.292217X0*%
%ADD42RoundRect,0.050000X0.050000X-0.500000X0.050000X0.500000X-0.050000X0.500000X-0.050000X-0.500000X0*%
%ADD43RoundRect,0.050000X0.500000X-0.050000X0.500000X0.050000X-0.500000X0.050000X-0.500000X-0.050000X0*%
%ADD44RoundRect,0.237500X-0.044194X-0.380070X0.380070X0.044194X0.044194X0.380070X-0.380070X-0.044194X0*%
%ADD45RoundRect,0.237500X0.074727X-0.365347X0.344673X0.142348X-0.074727X0.365347X-0.344673X-0.142348X0*%
%ADD46R,0.250000X0.450000*%
%ADD47R,2.000000X0.200000*%
%ADD48RoundRect,0.237500X-0.314301X-0.200692X0.256413X-0.270767X0.314301X0.200692X-0.256413X0.270767X0*%
%ADD49RoundRect,0.232500X0.232500X-0.232500X0.232500X0.232500X-0.232500X0.232500X-0.232500X-0.232500X0*%
%ADD50RoundRect,0.050000X0.050000X-0.487500X0.050000X0.487500X-0.050000X0.487500X-0.050000X-0.487500X0*%
%ADD51RoundRect,0.050000X0.487500X-0.050000X0.487500X0.050000X-0.487500X0.050000X-0.487500X-0.050000X0*%
%ADD52RoundRect,0.237500X0.277081X0.205262X-0.219193X0.266197X-0.277081X-0.205262X0.219193X-0.266197X0*%
%ADD53RoundRect,0.237500X-0.266197X0.219193X-0.205262X-0.277081X0.266197X-0.219193X0.205262X0.277081X0*%
%ADD54RoundRect,0.237500X-0.256413X-0.270767X0.314301X-0.200692X0.256413X0.270767X-0.314301X0.200692X0*%
G04 APERTURE END LIST*
D10*
X13975000Y-40950000D03*
X13975000Y-42750000D03*
X8575000Y-42750000D03*
X8575000Y-40950000D03*
X249100000Y-2950000D03*
X249100000Y-4750000D03*
X243700000Y-4750000D03*
X243700000Y-2950000D03*
X201600000Y-21950000D03*
X201600000Y-23750000D03*
X196200000Y-23750000D03*
X196200000Y-21950000D03*
X234850000Y-59950000D03*
X234850000Y-61750000D03*
X229450000Y-61750000D03*
X229450000Y-59950000D03*
X130350000Y-40950000D03*
X130350000Y-42750000D03*
X124950000Y-42750000D03*
X124950000Y-40950000D03*
X63850000Y-59950000D03*
X63850000Y-61750000D03*
X58450000Y-61750000D03*
X58450000Y-59950000D03*
X196850000Y-59950000D03*
X196850000Y-61750000D03*
X191450000Y-61750000D03*
X191450000Y-59950000D03*
X230100000Y-2950000D03*
X230100000Y-4750000D03*
X224700000Y-4750000D03*
X224700000Y-2950000D03*
X215850000Y-59950000D03*
X215850000Y-61750000D03*
X210450000Y-61750000D03*
X210450000Y-59950000D03*
X87600000Y-21950000D03*
X87600000Y-23750000D03*
X82200000Y-23750000D03*
X82200000Y-21950000D03*
X287100000Y-2950000D03*
X287100000Y-4750000D03*
X281700000Y-4750000D03*
X281700000Y-2950000D03*
D11*
X200943861Y-79672086D03*
X201163226Y-81458669D03*
X195803477Y-82116763D03*
X195584112Y-80330180D03*
D12*
X73974832Y-80183937D03*
X73755468Y-81970520D03*
X68395718Y-81312425D03*
X68615083Y-79525842D03*
D10*
X173100000Y-2950000D03*
X173100000Y-4750000D03*
X167700000Y-4750000D03*
X167700000Y-2950000D03*
X220600000Y-21950000D03*
X220600000Y-23750000D03*
X215200000Y-23750000D03*
X215200000Y-21950000D03*
X120850000Y-59950000D03*
X120850000Y-61750000D03*
X115450000Y-61750000D03*
X115450000Y-59950000D03*
X263350000Y-40950000D03*
X263350000Y-42750000D03*
X257950000Y-42750000D03*
X257950000Y-40950000D03*
X263350000Y-78950000D03*
X263350000Y-80750000D03*
X257950000Y-80750000D03*
X257950000Y-78950000D03*
X192100000Y-2950000D03*
X192100000Y-4750000D03*
X186700000Y-4750000D03*
X186700000Y-2950000D03*
X111350000Y-40950000D03*
X111350000Y-42750000D03*
X105950000Y-42750000D03*
X105950000Y-40950000D03*
X239600000Y-21950000D03*
X239600000Y-23750000D03*
X234200000Y-23750000D03*
X234200000Y-21950000D03*
X282350000Y-78950000D03*
X282350000Y-80750000D03*
X276950000Y-80750000D03*
X276950000Y-78950000D03*
D13*
X116990586Y-92030751D03*
X118579891Y-92875800D03*
X116044745Y-97643717D03*
X114455439Y-96798668D03*
D10*
X82850000Y-59950000D03*
X82850000Y-61750000D03*
X77450000Y-61750000D03*
X77450000Y-59950000D03*
X287100000Y-59950000D03*
X287100000Y-61750000D03*
X281700000Y-61750000D03*
X281700000Y-59950000D03*
X182600000Y-21950000D03*
X182600000Y-23750000D03*
X177200000Y-23750000D03*
X177200000Y-21950000D03*
X101850000Y-59950000D03*
X101850000Y-61750000D03*
X96450000Y-61750000D03*
X96450000Y-59950000D03*
X244350000Y-40950000D03*
X244350000Y-42750000D03*
X238950000Y-42750000D03*
X238950000Y-40950000D03*
X139850000Y-78950000D03*
X139850000Y-80750000D03*
X134450000Y-80750000D03*
X134450000Y-78950000D03*
X163600000Y-21950000D03*
X163600000Y-23750000D03*
X158200000Y-23750000D03*
X158200000Y-21950000D03*
X206350000Y-40950000D03*
X206350000Y-42750000D03*
X200950000Y-42750000D03*
X200950000Y-40950000D03*
X35350000Y-40950000D03*
X35350000Y-42750000D03*
X29950000Y-42750000D03*
X29950000Y-40950000D03*
X11600000Y-59950000D03*
X11600000Y-61750000D03*
X6200000Y-61750000D03*
X6200000Y-59950000D03*
X144600000Y-21950000D03*
X144600000Y-23750000D03*
X139200000Y-23750000D03*
X139200000Y-21950000D03*
X68600000Y-21950000D03*
X68600000Y-23750000D03*
X63200000Y-23750000D03*
X63200000Y-21950000D03*
X135100000Y-2950000D03*
X135100000Y-4750000D03*
X129700000Y-4750000D03*
X129700000Y-2950000D03*
D14*
X160481195Y-95739131D03*
X158891889Y-96584180D03*
X156356743Y-91816263D03*
X157946048Y-90971214D03*
D10*
X78100000Y-2950000D03*
X78100000Y-4750000D03*
X72700000Y-4750000D03*
X72700000Y-2950000D03*
X116100000Y-2950000D03*
X116100000Y-4750000D03*
X110700000Y-4750000D03*
X110700000Y-2950000D03*
X106600000Y-21950000D03*
X106600000Y-23750000D03*
X101200000Y-23750000D03*
X101200000Y-21950000D03*
X37725000Y-59950000D03*
X37725000Y-61750000D03*
X32325000Y-61750000D03*
X32325000Y-59950000D03*
D15*
X181931780Y-83456884D03*
X182427927Y-85187155D03*
X177237114Y-86675596D03*
X176740967Y-84945325D03*
D10*
X54350000Y-78950000D03*
X54350000Y-80750000D03*
X48950000Y-80750000D03*
X48950000Y-78950000D03*
X211100000Y-2950000D03*
X211100000Y-4750000D03*
X205700000Y-4750000D03*
X205700000Y-2950000D03*
X25850000Y-21950000D03*
X25850000Y-23750000D03*
X20450000Y-23750000D03*
X20450000Y-21950000D03*
X21100000Y-2950000D03*
X21100000Y-4750000D03*
X15700000Y-4750000D03*
X15700000Y-2950000D03*
X35350000Y-78950000D03*
X35350000Y-80750000D03*
X29950000Y-80750000D03*
X29950000Y-78950000D03*
X225350000Y-40950000D03*
X225350000Y-42750000D03*
X219950000Y-42750000D03*
X219950000Y-40950000D03*
X260975000Y-59950000D03*
X260975000Y-61750000D03*
X255575000Y-61750000D03*
X255575000Y-59950000D03*
X139850000Y-59950000D03*
X139850000Y-61750000D03*
X134450000Y-61750000D03*
X134450000Y-59950000D03*
X73350000Y-40950000D03*
X73350000Y-42750000D03*
X67950000Y-42750000D03*
X67950000Y-40950000D03*
X40100000Y-2950000D03*
X40100000Y-4750000D03*
X34700000Y-4750000D03*
X34700000Y-2950000D03*
X13975000Y-78950000D03*
X13975000Y-80750000D03*
X8575000Y-80750000D03*
X8575000Y-78950000D03*
X258600000Y-21950000D03*
X258600000Y-23750000D03*
X253200000Y-23750000D03*
X253200000Y-21950000D03*
X268100000Y-2950000D03*
X268100000Y-4750000D03*
X262700000Y-4750000D03*
X262700000Y-2950000D03*
X125600000Y-21950000D03*
X125600000Y-23750000D03*
X120200000Y-23750000D03*
X120200000Y-21950000D03*
X225350000Y-78950000D03*
X225350000Y-80750000D03*
X219950000Y-80750000D03*
X219950000Y-78950000D03*
D16*
X95230519Y-84614560D03*
X94734372Y-86344832D03*
X89543559Y-84856390D03*
X90039706Y-83126119D03*
D10*
X149350000Y-40950000D03*
X149350000Y-42750000D03*
X143950000Y-42750000D03*
X143950000Y-40950000D03*
X177850000Y-59950000D03*
X177850000Y-61750000D03*
X172450000Y-61750000D03*
X172450000Y-59950000D03*
X97100000Y-2950000D03*
X97100000Y-4750000D03*
X91700000Y-4750000D03*
X91700000Y-2950000D03*
X59100000Y-2950000D03*
X59100000Y-4750000D03*
X53700000Y-4750000D03*
X53700000Y-2950000D03*
X154100000Y-2950000D03*
X154100000Y-4750000D03*
X148700000Y-4750000D03*
X148700000Y-2950000D03*
X158850000Y-59950000D03*
X158850000Y-61750000D03*
X153450000Y-61750000D03*
X153450000Y-59950000D03*
X244350000Y-78950000D03*
X244350000Y-80750000D03*
X238950000Y-80750000D03*
X238950000Y-78950000D03*
X168350000Y-40950000D03*
X168350000Y-42750000D03*
X162950000Y-42750000D03*
X162950000Y-40950000D03*
X92350000Y-40950000D03*
X92350000Y-42750000D03*
X86950000Y-42750000D03*
X86950000Y-40950000D03*
X282350000Y-21950000D03*
X282350000Y-23750000D03*
X276950000Y-23750000D03*
X276950000Y-21950000D03*
X54350000Y-40950000D03*
X54350000Y-42750000D03*
X48950000Y-42750000D03*
X48950000Y-40950000D03*
X284725000Y-40950000D03*
X284725000Y-42750000D03*
X279325000Y-42750000D03*
X279325000Y-40950000D03*
X49600000Y-21950000D03*
X49600000Y-23750000D03*
X44200000Y-23750000D03*
X44200000Y-21950000D03*
X187350000Y-40950000D03*
X187350000Y-42750000D03*
X181950000Y-42750000D03*
X181950000Y-40950000D03*
D17*
X208125000Y4800000D03*
X209875000Y4800000D03*
D18*
X236200000Y912500D03*
X236200000Y-912500D03*
X131699999Y-18087500D03*
X131699999Y-19912500D03*
D19*
X13400000Y-24162500D03*
X13400000Y-22437500D03*
X114200000Y-67962500D03*
X114200000Y-66237500D03*
D17*
X75125000Y4800000D03*
X76875000Y4800000D03*
D18*
X74700000Y-18087500D03*
X74700000Y-19912500D03*
D17*
X46625000Y-14200000D03*
X48375000Y-14200000D03*
D18*
X153500000Y-20287500D03*
X153500000Y-22112500D03*
D20*
X109862500Y-76050000D03*
X108137500Y-76050000D03*
D17*
X241375000Y-71200000D03*
X243125000Y-71200000D03*
D18*
X220000000Y-1287500D03*
X220000000Y-3112500D03*
D17*
X113125000Y4800000D03*
X114875000Y4800000D03*
D21*
X231450000Y-79200000D03*
D22*
X231449127Y-78700001D03*
D23*
X231051397Y-80000697D03*
X231851396Y-79999301D03*
D18*
X277000000Y-1287500D03*
X277000000Y-3112500D03*
X193450000Y-37087500D03*
X193450000Y-38912500D03*
X188700000Y-18087500D03*
X188700000Y-19912500D03*
D24*
X188700000Y-26112500D03*
X188700000Y-24287500D03*
D18*
X41450000Y-37087500D03*
X41450000Y-38912500D03*
X93700000Y-18087500D03*
X93700000Y-19912500D03*
D25*
X120628393Y-85294310D03*
X119771607Y-86905690D03*
D18*
X155450000Y-37087500D03*
X155450000Y-38912500D03*
D17*
X255625000Y-14200000D03*
X257375000Y-14200000D03*
X136875000Y-71200000D03*
X138625000Y-71200000D03*
X212875000Y-52200000D03*
X214625000Y-52200000D03*
D18*
X210500000Y-20287500D03*
X210500000Y-22112500D03*
X27200000Y912500D03*
X27200000Y-912500D03*
D17*
X146375000Y-33200000D03*
X148125000Y-33200000D03*
X236625000Y-14200000D03*
X238375000Y-14200000D03*
X122625000Y-14200000D03*
X124375000Y-14200000D03*
D18*
X31950000Y-18087500D03*
X31950000Y-19912500D03*
D17*
X260375000Y-33200000D03*
X262125000Y-33200000D03*
X279375000Y-71200000D03*
X281125000Y-71200000D03*
D18*
X134500000Y-20287500D03*
X134500000Y-22112500D03*
D17*
X189125000Y4800000D03*
X190875000Y4800000D03*
X222375000Y-33200000D03*
X224125000Y-33200000D03*
D24*
X165600000Y-70262500D03*
X165600000Y-68437500D03*
D17*
X70375000Y-33200000D03*
X72125000Y-33200000D03*
D26*
X125500000Y-78850000D03*
X125500000Y-76950000D03*
X124100000Y-76950000D03*
X124100000Y-78850000D03*
D22*
X179199127Y-2700001D03*
D21*
X179200000Y-3200000D03*
D23*
X178801397Y-4000697D03*
X179601396Y-3999301D03*
D17*
X151125000Y4800000D03*
X152875000Y4800000D03*
D27*
X158900000Y-81312500D03*
X158900000Y-78362500D03*
D18*
X162600000Y-68437500D03*
X162600000Y-70262500D03*
D17*
X127375000Y-33200000D03*
X129125000Y-33200000D03*
X79875000Y-52200000D03*
X81625000Y-52200000D03*
D18*
X150700000Y-18087500D03*
X150700000Y-19912500D03*
D17*
X141625000Y-14200000D03*
X143375000Y-14200000D03*
D18*
X191500000Y-20287500D03*
X191500000Y-22112500D03*
X122200000Y912500D03*
X122200000Y-912500D03*
X58500000Y-20287500D03*
X58500000Y-22112500D03*
X239000000Y-1287500D03*
X239000000Y-3112500D03*
X293200000Y912500D03*
X293200000Y-912500D03*
D17*
X32375000Y-33200000D03*
X34125000Y-33200000D03*
X260375000Y-71200000D03*
X262125000Y-71200000D03*
D28*
X148788000Y-75375500D03*
X148788000Y-72125500D03*
D20*
X111912500Y-66250000D03*
X110187500Y-66250000D03*
D18*
X221950000Y-56087500D03*
X221950000Y-57912500D03*
X172500000Y-20287500D03*
X172500000Y-22112500D03*
D29*
X186730826Y-78062623D03*
X187233864Y-79816925D03*
D18*
X201000000Y-1287500D03*
X201000000Y-3112500D03*
D24*
X198200000Y-7112500D03*
X198200000Y-5287500D03*
D18*
X231450000Y-75087500D03*
X231450000Y-76912500D03*
D20*
X110412500Y-69600000D03*
X108687500Y-69600000D03*
D17*
X117875000Y-52200000D03*
X119625000Y-52200000D03*
D30*
X124187500Y-74700000D03*
X126012500Y-74700000D03*
D31*
X161000000Y-78775000D03*
X161000000Y-80500000D03*
D32*
X124037500Y-73200000D03*
X125762500Y-73200000D03*
D18*
X150088000Y-68988000D03*
X150088000Y-70813000D03*
D33*
X103500000Y-86800000D03*
X101745698Y-86296962D03*
D18*
X145950000Y-56087500D03*
X145950000Y-57912500D03*
X250450000Y-75087500D03*
X250450000Y-76912500D03*
D24*
X193450000Y-45112500D03*
X193450000Y-43287500D03*
D18*
X164100000Y-68437500D03*
X164100000Y-70262500D03*
D17*
X108375000Y-33200000D03*
X110125000Y-33200000D03*
D31*
X127600000Y-75737500D03*
X127600000Y-77462500D03*
D18*
X46200000Y912500D03*
X46200000Y-912500D03*
D17*
X217625000Y-14200000D03*
X219375000Y-14200000D03*
X155875000Y-52200000D03*
X157625000Y-52200000D03*
D34*
X7370000Y-14050000D03*
X7370000Y-14850000D03*
X7370000Y-16150000D03*
X7370000Y-17150000D03*
X7370000Y-17650000D03*
X7370000Y-18650000D03*
X7370000Y-19950000D03*
X7370000Y-20750000D03*
X7370000Y-20450000D03*
X7370000Y-19650000D03*
X7370000Y-19150000D03*
X7370000Y-18150000D03*
X7370000Y-16650000D03*
X7370000Y-15650000D03*
X7370000Y-15150000D03*
X7370000Y-14350000D03*
D35*
X9490000Y-24300000D03*
X9490000Y-25250000D03*
X9490000Y-26200000D03*
X11810000Y-26200000D03*
X11810000Y-24300000D03*
D17*
X89375000Y-33200000D03*
X91125000Y-33200000D03*
X174875000Y-52200000D03*
X176625000Y-52200000D03*
D18*
X148388000Y-68988000D03*
X148388000Y-70813000D03*
X60450000Y-75087500D03*
X60450000Y-76912500D03*
D36*
X165889212Y-89527421D03*
X166710788Y-91072579D03*
D19*
X105750000Y-67562500D03*
X105750000Y-65837500D03*
D17*
X94125000Y4800000D03*
X95875000Y4800000D03*
D28*
X151838000Y-75375500D03*
X151838000Y-72125500D03*
D18*
X174450000Y-37087500D03*
X174450000Y-38912500D03*
D21*
X193450000Y-41200000D03*
D22*
X193449127Y-40700001D03*
D23*
X193051397Y-42000697D03*
X193851396Y-41999301D03*
D17*
X11000000Y-71200000D03*
X12750000Y-71200000D03*
D18*
X240950000Y-56087500D03*
X240950000Y-57912500D03*
X290825000Y-37087500D03*
X290825000Y-38912500D03*
X20075000Y-75087500D03*
X20075000Y-76912500D03*
D24*
X179200000Y-7112500D03*
X179200000Y-5287500D03*
D37*
X94506955Y-76344761D03*
X96189163Y-76827127D03*
D20*
X109862500Y-74550000D03*
X108137500Y-74550000D03*
D31*
X7700000Y-24487500D03*
X7700000Y-26212500D03*
D18*
X245700000Y-18087500D03*
X245700000Y-19912500D03*
D38*
X111712500Y-72800000D03*
X109887500Y-72800000D03*
D18*
X231450000Y-37087500D03*
X231450000Y-38912500D03*
D17*
X203375000Y-33200000D03*
X205125000Y-33200000D03*
D39*
X164094310Y-100928393D03*
X165705690Y-100071607D03*
D17*
X258000000Y-52200000D03*
X259750000Y-52200000D03*
X8625000Y-52200000D03*
X10375000Y-52200000D03*
D18*
X288450000Y-75087500D03*
X288450000Y-76912500D03*
X267075000Y-56087500D03*
X267075000Y-57912500D03*
D32*
X167687500Y-69950000D03*
X169412500Y-69950000D03*
D17*
X84625000Y-14200000D03*
X86375000Y-14200000D03*
D18*
X258000000Y-1287500D03*
X258000000Y-3112500D03*
D17*
X11000000Y-33200000D03*
X12750000Y-33200000D03*
D24*
X231450000Y-83112500D03*
X231450000Y-81287500D03*
D18*
X141200000Y912500D03*
X141200000Y-912500D03*
D17*
X51375000Y-33200000D03*
X53125000Y-33200000D03*
X246125000Y4800000D03*
X247875000Y4800000D03*
D20*
X106662500Y-79600000D03*
X104937500Y-79600000D03*
D18*
X96500000Y-20287500D03*
X96500000Y-22112500D03*
D17*
X56125000Y4800000D03*
X57875000Y4800000D03*
X22875000Y-14200000D03*
X24625000Y-14200000D03*
X231875000Y-52200000D03*
X233625000Y-52200000D03*
X103625000Y-14200000D03*
X105375000Y-14200000D03*
X32375000Y-71200000D03*
X34125000Y-71200000D03*
D18*
X217200000Y912500D03*
X217200000Y-912500D03*
D40*
X176935837Y-76827127D03*
X178618045Y-76344761D03*
D18*
X43825000Y-56087500D03*
X43825000Y-57912500D03*
D41*
X118487500Y-74037500D03*
X118487500Y-72762500D03*
X117212500Y-72762500D03*
X117212500Y-74037500D03*
D42*
X115250000Y-76950000D03*
X115650000Y-76950000D03*
X116050000Y-76950000D03*
X116450000Y-76950000D03*
X116850000Y-76950000D03*
X117250000Y-76950000D03*
X117650000Y-76950000D03*
X118050000Y-76950000D03*
X118450000Y-76950000D03*
X118850000Y-76950000D03*
X119250000Y-76950000D03*
X119650000Y-76950000D03*
X120050000Y-76950000D03*
X120450000Y-76950000D03*
D43*
X121400000Y-76000000D03*
X121400000Y-75600000D03*
X121400000Y-75200000D03*
X121400000Y-74800000D03*
X121400000Y-74400000D03*
X121400000Y-74000000D03*
X121400000Y-73600000D03*
X121400000Y-73200000D03*
X121400000Y-72800000D03*
X121400000Y-72400000D03*
X121400000Y-72000000D03*
X121400000Y-71600000D03*
X121400000Y-71200000D03*
X121400000Y-70800000D03*
D42*
X120450000Y-69850000D03*
X120050000Y-69850000D03*
X119650000Y-69850000D03*
X119250000Y-69850000D03*
X118850000Y-69850000D03*
X118450000Y-69850000D03*
X118050000Y-69850000D03*
X117650000Y-69850000D03*
X117250000Y-69850000D03*
X116850000Y-69850000D03*
X116450000Y-69850000D03*
X116050000Y-69850000D03*
X115650000Y-69850000D03*
X115250000Y-69850000D03*
D43*
X114300000Y-70800000D03*
X114300000Y-71200000D03*
X114300000Y-71600000D03*
X114300000Y-72000000D03*
X114300000Y-72400000D03*
X114300000Y-72800000D03*
X114300000Y-73200000D03*
X114300000Y-73600000D03*
X114300000Y-74000000D03*
X114300000Y-74400000D03*
X114300000Y-74800000D03*
X114300000Y-75200000D03*
X114300000Y-75600000D03*
X114300000Y-76000000D03*
D24*
X164100000Y-80812500D03*
X164100000Y-78987500D03*
D22*
X174449127Y-40700001D03*
D21*
X174450000Y-41200000D03*
D23*
X174051397Y-42000697D03*
X174851396Y-41999301D03*
D24*
X183950000Y-64112500D03*
X183950000Y-62287500D03*
D18*
X88950000Y-56087500D03*
X88950000Y-57912500D03*
X168300000Y-79187500D03*
X168300000Y-81012500D03*
D17*
X165375000Y-33200000D03*
X167125000Y-33200000D03*
D31*
X119450000Y-80437500D03*
X119450000Y-82162500D03*
D17*
X284125000Y4800000D03*
X285875000Y4800000D03*
X160625000Y-14200000D03*
X162375000Y-14200000D03*
D30*
X10037500Y-18950000D03*
X11862500Y-18950000D03*
D17*
X284125000Y-52200000D03*
X285875000Y-52200000D03*
D18*
X136450000Y-37087500D03*
X136450000Y-38912500D03*
D38*
X111712500Y-71300000D03*
X109887500Y-71300000D03*
D18*
X115500000Y-20287500D03*
X115500000Y-22112500D03*
X151788000Y-68938000D03*
X151788000Y-70763000D03*
D17*
X198625000Y-14200000D03*
X200375000Y-14200000D03*
D18*
X107950000Y-56087500D03*
X107950000Y-57912500D03*
D30*
X10037500Y-15900000D03*
X11862500Y-15900000D03*
D17*
X279375000Y-14200000D03*
X281125000Y-14200000D03*
X37125000Y4800000D03*
X38875000Y4800000D03*
D18*
X164950000Y-56087500D03*
X164950000Y-57912500D03*
D17*
X18125000Y4800000D03*
X19875000Y4800000D03*
D44*
X122090120Y-66709880D03*
X123309880Y-65490120D03*
D45*
X108751064Y-91019115D03*
X109572640Y-89473957D03*
D17*
X136875000Y-52200000D03*
X138625000Y-52200000D03*
X170125000Y4800000D03*
X171875000Y4800000D03*
X65625000Y-14200000D03*
X67375000Y-14200000D03*
D18*
X39500000Y-20287500D03*
X39500000Y-22112500D03*
D46*
X108550000Y-81775000D03*
X109050000Y-81775000D03*
X109550000Y-81775000D03*
X110050000Y-81775000D03*
X110050000Y-79225000D03*
X109550000Y-79225000D03*
X109050000Y-79225000D03*
X108550000Y-79225000D03*
D47*
X109100000Y-80500000D03*
D18*
X274200000Y912500D03*
X274200000Y-912500D03*
D17*
X227125000Y4800000D03*
X228875000Y4800000D03*
X184375000Y-33200000D03*
X186125000Y-33200000D03*
D31*
X114000000Y-79187500D03*
X114000000Y-80912500D03*
D48*
X71966495Y-72129142D03*
X73703451Y-72342414D03*
D17*
X60875000Y-52200000D03*
X62625000Y-52200000D03*
D18*
X117450000Y-37087500D03*
X117450000Y-38912500D03*
X103200000Y912500D03*
X103200000Y-912500D03*
D20*
X106662500Y-78000000D03*
X104937500Y-78000000D03*
D17*
X193875000Y-52200000D03*
X195625000Y-52200000D03*
D18*
X169700000Y-18087500D03*
X169700000Y-19912500D03*
D17*
X132125000Y4800000D03*
X133875000Y4800000D03*
D31*
X162550000Y-78775000D03*
X162550000Y-80500000D03*
X127600000Y-79137500D03*
X127600000Y-80862500D03*
D18*
X41450000Y-75087500D03*
X41450000Y-76912500D03*
X288450000Y-18087500D03*
X288450000Y-19912500D03*
X198200000Y912500D03*
X198200000Y-912500D03*
D17*
X241375000Y-33200000D03*
X243125000Y-33200000D03*
D18*
X79450000Y-37087500D03*
X79450000Y-38912500D03*
X55700000Y-18087500D03*
X55700000Y-19912500D03*
X20075000Y-37087500D03*
X20075000Y-38912500D03*
X269450000Y-75087500D03*
X269450000Y-76912500D03*
D24*
X165650000Y-81462500D03*
X165650000Y-79637500D03*
D17*
X281750000Y-33200000D03*
X283500000Y-33200000D03*
D18*
X160200000Y912500D03*
X160200000Y-912500D03*
X183950000Y-56087500D03*
X183950000Y-57912500D03*
D17*
X34750000Y-52200000D03*
X36500000Y-52200000D03*
D18*
X179200000Y912500D03*
X179200000Y-912500D03*
X112700000Y-18087500D03*
X112700000Y-19912500D03*
X269450000Y-37087500D03*
X269450000Y-38912500D03*
D24*
X60450000Y-83112500D03*
X60450000Y-81287500D03*
D18*
X202950000Y-56087500D03*
X202950000Y-57912500D03*
D21*
X198200000Y-3200000D03*
D22*
X198199127Y-2700001D03*
D23*
X197801397Y-4000697D03*
X198601396Y-3999301D03*
D18*
X293200000Y-56087500D03*
X293200000Y-57912500D03*
X69950000Y-56087500D03*
X69950000Y-57912500D03*
X212450000Y-37087500D03*
X212450000Y-38912500D03*
X17700000Y-56087500D03*
X17700000Y-57912500D03*
X98450000Y-37087500D03*
X98450000Y-38912500D03*
X84200000Y912500D03*
X84200000Y-912500D03*
X182000000Y-1287500D03*
X182000000Y-3112500D03*
D19*
X112000000Y-69512500D03*
X112000000Y-67787500D03*
D17*
X179625000Y-14200000D03*
X181375000Y-14200000D03*
D18*
X77500000Y-20287500D03*
X77500000Y-22112500D03*
D32*
X124937500Y-71600000D03*
X126662500Y-71600000D03*
D18*
X15750000Y-20287500D03*
X15750000Y-22112500D03*
D31*
X9850000Y-12125000D03*
X9850000Y-13850000D03*
D18*
X264700000Y-18087500D03*
X264700000Y-19912500D03*
D17*
X98875000Y-52200000D03*
X100625000Y-52200000D03*
D18*
X229500000Y-20287500D03*
X229500000Y-22112500D03*
X145950000Y-75087500D03*
X145950000Y-76912500D03*
D22*
X188699127Y-21700001D03*
D21*
X188700000Y-22200000D03*
D23*
X188301397Y-23000697D03*
X189101396Y-22999301D03*
D49*
X163725000Y-73912500D03*
X164875000Y-73912500D03*
X163725000Y-75062500D03*
X164875000Y-75062500D03*
D50*
X163100000Y-76550000D03*
X163500000Y-76550000D03*
X163900000Y-76550000D03*
X164300000Y-76550000D03*
X164700000Y-76550000D03*
X165100000Y-76550000D03*
X165500000Y-76550000D03*
D51*
X166362500Y-75687500D03*
X166362500Y-75287500D03*
X166362500Y-74887500D03*
X166362500Y-74487500D03*
X166362500Y-74087500D03*
X166362500Y-73687500D03*
X166362500Y-73287500D03*
D50*
X165500000Y-72425000D03*
X165100000Y-72425000D03*
X164700000Y-72425000D03*
X164300000Y-72425000D03*
X163900000Y-72425000D03*
X163500000Y-72425000D03*
X163100000Y-72425000D03*
D51*
X162237500Y-73287500D03*
X162237500Y-73687500D03*
X162237500Y-74087500D03*
X162237500Y-74487500D03*
X162237500Y-74887500D03*
X162237500Y-75287500D03*
X162237500Y-75687500D03*
D18*
X255200000Y912500D03*
X255200000Y-912500D03*
X60450000Y-37087500D03*
X60450000Y-38912500D03*
X65200000Y912500D03*
X65200000Y-912500D03*
D52*
X81800000Y-79600000D03*
X79988604Y-79377588D03*
D18*
X126950000Y-56087500D03*
X126950000Y-57912500D03*
D17*
X265125000Y4800000D03*
X266875000Y4800000D03*
D18*
X250450000Y-37087500D03*
X250450000Y-38912500D03*
D22*
X60449127Y-78700001D03*
D21*
X60450000Y-79200000D03*
D23*
X60051397Y-80000697D03*
X60851396Y-79999301D03*
D53*
X206527672Y-75094973D03*
X206750084Y-76906369D03*
D17*
X222375000Y-71200000D03*
X224125000Y-71200000D03*
D18*
X207700000Y-18087500D03*
X207700000Y-19912500D03*
D17*
X51375000Y-71200000D03*
X53125000Y-71200000D03*
D24*
X174450000Y-45112500D03*
X174450000Y-43287500D03*
D54*
X197046549Y-72342414D03*
X198783505Y-72129142D03*
D18*
X226700000Y-18087500D03*
X226700000Y-19912500D03*
D22*
X183949127Y-59700001D03*
D21*
X183950000Y-60200000D03*
D23*
X183551397Y-61000697D03*
X184351396Y-60999301D03*
M02*
