%TF.GenerationSoftware,KiCad,Pcbnew,(6.0.7-1)-1*%
%TF.CreationDate,2022-11-04T13:47:11+01:00*%
%TF.ProjectId,wrist-washer,77726973-742d-4776-9173-6865722e6b69,rev?*%
%TF.SameCoordinates,Original*%
%TF.FileFunction,Drillmap*%
%TF.FilePolarity,Positive*%
%FSLAX45Y45*%
G04 Gerber Fmt 4.5, Leading zero omitted, Abs format (unit mm)*
G04 Created by KiCad (PCBNEW (6.0.7-1)-1) date 2022-11-04 13:47:11*
%MOMM*%
%LPD*%
G01*
G04 APERTURE LIST*
%ADD10C,0.100000*%
%ADD11C,0.200000*%
%ADD12C,0.040000*%
G04 APERTURE END LIST*
D10*
X7700000Y-5652500D02*
G75*
G03*
X6900000Y-4852500I-800000J0D01*
G01*
X800000Y-3752500D02*
G75*
G03*
X0Y-4552500I0J-800000D01*
G01*
X8800000Y-4552500D02*
G75*
G03*
X8000000Y-3752500I-800000J0D01*
G01*
X0Y-9452500D02*
X0Y-4552500D01*
X6900000Y-4852500D02*
X1900000Y-4852500D01*
X8000000Y-3752500D02*
X800000Y-3752500D01*
X1100000Y-8352500D02*
G75*
G03*
X1900000Y-9152500I800000J0D01*
G01*
X7700000Y-5652500D02*
X7700000Y-8352500D01*
X8800000Y-4552500D02*
X8800000Y-9452500D01*
X6900000Y-9152500D02*
X1900000Y-9152500D01*
X8000000Y-10252500D02*
X800000Y-10252500D01*
X8000000Y-10252500D02*
G75*
G03*
X8800000Y-9452500I0J800000D01*
G01*
X1100000Y-8352500D02*
X1100000Y-5652500D01*
X6900000Y-9152500D02*
G75*
G03*
X7700000Y-8352500I0J800000D01*
G01*
X1900000Y-4852500D02*
G75*
G03*
X1100000Y-5652500I0J-800000D01*
G01*
X0Y-9452500D02*
G75*
G03*
X800000Y-10252500I800000J0D01*
G01*
D11*
D12*
X7595000Y-4020000D02*
X7635000Y-4060000D01*
X7635000Y-4020000D02*
X7595000Y-4060000D01*
D11*
X252619Y-10567976D02*
X252619Y-10367976D01*
X300238Y-10367976D01*
X328810Y-10377500D01*
X347857Y-10396548D01*
X357381Y-10415595D01*
X366905Y-10453690D01*
X366905Y-10482262D01*
X357381Y-10520357D01*
X347857Y-10539405D01*
X328810Y-10558452D01*
X300238Y-10567976D01*
X252619Y-10567976D01*
X452619Y-10567976D02*
X452619Y-10434643D01*
X452619Y-10472738D02*
X462143Y-10453690D01*
X471667Y-10444167D01*
X490714Y-10434643D01*
X509762Y-10434643D01*
X576429Y-10567976D02*
X576429Y-10434643D01*
X576429Y-10367976D02*
X566905Y-10377500D01*
X576429Y-10387024D01*
X585952Y-10377500D01*
X576429Y-10367976D01*
X576429Y-10387024D01*
X700238Y-10567976D02*
X681190Y-10558452D01*
X671667Y-10539405D01*
X671667Y-10367976D01*
X805000Y-10567976D02*
X785952Y-10558452D01*
X776428Y-10539405D01*
X776428Y-10367976D01*
X1033571Y-10567976D02*
X1033571Y-10367976D01*
X1100238Y-10510833D01*
X1166905Y-10367976D01*
X1166905Y-10567976D01*
X1347857Y-10567976D02*
X1347857Y-10463214D01*
X1338333Y-10444167D01*
X1319286Y-10434643D01*
X1281190Y-10434643D01*
X1262143Y-10444167D01*
X1347857Y-10558452D02*
X1328810Y-10567976D01*
X1281190Y-10567976D01*
X1262143Y-10558452D01*
X1252619Y-10539405D01*
X1252619Y-10520357D01*
X1262143Y-10501310D01*
X1281190Y-10491786D01*
X1328810Y-10491786D01*
X1347857Y-10482262D01*
X1443095Y-10434643D02*
X1443095Y-10634643D01*
X1443095Y-10444167D02*
X1462143Y-10434643D01*
X1500238Y-10434643D01*
X1519286Y-10444167D01*
X1528809Y-10453690D01*
X1538333Y-10472738D01*
X1538333Y-10529881D01*
X1528809Y-10548929D01*
X1519286Y-10558452D01*
X1500238Y-10567976D01*
X1462143Y-10567976D01*
X1443095Y-10558452D01*
X1624048Y-10548929D02*
X1633571Y-10558452D01*
X1624048Y-10567976D01*
X1614524Y-10558452D01*
X1624048Y-10548929D01*
X1624048Y-10567976D01*
X1624048Y-10444167D02*
X1633571Y-10453690D01*
X1624048Y-10463214D01*
X1614524Y-10453690D01*
X1624048Y-10444167D01*
X1624048Y-10463214D01*
D12*
X-45000Y-10877500D02*
X-5000Y-10917500D01*
X-5000Y-10877500D02*
X-45000Y-10917500D01*
D11*
X290714Y-10787976D02*
X309762Y-10787976D01*
X328810Y-10797500D01*
X338333Y-10807024D01*
X347857Y-10826071D01*
X357381Y-10864167D01*
X357381Y-10911786D01*
X347857Y-10949881D01*
X338333Y-10968929D01*
X328810Y-10978452D01*
X309762Y-10987976D01*
X290714Y-10987976D01*
X271667Y-10978452D01*
X262143Y-10968929D01*
X252619Y-10949881D01*
X243095Y-10911786D01*
X243095Y-10864167D01*
X252619Y-10826071D01*
X262143Y-10807024D01*
X271667Y-10797500D01*
X290714Y-10787976D01*
X443095Y-10968929D02*
X452619Y-10978452D01*
X443095Y-10987976D01*
X433571Y-10978452D01*
X443095Y-10968929D01*
X443095Y-10987976D01*
X624048Y-10854643D02*
X624048Y-10987976D01*
X576429Y-10778452D02*
X528810Y-10921310D01*
X652619Y-10921310D01*
X766905Y-10787976D02*
X785952Y-10787976D01*
X805000Y-10797500D01*
X814524Y-10807024D01*
X824048Y-10826071D01*
X833571Y-10864167D01*
X833571Y-10911786D01*
X824048Y-10949881D01*
X814524Y-10968929D01*
X805000Y-10978452D01*
X785952Y-10987976D01*
X766905Y-10987976D01*
X747857Y-10978452D01*
X738333Y-10968929D01*
X728809Y-10949881D01*
X719286Y-10911786D01*
X719286Y-10864167D01*
X728809Y-10826071D01*
X738333Y-10807024D01*
X747857Y-10797500D01*
X766905Y-10787976D01*
X957381Y-10787976D02*
X976428Y-10787976D01*
X995476Y-10797500D01*
X1005000Y-10807024D01*
X1014524Y-10826071D01*
X1024048Y-10864167D01*
X1024048Y-10911786D01*
X1014524Y-10949881D01*
X1005000Y-10968929D01*
X995476Y-10978452D01*
X976428Y-10987976D01*
X957381Y-10987976D01*
X938333Y-10978452D01*
X928809Y-10968929D01*
X919286Y-10949881D01*
X909762Y-10911786D01*
X909762Y-10864167D01*
X919286Y-10826071D01*
X928809Y-10807024D01*
X938333Y-10797500D01*
X957381Y-10787976D01*
X1109762Y-10987976D02*
X1109762Y-10854643D01*
X1109762Y-10873690D02*
X1119286Y-10864167D01*
X1138333Y-10854643D01*
X1166905Y-10854643D01*
X1185952Y-10864167D01*
X1195476Y-10883214D01*
X1195476Y-10987976D01*
X1195476Y-10883214D02*
X1205000Y-10864167D01*
X1224048Y-10854643D01*
X1252619Y-10854643D01*
X1271667Y-10864167D01*
X1281190Y-10883214D01*
X1281190Y-10987976D01*
X1376429Y-10987976D02*
X1376429Y-10854643D01*
X1376429Y-10873690D02*
X1385952Y-10864167D01*
X1405000Y-10854643D01*
X1433571Y-10854643D01*
X1452619Y-10864167D01*
X1462143Y-10883214D01*
X1462143Y-10987976D01*
X1462143Y-10883214D02*
X1471667Y-10864167D01*
X1490714Y-10854643D01*
X1519286Y-10854643D01*
X1538333Y-10864167D01*
X1547857Y-10883214D01*
X1547857Y-10987976D01*
X1938333Y-10778452D02*
X1766905Y-11035595D01*
X2195476Y-10787976D02*
X2214524Y-10787976D01*
X2233571Y-10797500D01*
X2243095Y-10807024D01*
X2252619Y-10826071D01*
X2262143Y-10864167D01*
X2262143Y-10911786D01*
X2252619Y-10949881D01*
X2243095Y-10968929D01*
X2233571Y-10978452D01*
X2214524Y-10987976D01*
X2195476Y-10987976D01*
X2176429Y-10978452D01*
X2166905Y-10968929D01*
X2157381Y-10949881D01*
X2147857Y-10911786D01*
X2147857Y-10864167D01*
X2157381Y-10826071D01*
X2166905Y-10807024D01*
X2176429Y-10797500D01*
X2195476Y-10787976D01*
X2347857Y-10968929D02*
X2357381Y-10978452D01*
X2347857Y-10987976D01*
X2338333Y-10978452D01*
X2347857Y-10968929D01*
X2347857Y-10987976D01*
X2481190Y-10787976D02*
X2500238Y-10787976D01*
X2519286Y-10797500D01*
X2528810Y-10807024D01*
X2538333Y-10826071D01*
X2547857Y-10864167D01*
X2547857Y-10911786D01*
X2538333Y-10949881D01*
X2528810Y-10968929D01*
X2519286Y-10978452D01*
X2500238Y-10987976D01*
X2481190Y-10987976D01*
X2462143Y-10978452D01*
X2452619Y-10968929D01*
X2443095Y-10949881D01*
X2433571Y-10911786D01*
X2433571Y-10864167D01*
X2443095Y-10826071D01*
X2452619Y-10807024D01*
X2462143Y-10797500D01*
X2481190Y-10787976D01*
X2738333Y-10987976D02*
X2624048Y-10987976D01*
X2681190Y-10987976D02*
X2681190Y-10787976D01*
X2662143Y-10816548D01*
X2643095Y-10835595D01*
X2624048Y-10845119D01*
X2919286Y-10787976D02*
X2824048Y-10787976D01*
X2814524Y-10883214D01*
X2824048Y-10873690D01*
X2843095Y-10864167D01*
X2890714Y-10864167D01*
X2909762Y-10873690D01*
X2919286Y-10883214D01*
X2928809Y-10902262D01*
X2928809Y-10949881D01*
X2919286Y-10968929D01*
X2909762Y-10978452D01*
X2890714Y-10987976D01*
X2843095Y-10987976D01*
X2824048Y-10978452D01*
X2814524Y-10968929D01*
X2995476Y-10787976D02*
X3128809Y-10787976D01*
X3043095Y-10987976D01*
X3195476Y-10787976D02*
X3195476Y-10826071D01*
X3271667Y-10787976D02*
X3271667Y-10826071D01*
X3566905Y-11064167D02*
X3557381Y-11054643D01*
X3538333Y-11026071D01*
X3528809Y-11007024D01*
X3519286Y-10978452D01*
X3509762Y-10930833D01*
X3509762Y-10892738D01*
X3519286Y-10845119D01*
X3528809Y-10816548D01*
X3538333Y-10797500D01*
X3557381Y-10768929D01*
X3566905Y-10759405D01*
X3747857Y-10987976D02*
X3633571Y-10987976D01*
X3690714Y-10987976D02*
X3690714Y-10787976D01*
X3671667Y-10816548D01*
X3652619Y-10835595D01*
X3633571Y-10845119D01*
X3985952Y-10987976D02*
X3985952Y-10787976D01*
X4071667Y-10987976D02*
X4071667Y-10883214D01*
X4062143Y-10864167D01*
X4043095Y-10854643D01*
X4014524Y-10854643D01*
X3995476Y-10864167D01*
X3985952Y-10873690D01*
X4195476Y-10987976D02*
X4176428Y-10978452D01*
X4166905Y-10968929D01*
X4157381Y-10949881D01*
X4157381Y-10892738D01*
X4166905Y-10873690D01*
X4176428Y-10864167D01*
X4195476Y-10854643D01*
X4224048Y-10854643D01*
X4243095Y-10864167D01*
X4252619Y-10873690D01*
X4262143Y-10892738D01*
X4262143Y-10949881D01*
X4252619Y-10968929D01*
X4243095Y-10978452D01*
X4224048Y-10987976D01*
X4195476Y-10987976D01*
X4376429Y-10987976D02*
X4357381Y-10978452D01*
X4347857Y-10959405D01*
X4347857Y-10787976D01*
X4528810Y-10978452D02*
X4509762Y-10987976D01*
X4471667Y-10987976D01*
X4452619Y-10978452D01*
X4443095Y-10959405D01*
X4443095Y-10883214D01*
X4452619Y-10864167D01*
X4471667Y-10854643D01*
X4509762Y-10854643D01*
X4528810Y-10864167D01*
X4538333Y-10883214D01*
X4538333Y-10902262D01*
X4443095Y-10921310D01*
X4605000Y-11064167D02*
X4614524Y-11054643D01*
X4633571Y-11026071D01*
X4643095Y-11007024D01*
X4652619Y-10978452D01*
X4662143Y-10930833D01*
X4662143Y-10892738D01*
X4652619Y-10845119D01*
X4643095Y-10816548D01*
X4633571Y-10797500D01*
X4614524Y-10768929D01*
X4605000Y-10759405D01*
M02*
