M48
; DRILL file {KiCad (6.0.7-1)-1} date Thursday, October 27, 2022 at 09:15:11 PM
; FORMAT={-:-/ absolute / metric / decimal}
; #@! TF.CreationDate,2022-10-27T21:15:11+02:00
; #@! TF.GenerationSoftware,Kicad,Pcbnew,(6.0.7-1)-1
; #@! TF.FileFunction,Plated,1,2,PTH
FMAT,2
METRIC
; #@! TA.AperFunction,Plated,PTH,ViaDrill
T1C0.350
; #@! TA.AperFunction,Plated,PTH,ViaDrill
T2C0.400
; #@! TA.AperFunction,Plated,PTH,ComponentDrill
T3C0.650
; #@! TA.AperFunction,Plated,PTH,ComponentDrill
T4C0.800
; #@! TA.AperFunction,Plated,PTH,ComponentDrill
T5C1.000
; #@! TA.AperFunction,Plated,PTH,ComponentDrill
T6C2.500
; #@! TA.AperFunction,Plated,PTH,ComponentDrill
T7C3.730
%
G90
G05
T1
X20.283Y-13.741
X20.75Y-33.25
X27.95Y2.75
X32.7Y-15.7
X48.19Y-34.7
X64.29Y-70.98
X65.05Y-53.7
X65.724Y-34.777
X76.68Y-53.7
X83.864Y-48.206
X84.72Y-73.79
X87.733Y-76.974
X89.537Y-58.888
X94.507Y-76.345
X103.33Y-48.423
X103.95Y-46.0
X105.224Y-92.55
X109.576Y-59.274
X110.625Y-85.142
X115.558Y-87.525
X121.7Y-34.7
X121.7Y-53.7
X123.126Y-57.452
X127.75Y3.3
X127.75Y-15.7
X132.85Y-67.1
X134.1Y-73.487
X135.481Y-65.2
X137.64Y-72.87
X139.951Y-30.551
X142.274Y-65.613
X142.665Y-29.767
X158.49Y-87.38
X160.625Y-48.125
X167.1Y-52.2
X168.043Y-65.499
X173.75Y-70.28
X173.75Y-72.5
X173.832Y-67.648
X177.0Y-14.25
X184.45Y3.3
X197.162Y-15.662
X198.891Y-34.1
X216.8Y-53.7
X217.55Y-34.7
X219.9Y-68.95
X222.375Y-71.2
X239.5Y-71.0
X241.95Y-53.7
X273.0Y-10.75
X284.0Y-26.0
X288.45Y-64.59
X288.75Y-26.0
T2
X5.21Y-39.0
X6.2Y-58.95
X7.575Y-80.75
X8.575Y-39.95
X8.575Y-77.95
X10.11Y-92.5
X13.2Y-4.7
X13.375Y-52.2
X14.43Y-17.77
X14.83Y-1.53
X15.75Y-33.2
X15.75Y-71.2
X19.724Y-23.78
X20.45Y-20.95
X22.81Y-64.3
X22.825Y4.794
X23.272Y-32.678
X23.7Y-8.55
X24.07Y-63.49
X24.131Y-33.189
X24.271Y-6.765
X25.18Y-6.35
X25.268Y-33.045
X25.268Y-47.768
X25.4Y3.75
X25.4Y-3.7
X26.175Y-6.436
X26.268Y-33.058
X26.918Y3.724
X27.1Y-27.55
X27.181Y-11.036
X27.524Y-34.409
X27.524Y-42.347
X27.524Y-45.49
X27.625Y-14.2
X27.825Y-26.495
X28.005Y-32.348
X28.226Y-25.395
X28.75Y-11.8
X28.857Y-42.932
X28.95Y-80.75
X29.424Y-20.1
X29.594Y-63.704
X29.675Y-28.675
X29.95Y-77.95
X30.3Y-51.3
X30.39Y-19.839
X30.874Y-39.95
X30.95Y3.824
X31.2Y-12.65
X31.535Y-10.525
X32.0Y4.35
X32.164Y-9.749
X33.05Y-17.35
X33.224Y-58.95
X33.7Y-4.75
X34.7Y-1.95
X37.69Y-45.46
X39.674Y-34.978
X39.674Y-52.259
X39.805Y-73.381
X40.249Y-41.601
X41.875Y4.8
X41.986Y-27.799
X43.2Y-23.75
X44.2Y-20.95
X47.95Y-42.75
X47.95Y-80.75
X48.85Y-44.49
X48.95Y-39.95
X48.95Y-77.95
X51.375Y-14.2
X52.7Y-4.75
X52.7Y-11.175
X53.7Y-1.95
X57.45Y-61.75
X58.45Y-58.95
X60.875Y4.8
X61.525Y-23.75
X62.25Y-29.4
X62.3Y-45.95
X63.2Y-20.95
X65.075Y-34.15
X65.824Y-52.269
X66.95Y-42.75
X67.403Y-81.191
X67.95Y-39.95
X68.737Y-78.533
X70.375Y-14.2
X71.7Y-4.75
X72.034Y-10.375
X72.7Y-1.95
X75.932Y-61.75
X76.681Y-72.708
X77.45Y-58.95
X79.875Y4.8
X81.2Y-23.75
X82.2Y-20.95
X83.125Y-33.2
X83.775Y-52.2
X83.874Y-44.224
X85.626Y-46.74
X85.95Y-42.75
X86.95Y-39.95
X88.497Y-84.826
X89.275Y-14.2
X90.0Y-5.65
X90.315Y-82.165
X90.55Y-23.75
X90.774Y-4.737
X90.825Y-9.865
X91.7Y-1.95
X92.91Y-72.41
X95.45Y-61.75
X96.75Y-48.401
X96.78Y-59.349
X97.991Y-77.7
X98.875Y4.8
X99.105Y-24.257
X99.83Y-21.8
X101.579Y-10.375
X102.05Y-87.93
X102.125Y-33.2
X102.193Y-79.719
X102.75Y-39.0
X103.943Y-52.024
X104.95Y-42.75
X105.95Y-39.95
X108.375Y-14.2
X109.7Y-4.75
X109.7Y-9.05
X110.7Y-1.95
X110.981Y-86.861
X111.05Y-13.45
X113.572Y-96.329
X114.45Y-61.75
X115.14Y-30.63
X115.575Y-98.527
X116.053Y-59.869
X116.622Y-86.94
X117.413Y-25.537
X117.875Y4.8
X118.57Y-91.42
X118.7Y-48.8
X118.869Y-28.976
X120.2Y-20.95
X121.55Y-28.65
X122.999Y-52.024
X123.766Y-33.075
X124.099Y-42.7
X124.384Y-45.426
X124.95Y-39.95
X125.15Y-48.7
X125.621Y-85.965
X128.7Y-4.75
X128.979Y-8.512
X129.206Y-11.824
X129.7Y-1.95
X132.701Y-61.727
X132.94Y-30.05
X134.55Y-70.55
X134.747Y-78.025
X135.299Y-58.886
X136.875Y4.8
X138.2Y-23.75
X138.488Y-81.417
X139.2Y-20.95
X140.692Y-33.767
X141.625Y-52.2
X141.625Y-71.2
X142.95Y-42.75
X143.95Y-39.95
X144.0Y-28.6
X146.375Y-14.2
X147.7Y-4.75
X147.7Y-8.55
X148.7Y-1.95
X152.45Y-61.75
X153.45Y-58.95
X154.55Y-80.92
X155.7Y-69.38
X155.875Y4.8
X156.043Y-91.332
X157.2Y-23.75
X157.23Y-80.0
X157.4Y-84.82
X158.2Y-20.95
X159.125Y-33.2
X160.625Y-52.2
X161.74Y-78.64
X161.95Y-42.75
X162.95Y-39.95
X165.308Y-87.255
X165.371Y-94.498
X165.375Y-14.2
X166.7Y-4.75
X166.7Y-7.8
X167.7Y-1.95
X168.313Y-94.067
X171.45Y-61.75
X172.029Y-68.4
X172.45Y-58.95
X174.875Y4.8
X176.2Y-23.75
X176.276Y-86.951
X176.749Y-83.984
X177.2Y-20.95
X178.125Y-33.2
X179.625Y-52.2
X180.38Y-62.51
X180.5Y-39.25
X180.95Y-42.75
X181.05Y-46.3
X181.502Y-75.518
X181.95Y-39.95
X184.375Y-14.2
X185.7Y-4.75
X186.7Y-1.95
X190.575Y-28.375
X190.735Y-61.386
X191.45Y-58.95
X193.875Y4.8
X194.811Y-82.239
X195.2Y-23.75
X195.462Y-79.338
X196.2Y-20.95
X197.125Y-33.2
X198.625Y-52.2
X199.5Y-34.9
X199.5Y-39.25
X199.95Y-42.75
X200.95Y-39.95
X201.761Y-71.764
X203.375Y-14.2
X204.7Y-4.75
X205.7Y-1.95
X208.87Y-40.0
X208.89Y-23.48
X209.468Y-61.682
X209.639Y-28.342
X210.45Y-58.95
X212.875Y4.8
X213.312Y-68.849
X214.2Y-23.75
X215.2Y-20.95
X215.25Y-26.5
X216.125Y-33.2
X217.649Y-52.2
X218.95Y-42.75
X218.95Y-80.75
X219.95Y-39.95
X219.95Y-77.95
X222.375Y-14.2
X222.62Y-90.92
X223.7Y-4.75
X223.7Y-11.2
X224.7Y-1.95
X227.125Y-71.2
X228.45Y-61.75
X228.5Y-63.5
X228.75Y-24.0
X228.776Y-28.775
X229.499Y-58.95
X231.875Y4.8
X234.2Y-20.95
X235.125Y-33.2
X236.625Y-52.2
X237.95Y-31.55
X237.95Y-42.75
X237.95Y-80.75
X238.95Y-39.95
X238.95Y-77.95
X240.78Y-5.65
X240.94Y-23.68
X241.689Y-13.788
X242.7Y-4.75
X243.7Y-1.95
X246.125Y-71.2
X250.875Y4.8
X253.2Y-20.95
X254.125Y-33.2
X254.575Y-61.75
X254.874Y-38.78
X255.575Y-58.95
X256.652Y-69.126
X256.95Y-42.75
X256.95Y-80.75
X257.0Y-44.5
X257.95Y-39.95
X257.95Y-77.95
X260.375Y-14.2
X261.7Y-4.75
X262.7Y-1.95
X262.75Y-52.2
X263.75Y-57.75
X264.28Y-61.47
X265.125Y-71.2
X266.6Y-81.65
X269.875Y4.8
X270.55Y-17.9
X271.5Y-50.5
X274.5Y-37.5
X275.95Y-80.75
X276.95Y-20.95
X276.95Y-77.95
X279.325Y-39.95
X280.7Y-4.75
X281.7Y-1.95
X281.7Y-58.95
X284.125Y-14.2
X284.125Y-71.2
X285.0Y-24.0
X286.0Y-43.5
X286.524Y-33.2
X287.952Y-60.693
X288.875Y4.8
X289.529Y-51.632
T3
X106.0Y-69.11
X106.0Y-70.38
X106.0Y-71.65
X106.0Y-72.92
X106.0Y-74.19
X106.0Y-75.46
X106.0Y-76.73
X106.0Y-78.0
X106.0Y-79.25
X107.44Y-67.0
X107.44Y-82.0
X108.71Y-67.0
X108.71Y-82.0
X109.98Y-67.0
X109.98Y-82.0
X111.25Y-67.0
X111.25Y-82.0
X113.05Y-67.0
X113.05Y-82.0
X114.32Y-67.0
X114.32Y-82.0
X115.59Y-67.0
X115.59Y-82.0
X116.86Y-67.0
X116.86Y-82.0
X118.13Y-67.0
X118.13Y-82.0
X119.4Y-67.0
X119.4Y-82.0
X120.67Y-67.0
X120.67Y-82.0
X121.94Y-67.0
X121.94Y-82.0
X123.21Y-67.0
X123.21Y-82.0
X124.48Y-67.0
X124.48Y-82.0
X125.75Y-67.0
X125.75Y-82.0
T4
X-5.5Y5.25
X-5.5Y-28.793
X-3.5Y5.25
X-3.5Y-28.793
X-1.5Y5.25
X-1.5Y-28.793
X0.5Y5.25
X0.5Y-28.793
X2.5Y5.25
X2.5Y-28.793
X4.5Y5.25
X4.5Y-28.793
X6.5Y5.25
X6.5Y-28.793
X8.5Y5.25
X8.5Y-28.793
X10.0Y3.25
X10.0Y1.25
X10.0Y-0.75
X10.0Y-2.75
X10.0Y-4.75
X10.0Y-6.75
X10.0Y-8.75
X10.0Y-10.75
X10.0Y-12.75
X10.0Y-14.75
X10.0Y-16.75
X10.0Y-18.75
X10.0Y-20.75
X10.0Y-22.75
X10.0Y-24.75
X10.0Y-26.75
T5
X44.96Y8.35
X47.5Y8.35
X50.04Y8.35
X139.96Y8.35
X142.5Y8.35
X145.04Y8.35
X253.96Y8.35
X256.5Y8.35
X259.04Y8.35
T6
X1.8Y-83.1
X28.5Y7.1
X35.625Y-27.9
X47.5Y-48.1
X81.938Y-85.0
X95.0Y-27.9
X104.5Y7.1
X137.75Y-46.9
X149.15Y-83.7
X171.0Y-27.9
X185.25Y-67.1
X199.5Y7.1
X210.9Y-83.1
X232.75Y-46.9
X268.375Y-27.9
X275.5Y7.1
X291.75Y-47.5
X291.8Y-80.1
T7
X-7.75Y-120.025
X-7.75Y-172.025
X67.25Y-120.025
X67.25Y-172.025
X208.25Y-120.025
X208.25Y-172.025
X283.25Y-120.025
X283.25Y-172.025
T0
M30
