%TF.GenerationSoftware,KiCad,Pcbnew,(6.0.7-1)-1*%
%TF.CreationDate,2022-11-04T13:28:15+01:00*%
%TF.ProjectId,switch-plate,73776974-6368-42d7-906c-6174652e6b69,rev?*%
%TF.SameCoordinates,Original*%
%TF.FileFunction,Drillmap*%
%TF.FilePolarity,Positive*%
%FSLAX45Y45*%
G04 Gerber Fmt 4.5, Leading zero omitted, Abs format (unit mm)*
G04 Created by KiCad (PCBNEW (6.0.7-1)-1) date 2022-11-04 13:28:15*
%MOMM*%
%LPD*%
G01*
G04 APERTURE LIST*
%ADD10C,0.100000*%
%ADD11C,0.200000*%
G04 APERTURE END LIST*
D10*
X20722112Y-8628134D02*
X21107500Y-8627500D01*
X17602723Y-9684846D02*
X17510507Y-9540477D01*
X12953147Y-8630753D02*
X14596853Y-8630753D01*
X9994245Y-9595604D02*
X9932491Y-9708509D01*
X5837500Y-8632500D02*
X6551397Y-8652508D01*
X800000Y-1300000D02*
G75*
G03*
X770000Y-1270000I-30000J0D01*
G01*
X770000Y-2210000D02*
G75*
G03*
X800000Y-2180000I0J30000D01*
G01*
X-80000Y-2210000D02*
X-77500Y-8432500D01*
X770000Y-2210000D02*
X-80000Y-2210000D01*
X800000Y-1300000D02*
X800000Y-2180000D01*
X-80000Y-1270000D02*
X770000Y-1270000D01*
X-77500Y227500D02*
X-80000Y-1270000D01*
X14773442Y-8736859D02*
G75*
G03*
X14596853Y-8630753I-176590J-93894D01*
G01*
X15803052Y-10673273D02*
X14773442Y-8736859D01*
X15803052Y-10673273D02*
G75*
G03*
X16073536Y-10755968I176590J93894D01*
G01*
X17534814Y-9978993D02*
G75*
G03*
X17602723Y-9684846I-93894J176590D01*
G01*
X17534814Y-9978993D02*
X16073536Y-10755968D01*
X17638089Y-9266877D02*
G75*
G03*
X17510507Y-9540477I55128J-192252D01*
G01*
X17638089Y-9266877D02*
X17638089Y-9266877D01*
X19228330Y-8811548D02*
X18916567Y-8900279D01*
X17638089Y-9266877D02*
X18916567Y-8900279D01*
X19228330Y-8811548D02*
X20722112Y-8628134D01*
X12953147Y-8630753D02*
G75*
G03*
X12776558Y-8736859I0J-200000D01*
G01*
X11746948Y-10673273D02*
X12776558Y-8736859D01*
X11476464Y-10755968D02*
G75*
G03*
X11746948Y-10673273I93894J176590D01*
G01*
X9932491Y-9708509D02*
G75*
G03*
X10015186Y-9978993I176590J-93894D01*
G01*
X10015186Y-9978993D02*
X11476464Y-10755968D01*
X9994245Y-9595604D02*
G75*
G03*
X9866664Y-9322004I-182709J81347D01*
G01*
X8359285Y-8889771D02*
X9866664Y-9322004D01*
X8359285Y-8889771D02*
X7846670Y-8811548D01*
X6551397Y-8652508D02*
X7846670Y-8811548D01*
X28727500Y-8627500D02*
X21107500Y-8627500D01*
X28727500Y-8627500D02*
G75*
G03*
X29527500Y-7827500I0J800000D01*
G01*
X29527500Y827500D02*
X29527500Y-7827500D01*
X122500Y-8632500D02*
X5837500Y-8632500D01*
X-77500Y-8432500D02*
G75*
G03*
X122500Y-8632500I200000J0D01*
G01*
X29527500Y827500D02*
G75*
G03*
X29327500Y1027500I-200000J0D01*
G01*
X722500Y1027500D02*
G75*
G03*
X-77500Y227500I0J-800000D01*
G01*
X722500Y1027500D02*
X29327500Y1027500D01*
D11*
X172619Y-11094855D02*
X172619Y-10894855D01*
X220238Y-10894855D01*
X248809Y-10904379D01*
X267857Y-10923426D01*
X277381Y-10942474D01*
X286905Y-10980569D01*
X286905Y-11009141D01*
X277381Y-11047236D01*
X267857Y-11066283D01*
X248809Y-11085331D01*
X220238Y-11094855D01*
X172619Y-11094855D01*
X372619Y-11094855D02*
X372619Y-10961522D01*
X372619Y-10999617D02*
X382143Y-10980569D01*
X391667Y-10971045D01*
X410714Y-10961522D01*
X429762Y-10961522D01*
X496428Y-11094855D02*
X496428Y-10961522D01*
X496428Y-10894855D02*
X486905Y-10904379D01*
X496428Y-10913903D01*
X505952Y-10904379D01*
X496428Y-10894855D01*
X496428Y-10913903D01*
X620238Y-11094855D02*
X601190Y-11085331D01*
X591667Y-11066283D01*
X591667Y-10894855D01*
X725000Y-11094855D02*
X705952Y-11085331D01*
X696429Y-11066283D01*
X696429Y-10894855D01*
X953571Y-11094855D02*
X953571Y-10894855D01*
X1020238Y-11037712D01*
X1086905Y-10894855D01*
X1086905Y-11094855D01*
X1267857Y-11094855D02*
X1267857Y-10990093D01*
X1258333Y-10971045D01*
X1239286Y-10961522D01*
X1201190Y-10961522D01*
X1182143Y-10971045D01*
X1267857Y-11085331D02*
X1248810Y-11094855D01*
X1201190Y-11094855D01*
X1182143Y-11085331D01*
X1172619Y-11066283D01*
X1172619Y-11047236D01*
X1182143Y-11028188D01*
X1201190Y-11018664D01*
X1248810Y-11018664D01*
X1267857Y-11009141D01*
X1363095Y-10961522D02*
X1363095Y-11161522D01*
X1363095Y-10971045D02*
X1382143Y-10961522D01*
X1420238Y-10961522D01*
X1439286Y-10971045D01*
X1448809Y-10980569D01*
X1458333Y-10999617D01*
X1458333Y-11056760D01*
X1448809Y-11075807D01*
X1439286Y-11085331D01*
X1420238Y-11094855D01*
X1382143Y-11094855D01*
X1363095Y-11085331D01*
X1544048Y-11075807D02*
X1553571Y-11085331D01*
X1544048Y-11094855D01*
X1534524Y-11085331D01*
X1544048Y-11075807D01*
X1544048Y-11094855D01*
X1544048Y-10971045D02*
X1553571Y-10980569D01*
X1544048Y-10990093D01*
X1534524Y-10980569D01*
X1544048Y-10971045D01*
X1544048Y-10990093D01*
M02*
