M48
; DRILL file {KiCad (6.0.7-1)-1} date Tuesday, December 06, 2022 at 10:28:15 AM
; FORMAT={-:-/ absolute / metric / decimal}
; #@! TF.CreationDate,2022-12-06T10:28:15+01:00
; #@! TF.GenerationSoftware,Kicad,Pcbnew,(6.0.7-1)-1
; #@! TF.FileFunction,Plated,1,2,PTH
FMAT,2
METRIC
; #@! TA.AperFunction,Plated,PTH,ViaDrill
T1C0.350
; #@! TA.AperFunction,Plated,PTH,ComponentDrill
T2C0.350
; #@! TA.AperFunction,Plated,PTH,ViaDrill
T3C0.400
; #@! TA.AperFunction,Plated,PTH,ComponentDrill
T4C0.600
; #@! TA.AperFunction,Plated,PTH,ComponentDrill
T5C1.000
; #@! TA.AperFunction,Plated,PTH,ComponentDrill
T6C2.500
; #@! TA.AperFunction,Plated,PTH,ComponentDrill
T7C3.730
%
G90
G05
T1
X17.5Y-84.8
X17.7Y-20.3
X21.4Y-14.4
X27.6Y3.3
X31.176Y-85.099
X37.0Y-71.1
X39.5Y-18.8
X40.5Y-87.2
X44.4Y-15.7
X44.4Y-33.2
X48.7Y-34.7
X51.562Y-85.501
X56.2Y-86.0
X58.5Y-18.9
X64.9Y-53.7
X65.5Y-34.7
X77.5Y-19.0
X84.474Y-74.026
X85.1Y-75.5
X95.4Y-75.9
X96.491Y-83.999
X96.5Y-18.7
X98.9Y-82.2
X99.0Y-76.8
X100.0Y-88.2
X100.102Y-90.674
X101.3Y-81.2
X106.1Y-85.5
X106.3Y-61.65
X107.635Y-84.078
X107.726Y-83.274
X107.884Y-84.844
X108.375Y-26.875
X108.534Y-50.335
X108.7Y-83.4
X108.872Y-49.611
X109.7Y-64.9
X109.95Y-49.0
X110.45Y-64.55
X110.486Y-96.649
X110.7Y-48.5
X110.8Y-89.75
X111.072Y-63.975
X111.55Y-63.25
X111.6Y-47.75
X112.7Y-82.2
X114.8Y-85.2
X115.5Y-18.6
X115.526Y-84.6
X115.699Y-87.803
X115.7Y-93.55
X117.0Y-65.1
X117.2Y-96.55
X117.579Y-82.992
X117.95Y-83.7
X121.1Y-81.05
X121.701Y-79.75
X121.88Y-78.856
X122.301Y-82.15
X123.709Y-69.196
X124.593Y-80.444
X124.9Y-69.701
X131.0Y-82.002
X131.2Y-76.7
X131.949Y-80.417
X132.399Y-79.731
X133.6Y-50.55
X133.799Y-72.099
X134.5Y-18.8
X139.4Y-13.25
X140.247Y-72.575
X140.754Y-57.994
X141.7Y-27.3
X144.62Y-81.003
X145.063Y-78.955
X146.888Y-65.499
X147.05Y-10.2
X147.9Y-34.8
X148.059Y-62.399
X148.6Y-23.9
X148.65Y-76.6
X149.35Y-65.85
X149.4Y-15.7
X150.304Y-26.7
X150.45Y-72.8
X151.5Y-53.7
X152.2Y-53.0
X152.7Y-28.9
X152.819Y-82.201
X153.2Y-73.2
X153.4Y-88.4
X153.5Y-18.8
X153.919Y-91.567
X154.299Y-92.419
X155.0Y-74.1
X155.01Y-88.156
X155.243Y-30.823
X155.3Y3.4
X155.575Y-86.325
X155.706Y-87.628
X156.625Y-75.507
X158.3Y-74.489
X159.3Y-74.089
X159.825Y-94.925
X160.478Y-71.618
X160.674Y-83.001
X161.1Y-71.115
X161.7Y-76.6
X170.2Y-33.6
X170.32Y-30.658
X170.628Y-32.325
X171.1Y-31.5
X171.498Y-50.587
X171.898Y-66.383
X171.898Y-74.102
X171.967Y-32.894
X172.65Y-72.35
X172.655Y-47.2
X172.698Y-75.567
X173.3Y-74.1
X173.65Y-76.4
X173.688Y-19.624
X175.1Y-76.7
X175.3Y-89.35
X177.7Y-71.523
X178.2Y-14.3
X178.8Y-53.7
X180.95Y-31.85
X184.25Y-85.2
X184.4Y3.3
X184.9Y-87.5
X185.7Y-1.3
X191.075Y-71.608
X193.6Y-74.1
X193.9Y-20.3
X194.7Y-10.8
X195.6Y-83.5
X195.7Y-15.7
X198.2Y-8.4
X199.325Y-34.994
X200.0Y-31.8
X200.4Y-44.7
X202.4Y-75.2
X204.7Y-1.3
X208.55Y-79.25
X209.2Y-75.2
X210.075Y-52.473
X214.2Y-20.3
X215.2Y-26.0
X218.3Y-45.9
X218.95Y-31.965
X223.7Y-1.3
X224.5Y-52.2
X227.0Y-34.7
X228.8Y-63.5
X229.518Y-28.224
X236.7Y-72.7
X237.95Y-32.2
X242.7Y-1.4
X246.0Y-53.7
X252.2Y-27.6
X255.2Y-49.95
X261.7Y-1.3
X275.8Y-27.0
X277.6Y-33.2
X278.325Y-32.125
X278.4Y4.3
X288.5Y-66.3
X288.9Y-52.2
T2
X116.575Y-72.125
X116.575Y-73.4
X116.575Y-74.675
X117.85Y-72.125
X117.85Y-73.4
X117.85Y-74.675
X119.125Y-72.125
X119.125Y-73.4
X119.125Y-74.675
T3
X6.288Y-58.812
X7.724Y-44.2
X7.724Y-61.8
X8.4Y-86.8
X8.575Y-39.95
X8.575Y-77.95
X8.7Y-17.1
X8.7Y-18.5
X8.7Y-21.7
X12.8Y-18.9
X13.375Y-52.2
X14.7Y-4.75
X15.7Y-1.95
X15.75Y-33.2
X15.75Y-71.2
X19.45Y-23.75
X20.45Y-20.95
X22.875Y4.8
X27.625Y-14.2
X28.95Y-42.75
X28.95Y-80.75
X29.95Y-39.95
X29.95Y-77.95
X31.325Y-61.75
X32.325Y-58.95
X33.7Y-4.75
X34.7Y-1.95
X39.5Y-52.2
X41.875Y4.8
X43.2Y-23.75
X43.7Y-20.503
X47.95Y-42.75
X47.95Y-80.75
X48.95Y-39.95
X48.95Y-77.95
X51.375Y-14.2
X52.7Y-4.75
X53.7Y-1.95
X56.125Y-71.2
X57.45Y-61.75
X58.45Y-58.95
X60.875Y4.8
X61.75Y-79.25
X61.9Y-81.1
X62.2Y-23.75
X63.2Y-20.95
X64.125Y-33.2
X65.35Y-81.9
X65.625Y-52.2
X66.95Y-42.75
X67.95Y-39.95
X68.005Y-74.0
X68.737Y-78.533
X70.375Y-14.2
X71.7Y-4.75
X72.7Y-1.95
X75.1Y-82.15
X76.45Y-61.75
X77.45Y-58.95
X78.75Y-82.25
X79.875Y4.8
X81.2Y-23.75
X81.8Y-78.4
X82.2Y-20.95
X83.125Y-33.2
X84.625Y-52.2
X85.95Y-42.75
X86.95Y-39.95
X88.888Y-84.298
X89.375Y-14.2
X89.863Y-82.617
X90.7Y-4.75
X91.7Y-1.95
X95.45Y-61.75
X96.45Y-58.95
X98.5Y-85.9
X98.875Y4.8
X100.2Y-23.75
X101.2Y-20.95
X102.125Y-33.2
X103.625Y-52.2
X104.95Y-42.75
X105.8Y-65.0
X105.95Y-39.95
X106.662Y-79.6
X106.85Y-74.55
X108.0Y-68.5
X108.375Y-14.2
X109.35Y-77.25
X109.7Y-4.75
X110.5Y-68.55
X110.7Y-1.95
X111.2Y-80.6
X111.8Y-67.6
X112.95Y-66.25
X113.599Y-81.41
X113.942Y-96.749
X114.0Y-79.188
X114.25Y-66.15
X115.45Y-58.95
X116.4Y-86.5
X117.875Y4.8
X119.188Y-85.701
X119.2Y-23.75
X119.45Y-80.438
X119.943Y-81.535
X120.2Y-20.95
X121.125Y-33.2
X122.09Y-66.71
X122.625Y-52.2
X122.881Y-72.069
X123.55Y-65.35
X123.95Y-42.75
X124.037Y-73.2
X124.938Y-71.75
X127.375Y-14.2
X128.05Y-68.2
X128.644Y-77.069
X128.7Y-4.75
X129.7Y-1.95
X130.512Y-77.787
X132.828Y-61.652
X134.45Y-58.95
X134.45Y-77.95
X135.4Y-73.2
X136.875Y4.8
X138.2Y-23.75
X138.701Y-20.303
X139.68Y-71.124
X141.826Y-31.295
X142.053Y-52.157
X142.95Y-42.75
X146.35Y-14.2
X147.7Y-4.75
X148.7Y-1.95
X153.45Y-58.95
X154.944Y-23.769
X155.875Y4.8
X155.927Y-89.073
X156.046Y-83.4
X157.25Y-66.25
X157.25Y-69.0
X157.25Y-78.45
X157.4Y-80.7
X158.5Y-94.1
X158.892Y-96.584
X158.899Y-19.948
X160.549Y-31.829
X161.748Y-51.152
X162.148Y-42.688
X163.8Y-74.0
X164.094Y-100.928
X164.381Y-74.569
X165.375Y-14.2
X165.6Y-67.45
X166.021Y-84.894
X166.7Y-4.75
X167.538Y-84.894
X167.7Y-1.95
X168.4Y-61.9
X170.1Y-81.75
X172.45Y-58.95
X172.582Y-82.811
X172.8Y-69.6
X173.726Y-84.894
X174.875Y4.8
X175.7Y-42.0
X176.232Y-23.652
X176.537Y-84.124
X177.2Y-20.95
X178.125Y-33.2
X179.625Y-52.2
X180.4Y-4.2
X180.95Y-42.75
X181.502Y-75.518
X181.95Y-39.95
X184.375Y-14.2
X185.2Y-61.0
X185.7Y-4.75
X186.7Y-1.95
X189.8Y-23.3
X190.45Y-61.75
X191.45Y-58.95
X193.875Y4.8
X194.062Y-82.987
X194.4Y-23.7
X194.9Y-42.1
X195.462Y-79.338
X196.399Y-20.92
X197.125Y-33.2
X198.625Y-52.2
X199.6Y-4.4
X199.95Y-42.75
X200.95Y-39.95
X201.71Y-71.9
X203.375Y-14.2
X204.7Y-4.75
X205.7Y-1.95
X209.45Y-61.75
X210.45Y-58.95
X212.0Y-21.3
X212.875Y4.8
X214.2Y-23.75
X215.2Y-20.95
X216.125Y-33.2
X218.95Y-42.75
X218.95Y-80.75
X219.95Y-39.95
X219.95Y-77.95
X220.0Y-4.9
X222.375Y-14.2
X223.7Y-4.75
X224.7Y-1.95
X227.125Y-71.2
X228.45Y-61.75
X231.875Y4.8
X232.6Y-80.0
X233.2Y-23.75
X234.2Y-20.95
X235.125Y-33.2
X236.625Y-52.2
X237.95Y-42.75
X237.95Y-80.75
X238.95Y-39.95
X238.95Y-77.95
X240.9Y-23.6
X240.95Y-5.65
X241.649Y-14.031
X242.7Y-4.75
X243.7Y-1.95
X248.756Y-71.181
X250.875Y4.8
X252.2Y-23.75
X253.2Y-20.95
X254.125Y-33.2
X254.575Y-61.75
X255.575Y-58.95
X256.95Y-42.75
X256.95Y-80.75
X257.95Y-39.95
X257.95Y-77.95
X260.375Y-14.2
X261.7Y-4.75
X262.7Y-1.95
X262.75Y-52.2
X264.4Y-63.1
X264.4Y-79.9
X265.149Y-71.217
X274.5Y-86.5
X275.95Y-23.75
X275.95Y-80.75
X276.7Y-85.2
X276.95Y-20.95
X276.95Y-77.95
X278.325Y-42.75
X279.325Y-39.95
X280.7Y-4.75
X281.7Y-1.95
X282.399Y-58.95
X284.125Y-14.2
X284.125Y-71.2
X285.6Y-26.0
X285.9Y-42.2
X286.524Y-33.2
X288.1Y-61.3
X288.875Y4.8
T5
X44.975Y8.4
X47.515Y8.4
X50.055Y8.4
X158.975Y8.3
X161.515Y8.3
X164.055Y8.3
X253.92Y8.3
X256.46Y8.3
X259.0Y8.3
T6
X2.34Y-83.1
X28.5Y7.1
X35.625Y-27.9
X47.5Y-48.1
X81.938Y-85.0
X95.0Y-27.9
X104.5Y7.1
X137.75Y-46.9
X171.0Y-27.9
X185.25Y-67.1
X199.5Y7.1
X210.9Y-83.1
X232.75Y-46.9
X268.375Y-27.9
X275.5Y7.1
X291.75Y-47.5
X291.8Y-80.1
T7
X-7.75Y-120.025
X-7.75Y-172.025
X67.25Y-120.025
X67.25Y-172.025
X208.25Y-120.025
X208.25Y-172.025
X283.25Y-120.025
X283.25Y-172.025
T4
X2.925Y-13.08G85X2.325Y-13.08
G05
X2.925Y-21.72G85X2.325Y-21.72
G05
X7.355Y-13.08G85X6.255Y-13.08
G05
X7.355Y-21.72G85X6.255Y-21.72
G05
T0
M30
