G04 #@! TF.GenerationSoftware,KiCad,Pcbnew,(6.0.7-1)-1*
G04 #@! TF.CreationDate,2022-12-06T10:28:10+01:00*
G04 #@! TF.ProjectId,pcb,7063622e-6b69-4636-9164-5f7063625858,rev?*
G04 #@! TF.SameCoordinates,Original*
G04 #@! TF.FileFunction,Legend,Bot*
G04 #@! TF.FilePolarity,Positive*
%FSLAX46Y46*%
G04 Gerber Fmt 4.6, Leading zero omitted, Abs format (unit mm)*
G04 Created by KiCad (PCBNEW (6.0.7-1)-1) date 2022-12-06 10:28:10*
%MOMM*%
%LPD*%
G01*
G04 APERTURE LIST*
G04 Aperture macros list*
%AMHorizOval*
0 Thick line with rounded ends*
0 $1 width*
0 $2 $3 position (X,Y) of the first rounded end (center of the circle)*
0 $4 $5 position (X,Y) of the second rounded end (center of the circle)*
0 Add line between two ends*
20,1,$1,$2,$3,$4,$5,0*
0 Add two circle primitives to create the rounded ends*
1,1,$1,$2,$3*
1,1,$1,$4,$5*%
G04 Aperture macros list end*
%ADD10O,5.500000X1.400000*%
%ADD11C,3.400000*%
%ADD12HorizOval,1.400000X2.034720X0.249832X-2.034720X-0.249832X0*%
%ADD13HorizOval,1.400000X2.034720X-0.249832X-2.034720X0.249832X0*%
%ADD14HorizOval,1.400000X0.962417X1.810043X-0.962417X-1.810043X0*%
%ADD15HorizOval,1.400000X0.962417X-1.810043X-0.962417X1.810043X0*%
%ADD16HorizOval,1.400000X1.970586X0.565057X-1.970586X-0.565057X0*%
%ADD17HorizOval,1.400000X1.970586X-0.565057X-1.970586X0.565057X0*%
%ADD18C,6.200000*%
%ADD19C,4.200000*%
%ADD20C,0.650000*%
%ADD21O,1.600000X1.000000*%
%ADD22O,2.100000X1.000000*%
%ADD23C,1.700000*%
%ADD24O,1.700000X1.700000*%
G04 APERTURE END LIST*
%LPC*%
D10*
X11875000Y-44800000D03*
D11*
X11875000Y-38000000D03*
D10*
X11875000Y-31200000D03*
X247000000Y-6800000D03*
D11*
X247000000Y0D03*
D10*
X247000000Y6800000D03*
X199500000Y-25800000D03*
D11*
X199500000Y-19000000D03*
D10*
X199500000Y-12200000D03*
X232750000Y-63800000D03*
D11*
X232750000Y-57000000D03*
D10*
X232750000Y-50200000D03*
X128250000Y-44800000D03*
D11*
X128250000Y-38000000D03*
D10*
X128250000Y-31200000D03*
X61750000Y-63800000D03*
D11*
X61750000Y-57000000D03*
D10*
X61750000Y-50200000D03*
X194750000Y-63800000D03*
D11*
X194750000Y-57000000D03*
D10*
X194750000Y-50200000D03*
X228000000Y-6800000D03*
D11*
X228000000Y0D03*
D10*
X228000000Y6800000D03*
X213750000Y-63800000D03*
D11*
X213750000Y-57000000D03*
D10*
X213750000Y-50200000D03*
X85500000Y-25800000D03*
D11*
X85500000Y-19000000D03*
D10*
X85500000Y-12200000D03*
X285000000Y-6800000D03*
D11*
X285000000Y0D03*
D10*
X285000000Y6800000D03*
D12*
X199328712Y-83749314D03*
D11*
X198500000Y-77000000D03*
D12*
X197671288Y-70250686D03*
D13*
X71421288Y-83749314D03*
D11*
X72250000Y-77000000D03*
D13*
X73078712Y-70250686D03*
D10*
X171000000Y-6800000D03*
D11*
X171000000Y0D03*
D10*
X171000000Y6800000D03*
X218500000Y-25800000D03*
D11*
X218500000Y-19000000D03*
D10*
X218500000Y-12200000D03*
X118750000Y-63800000D03*
D11*
X118750000Y-57000000D03*
D10*
X118750000Y-50200000D03*
X261250000Y-44800000D03*
D11*
X261250000Y-38000000D03*
D10*
X261250000Y-31200000D03*
X261250000Y-82800000D03*
D11*
X261250000Y-76000000D03*
D10*
X261250000Y-69200000D03*
X190000000Y-6800000D03*
D11*
X190000000Y0D03*
D10*
X190000000Y6800000D03*
X109250000Y-44800000D03*
D11*
X109250000Y-38000000D03*
D10*
X109250000Y-31200000D03*
X237500000Y-25800000D03*
D11*
X237500000Y-19000000D03*
D10*
X237500000Y-12200000D03*
X280250000Y-82800000D03*
D11*
X280250000Y-76000000D03*
D10*
X280250000Y-69200000D03*
D14*
X119404044Y-95692407D03*
D11*
X113400000Y-92500000D03*
D14*
X107395956Y-89307593D03*
D10*
X80750000Y-63800000D03*
D11*
X80750000Y-57000000D03*
D10*
X80750000Y-50200000D03*
X285000000Y-63800000D03*
D11*
X285000000Y-57000000D03*
D10*
X285000000Y-50200000D03*
X180500000Y-25800000D03*
D11*
X180500000Y-19000000D03*
D10*
X180500000Y-12200000D03*
X99750000Y-63800000D03*
D11*
X99750000Y-57000000D03*
D10*
X99750000Y-50200000D03*
X242250000Y-44800000D03*
D11*
X242250000Y-38000000D03*
D10*
X242250000Y-31200000D03*
X137750000Y-82800000D03*
D11*
X137750000Y-76000000D03*
D10*
X137750000Y-69200000D03*
X161500000Y-25800000D03*
D11*
X161500000Y-19000000D03*
D10*
X161500000Y-12200000D03*
X204250000Y-44800000D03*
D11*
X204250000Y-38000000D03*
D10*
X204250000Y-31200000D03*
X33250000Y-44800000D03*
D11*
X33250000Y-38000000D03*
D10*
X33250000Y-31200000D03*
X9500000Y-63800000D03*
D11*
X9500000Y-57000000D03*
D10*
X9500000Y-50200000D03*
X142500000Y-25800000D03*
D11*
X142500000Y-19000000D03*
D10*
X142500000Y-12200000D03*
X66500000Y-25800000D03*
D11*
X66500000Y-19000000D03*
D10*
X66500000Y-12200000D03*
X133000000Y-6800000D03*
D11*
X133000000Y0D03*
D10*
X133000000Y6800000D03*
D15*
X156095956Y-95692407D03*
D11*
X162100000Y-92500000D03*
D15*
X168104044Y-89307593D03*
D10*
X76000000Y-6800000D03*
D11*
X76000000Y0D03*
D10*
X76000000Y6800000D03*
X114000000Y-6800000D03*
D11*
X114000000Y0D03*
D10*
X114000000Y6800000D03*
X104500000Y-25800000D03*
D11*
X104500000Y-19000000D03*
D10*
X104500000Y-12200000D03*
X35625000Y-63800000D03*
D11*
X35625000Y-57000000D03*
D10*
X35625000Y-50200000D03*
D16*
X180974334Y-87736580D03*
D11*
X179100000Y-81200000D03*
D16*
X177225666Y-74663420D03*
D10*
X52250000Y-82800000D03*
D11*
X52250000Y-76000000D03*
D10*
X52250000Y-69200000D03*
X209000000Y-6800000D03*
D11*
X209000000Y0D03*
D10*
X209000000Y6800000D03*
X23750000Y-25800000D03*
D11*
X23750000Y-19000000D03*
D10*
X23750000Y-12200000D03*
X19000000Y-6800000D03*
D11*
X19000000Y0D03*
D10*
X19000000Y6800000D03*
X33250000Y-82800000D03*
D11*
X33250000Y-76000000D03*
D10*
X33250000Y-69200000D03*
X223250000Y-44800000D03*
D11*
X223250000Y-38000000D03*
D10*
X223250000Y-31200000D03*
X258875000Y-63800000D03*
D11*
X258875000Y-57000000D03*
D10*
X258875000Y-50200000D03*
X137750000Y-63800000D03*
D11*
X137750000Y-57000000D03*
D10*
X137750000Y-50200000D03*
X71250000Y-44800000D03*
D11*
X71250000Y-38000000D03*
D10*
X71250000Y-31200000D03*
X38000000Y-6800000D03*
D11*
X38000000Y0D03*
D10*
X38000000Y6800000D03*
X11875000Y-82800000D03*
D11*
X11875000Y-76000000D03*
D10*
X11875000Y-69200000D03*
X256500000Y-25800000D03*
D11*
X256500000Y-19000000D03*
D10*
X256500000Y-12200000D03*
X266000000Y-6800000D03*
D11*
X266000000Y0D03*
D10*
X266000000Y6800000D03*
X123500000Y-25800000D03*
D11*
X123500000Y-19000000D03*
D10*
X123500000Y-12200000D03*
X223250000Y-82800000D03*
D11*
X223250000Y-76000000D03*
D10*
X223250000Y-69200000D03*
D17*
X92150666Y-87736580D03*
D11*
X94025000Y-81200000D03*
D17*
X95899334Y-74663420D03*
D10*
X147250000Y-44800000D03*
D11*
X147250000Y-38000000D03*
D10*
X147250000Y-31200000D03*
X175750000Y-63800000D03*
D11*
X175750000Y-57000000D03*
D10*
X175750000Y-50200000D03*
X95000000Y-6800000D03*
D11*
X95000000Y0D03*
D10*
X95000000Y6800000D03*
X57000000Y-6800000D03*
D11*
X57000000Y0D03*
D10*
X57000000Y6800000D03*
X152000000Y-6800000D03*
D11*
X152000000Y0D03*
D10*
X152000000Y6800000D03*
X156750000Y-63800000D03*
D11*
X156750000Y-57000000D03*
D10*
X156750000Y-50200000D03*
X242250000Y-82800000D03*
D11*
X242250000Y-76000000D03*
D10*
X242250000Y-69200000D03*
X166250000Y-44800000D03*
D11*
X166250000Y-38000000D03*
D10*
X166250000Y-31200000D03*
X90250000Y-44800000D03*
D11*
X90250000Y-38000000D03*
D10*
X90250000Y-31200000D03*
X280250000Y-25800000D03*
D11*
X280250000Y-19000000D03*
D10*
X280250000Y-12200000D03*
X52250000Y-44800000D03*
D11*
X52250000Y-38000000D03*
D10*
X52250000Y-31200000D03*
X282625000Y-44800000D03*
D11*
X282625000Y-38000000D03*
D10*
X282625000Y-31200000D03*
X47500000Y-25800000D03*
D11*
X47500000Y-19000000D03*
D10*
X47500000Y-12200000D03*
X185250000Y-44800000D03*
D11*
X185250000Y-38000000D03*
D10*
X185250000Y-31200000D03*
D18*
X67250000Y-120025000D03*
X208250000Y-120025000D03*
D19*
X199500000Y7100000D03*
X2340000Y-83100000D03*
X171000000Y-27900000D03*
D18*
X208250000Y-172025000D03*
D19*
X35625000Y-27900000D03*
X291800000Y-80100000D03*
X95000000Y-27900000D03*
D18*
X283250000Y-172025000D03*
D19*
X81937500Y-85000000D03*
X137750000Y-46900000D03*
X232750000Y-46900000D03*
D20*
X6305000Y-20290000D03*
X6305000Y-14510000D03*
D21*
X2625000Y-21720000D03*
D22*
X6805000Y-13080000D03*
D21*
X2625000Y-13080000D03*
D22*
X6805000Y-21720000D03*
D23*
X44974999Y8400000D03*
D24*
X47514999Y8400000D03*
X50054999Y8400000D03*
D18*
X-7750000Y-172025000D03*
D23*
X259000000Y8300000D03*
D24*
X256460000Y8300000D03*
X253920000Y8300000D03*
D18*
X283250000Y-120025000D03*
X-7750000Y-120025000D03*
D19*
X268375000Y-27900000D03*
X275500000Y7100000D03*
X104500000Y7100000D03*
X291750000Y-47500000D03*
X210900000Y-83100000D03*
X28500000Y7100000D03*
X47500000Y-48100000D03*
X185250000Y-67099999D03*
D23*
X158974999Y8300000D03*
D24*
X161514999Y8300000D03*
X164054999Y8300000D03*
D18*
X67250000Y-172025000D03*
M02*
