G04 #@! TF.GenerationSoftware,KiCad,Pcbnew,(6.0.7-1)-1*
G04 #@! TF.CreationDate,2022-10-27T21:15:07+02:00*
G04 #@! TF.ProjectId,pcb,7063622e-6b69-4636-9164-5f7063625858,rev?*
G04 #@! TF.SameCoordinates,Original*
G04 #@! TF.FileFunction,Legend,Bot*
G04 #@! TF.FilePolarity,Positive*
%FSLAX46Y46*%
G04 Gerber Fmt 4.6, Leading zero omitted, Abs format (unit mm)*
G04 Created by KiCad (PCBNEW (6.0.7-1)-1) date 2022-10-27 21:15:07*
%MOMM*%
%LPD*%
G01*
G04 APERTURE LIST*
G04 Aperture macros list*
%AMHorizOval*
0 Thick line with rounded ends*
0 $1 width*
0 $2 $3 position (X,Y) of the first rounded end (center of the circle)*
0 $4 $5 position (X,Y) of the second rounded end (center of the circle)*
0 Add line between two ends*
20,1,$1,$2,$3,$4,$5,0*
0 Add two circle primitives to create the rounded ends*
1,1,$1,$2,$3*
1,1,$1,$4,$5*%
G04 Aperture macros list end*
%ADD10C,4.200000*%
%ADD11O,5.500000X1.400000*%
%ADD12C,3.300000*%
%ADD13C,6.200000*%
%ADD14HorizOval,1.400000X0.962417X1.810043X-0.962417X-1.810043X0*%
%ADD15HorizOval,1.400000X1.970586X-0.565057X-1.970586X0.565057X0*%
%ADD16O,1.350000X2.000000*%
%ADD17O,2.000000X1.350000*%
%ADD18HorizOval,1.400000X-0.962417X1.810043X0.962417X-1.810043X0*%
%ADD19R,1.000000X1.000000*%
%ADD20O,1.000000X1.000000*%
%ADD21HorizOval,1.400000X1.970586X0.565057X-1.970586X-0.565057X0*%
%ADD22HorizOval,1.400000X2.034720X0.249832X-2.034720X-0.249832X0*%
%ADD23C,1.700000*%
%ADD24O,1.700000X1.700000*%
%ADD25HorizOval,1.400000X2.034720X-0.249832X-2.034720X0.249832X0*%
G04 APERTURE END LIST*
%LPC*%
D10*
X1800000Y-83100000D03*
D11*
X95000000Y6800000D03*
X95000000Y-6800000D03*
D12*
X95000000Y0D03*
X47500000Y-19000000D03*
D11*
X47500000Y-25800000D03*
X47500000Y-12200000D03*
D12*
X190000000Y0D03*
D11*
X190000000Y-6800000D03*
X190000000Y6800000D03*
X261250000Y-31200000D03*
D12*
X261250000Y-38000000D03*
D11*
X261250000Y-44800000D03*
X66500000Y-12200000D03*
X66500000Y-25800000D03*
D12*
X66500000Y-19000000D03*
D11*
X80750000Y-50200000D03*
D12*
X80750000Y-57000000D03*
D11*
X80750000Y-63800000D03*
D13*
X67250000Y-120025000D03*
D12*
X199500000Y-19000000D03*
D11*
X199500000Y-12200000D03*
X199500000Y-25800000D03*
X147250000Y-31200000D03*
D12*
X147250000Y-38000000D03*
D11*
X147250000Y-44800000D03*
X99750000Y-50200000D03*
X99750000Y-63800000D03*
D12*
X99750000Y-57000000D03*
D10*
X47500000Y-48100000D03*
D11*
X280250000Y-12200000D03*
X280250000Y-25800000D03*
D12*
X280250000Y-19000000D03*
D11*
X118750000Y-50200000D03*
X118750000Y-63800000D03*
D12*
X118750000Y-57000000D03*
D11*
X9500000Y-50200000D03*
D12*
X9500000Y-57000000D03*
D11*
X9500000Y-63800000D03*
D10*
X275500000Y7100000D03*
D11*
X204250000Y-31200000D03*
X204250000Y-44800000D03*
D12*
X204250000Y-38000000D03*
D13*
X67250000Y-172025000D03*
D10*
X171000000Y-27900000D03*
D11*
X223250000Y-82800000D03*
D12*
X223250000Y-76000000D03*
D11*
X223250000Y-69200000D03*
D12*
X232750000Y-57000000D03*
D11*
X232750000Y-50200000D03*
X232750000Y-63800000D03*
D10*
X81937500Y-85000000D03*
D11*
X52250000Y-44800000D03*
X52250000Y-31200000D03*
D12*
X52250000Y-38000000D03*
D11*
X152000000Y6800000D03*
X152000000Y-6800000D03*
D12*
X152000000Y0D03*
D11*
X123500000Y-25800000D03*
D12*
X123500000Y-19000000D03*
D11*
X123500000Y-12200000D03*
D10*
X199500000Y7100000D03*
D14*
X119404044Y-95692407D03*
X107395956Y-89307593D03*
D12*
X113400000Y-92500000D03*
X94025000Y-81200000D03*
D15*
X95899334Y-74663420D03*
X92150666Y-87736580D03*
D11*
X109250000Y-31200000D03*
D12*
X109250000Y-38000000D03*
D11*
X109250000Y-44800000D03*
D10*
X35625000Y-27900000D03*
D16*
X8500000Y-28792893D03*
D17*
X10000000Y-26750000D03*
X10000000Y-24750000D03*
X10000000Y-22750000D03*
X10000000Y-20750000D03*
X10000000Y-18750000D03*
X10000000Y-16750000D03*
X10000000Y-14750000D03*
X10000000Y-12750000D03*
X10000000Y-10750000D03*
X10000000Y-8750000D03*
X10000000Y-6750000D03*
X10000000Y-4750000D03*
X10000000Y-2750000D03*
X10000000Y-750000D03*
X10000000Y1250000D03*
X10000000Y3250000D03*
D16*
X8500000Y5250000D03*
X6500000Y5250000D03*
X4500000Y5250000D03*
X2500000Y5250000D03*
X500000Y5250000D03*
X-1500000Y5250000D03*
X-3500000Y5250000D03*
X-5500000Y5250000D03*
X-5500000Y-28792893D03*
X-3500000Y-28792893D03*
X-1500000Y-28792893D03*
X500000Y-28792893D03*
X2500000Y-28792893D03*
X4500000Y-28792893D03*
X6500000Y-28792893D03*
D11*
X185250000Y-31200000D03*
D12*
X185250000Y-38000000D03*
D11*
X185250000Y-44800000D03*
X180500000Y-25800000D03*
X180500000Y-12200000D03*
D12*
X180500000Y-19000000D03*
X223250000Y-38000000D03*
D11*
X223250000Y-31200000D03*
X223250000Y-44800000D03*
X209000000Y6800000D03*
D12*
X209000000Y0D03*
D11*
X209000000Y-6800000D03*
D18*
X168104044Y-89307593D03*
D12*
X162100000Y-92500000D03*
D18*
X156095956Y-95692407D03*
D19*
X113050000Y-67000000D03*
D20*
X114320000Y-67000000D03*
X115590000Y-67000000D03*
X116860000Y-67000000D03*
X118130000Y-67000000D03*
X119400000Y-67000000D03*
X120670000Y-67000000D03*
X121940000Y-67000000D03*
X123210000Y-67000000D03*
X125750000Y-82000000D03*
X124480000Y-82000000D03*
X123210000Y-82000000D03*
X121940000Y-82000000D03*
X120670000Y-82000000D03*
X119400000Y-82000000D03*
X118130000Y-82000000D03*
X116860000Y-82000000D03*
X115590000Y-82000000D03*
X114320000Y-82000000D03*
X113050000Y-82000000D03*
X124480000Y-67000000D03*
X125750000Y-67000000D03*
X107440000Y-82000000D03*
X108710000Y-82000000D03*
X109980000Y-82000000D03*
X111250000Y-82000000D03*
X107440000Y-67000000D03*
X108710000Y-67000000D03*
X109980000Y-67000000D03*
X111250000Y-67000000D03*
X106000000Y-72920000D03*
X106000000Y-71650000D03*
X106000000Y-70380000D03*
X106000000Y-69110000D03*
X106000000Y-74190000D03*
X106000000Y-75460000D03*
X106000000Y-76730000D03*
X106000000Y-78000000D03*
X106000000Y-79250000D03*
D11*
X175750000Y-50200000D03*
D12*
X175750000Y-57000000D03*
D11*
X175750000Y-63800000D03*
D12*
X237500000Y-19000000D03*
D11*
X237500000Y-12200000D03*
X237500000Y-25800000D03*
X128250000Y-31200000D03*
D12*
X128250000Y-38000000D03*
D11*
X128250000Y-44800000D03*
D12*
X35625000Y-57000000D03*
D11*
X35625000Y-50200000D03*
X35625000Y-63800000D03*
X11875000Y-82800000D03*
D12*
X11875000Y-76000000D03*
D11*
X11875000Y-69200000D03*
X242250000Y-44800000D03*
D12*
X242250000Y-38000000D03*
D11*
X242250000Y-31200000D03*
X33250000Y-69200000D03*
X33250000Y-82800000D03*
D12*
X33250000Y-76000000D03*
D11*
X57000000Y-6800000D03*
X57000000Y6800000D03*
D12*
X57000000Y0D03*
X23750000Y-19000000D03*
D11*
X23750000Y-25800000D03*
X23750000Y-12200000D03*
X166250000Y-31200000D03*
D12*
X166250000Y-38000000D03*
D11*
X166250000Y-44800000D03*
X76000000Y6800000D03*
X76000000Y-6800000D03*
D12*
X76000000Y0D03*
D11*
X114000000Y-6800000D03*
X114000000Y6800000D03*
D12*
X114000000Y0D03*
D13*
X208250000Y-120025000D03*
D12*
X258875000Y-57000000D03*
D11*
X258875000Y-63800000D03*
X258875000Y-50200000D03*
D10*
X291750000Y-47500000D03*
D11*
X228000000Y6800000D03*
X228000000Y-6800000D03*
D12*
X228000000Y0D03*
D13*
X208250000Y-172025000D03*
D12*
X266000000Y0D03*
D11*
X266000000Y-6800000D03*
X266000000Y6800000D03*
X19000000Y-6800000D03*
D12*
X19000000Y0D03*
D11*
X19000000Y6800000D03*
X285000000Y-50200000D03*
X285000000Y-63800000D03*
D12*
X285000000Y-57000000D03*
X280250000Y-76000000D03*
D11*
X280250000Y-69200000D03*
X280250000Y-82800000D03*
X71250000Y-44800000D03*
D12*
X71250000Y-38000000D03*
D11*
X71250000Y-31200000D03*
X247000000Y-6800000D03*
D12*
X247000000Y0D03*
D11*
X247000000Y6800000D03*
X142500000Y-12200000D03*
D12*
X142500000Y-19000000D03*
D11*
X142500000Y-25800000D03*
D13*
X283250000Y-120025000D03*
D10*
X149150000Y-83700000D03*
X28500000Y7100000D03*
D11*
X137750000Y-69200000D03*
D12*
X137750000Y-76000000D03*
D11*
X137750000Y-82800000D03*
X133000000Y-6800000D03*
X133000000Y6800000D03*
D12*
X133000000Y0D03*
X194750000Y-57000000D03*
D11*
X194750000Y-50200000D03*
X194750000Y-63800000D03*
D21*
X180974334Y-87736580D03*
D12*
X179100000Y-81200000D03*
D21*
X177225666Y-74663420D03*
D12*
X256500000Y-19000000D03*
D11*
X256500000Y-12200000D03*
X256500000Y-25800000D03*
D10*
X210900000Y-83100000D03*
X268375000Y-27900000D03*
D22*
X199328712Y-83749314D03*
D12*
X198500000Y-77000000D03*
D22*
X197671288Y-70250686D03*
D11*
X218500000Y-12200000D03*
X218500000Y-25800000D03*
D12*
X218500000Y-19000000D03*
X282625000Y-38000000D03*
D11*
X282625000Y-44800000D03*
X282625000Y-31200000D03*
D10*
X95000000Y-27900000D03*
X232750000Y-46900000D03*
D13*
X-7750000Y-120025000D03*
D11*
X213750000Y-50200000D03*
D12*
X213750000Y-57000000D03*
D11*
X213750000Y-63800000D03*
X33250000Y-44800000D03*
X33250000Y-31200000D03*
D12*
X33250000Y-38000000D03*
D13*
X-7750000Y-172025000D03*
D11*
X52250000Y-69200000D03*
D12*
X52250000Y-76000000D03*
D11*
X52250000Y-82800000D03*
D23*
X139960000Y8350000D03*
D24*
X142500000Y8350000D03*
X145040000Y8350000D03*
D11*
X161500000Y-12200000D03*
D12*
X161500000Y-19000000D03*
D11*
X161500000Y-25800000D03*
D10*
X291800000Y-80100000D03*
D13*
X283250000Y-172025000D03*
D23*
X44960000Y8350000D03*
D24*
X47500000Y8350000D03*
X50040000Y8350000D03*
D12*
X242250000Y-76000000D03*
D11*
X242250000Y-69200000D03*
X242250000Y-82800000D03*
X137750000Y-63800000D03*
D12*
X137750000Y-57000000D03*
D11*
X137750000Y-50200000D03*
D12*
X285000000Y0D03*
D11*
X285000000Y6800000D03*
X285000000Y-6800000D03*
X171000000Y-6800000D03*
D12*
X171000000Y0D03*
D11*
X171000000Y6800000D03*
D12*
X72250000Y-77000000D03*
D25*
X71421288Y-83749314D03*
X73078712Y-70250686D03*
D11*
X261250000Y-69200000D03*
X261250000Y-82800000D03*
D12*
X261250000Y-76000000D03*
D11*
X38000000Y-6800000D03*
D12*
X38000000Y0D03*
D11*
X38000000Y6800000D03*
D10*
X104500000Y7100000D03*
D11*
X90250000Y-44800000D03*
D12*
X90250000Y-38000000D03*
D11*
X90250000Y-31200000D03*
X156750000Y-50200000D03*
D12*
X156750000Y-57000000D03*
D11*
X156750000Y-63800000D03*
D12*
X11875000Y-38000000D03*
D11*
X11875000Y-31200000D03*
X11875000Y-44800000D03*
D10*
X137750000Y-46900000D03*
D11*
X104500000Y-25800000D03*
D12*
X104500000Y-19000000D03*
D11*
X104500000Y-12200000D03*
D10*
X185250000Y-67099999D03*
D12*
X61750000Y-57000000D03*
D11*
X61750000Y-63800000D03*
X61750000Y-50200000D03*
X85500000Y-25800000D03*
D12*
X85500000Y-19000000D03*
D11*
X85500000Y-12200000D03*
D23*
X253960000Y8350000D03*
D24*
X256500000Y8350000D03*
X259040000Y8350000D03*
M02*
