%TF.GenerationSoftware,KiCad,Pcbnew,(6.0.7-1)-1*%
%TF.CreationDate,2022-10-27T21:15:12+02:00*%
%TF.ProjectId,pcb,7063622e-6b69-4636-9164-5f7063625858,rev?*%
%TF.SameCoordinates,Original*%
%TF.FileFunction,Drillmap*%
%TF.FilePolarity,Positive*%
%FSLAX45Y45*%
G04 Gerber Fmt 4.5, Leading zero omitted, Abs format (unit mm)*
G04 Created by KiCad (PCBNEW (6.0.7-1)-1) date 2022-10-27 21:15:12*
%MOMM*%
%LPD*%
G01*
G04 APERTURE LIST*
%ADD10C,0.100000*%
%ADD11C,0.200000*%
%ADD12C,0.140000*%
%ADD13C,0.330000*%
G04 APERTURE END LIST*
D10*
X27875000Y-13252500D02*
G75*
G03*
X27075000Y-12452500I-800000J0D01*
G01*
X475000Y-12452500D02*
G75*
G03*
X-325000Y-13252500I0J-800000D01*
G01*
X27075000Y-16752500D02*
G75*
G03*
X27875000Y-15952500I0J800000D01*
G01*
X21175000Y-8627500D02*
X21132000Y-8628000D01*
X-1425000Y-12152500D02*
X-1426000Y-17036000D01*
X3875000Y-9952500D02*
G75*
G03*
X3875000Y-9952500I-900000J0D01*
G01*
X-625000Y-11352500D02*
X-425000Y-11352500D01*
X27075000Y-12452500D02*
X22075000Y-12452500D01*
X8359285Y-8889771D02*
X7846670Y-8811548D01*
X7375000Y-12152500D02*
X7375000Y-17052500D01*
X6551397Y-8652508D02*
X7846670Y-8811548D01*
X6275000Y-13252500D02*
X6275000Y-15952500D01*
X6575000Y-17852500D02*
G75*
G03*
X7375000Y-17052500I0J800000D01*
G01*
X17534814Y-9978993D02*
X16073536Y-10755968D01*
X25475000Y-9952500D02*
G75*
G03*
X25475000Y-9952500I-900000J0D01*
G01*
X21975000Y-10552500D02*
X21975000Y-9427500D01*
X6575000Y-11352500D02*
X6375000Y-11352500D01*
X9932487Y-9708507D02*
G75*
G03*
X10015186Y-9978993I176593J-93893D01*
G01*
X21275000Y-15952500D02*
G75*
G03*
X22075000Y-16752500I800000J0D01*
G01*
X6275000Y-13252500D02*
G75*
G03*
X5475000Y-12452500I-800000J0D01*
G01*
X27875000Y-13252500D02*
X27875000Y-15952500D01*
X-1425000Y-17052500D02*
G75*
G03*
X-625000Y-17852500I800000J0D01*
G01*
X22075000Y-12452500D02*
G75*
G03*
X21275000Y-13252500I0J-800000D01*
G01*
X9994245Y-9595604D02*
X9932491Y-9708509D01*
X-1425000Y-17052500D02*
X-1426000Y-17036000D01*
X29527500Y827500D02*
X29527500Y-7827500D01*
X72500Y1027570D02*
X29300000Y1028000D01*
X28975000Y-12152500D02*
G75*
G03*
X28175000Y-11352500I-800000J0D01*
G01*
X27975000Y-8627500D02*
G75*
G03*
X27175000Y-9427500I0J-800000D01*
G01*
X27175000Y-10552500D02*
G75*
G03*
X27975000Y-11352500I800000J0D01*
G01*
X28975000Y-12152500D02*
X28975000Y-17052500D01*
X72500Y1027570D02*
G75*
G03*
X-671000Y523000I0J-800070D01*
G01*
X5475000Y-12452500D02*
X475000Y-12452500D01*
X9994252Y-9595607D02*
G75*
G03*
X9866664Y-9322004I-182712J81347D01*
G01*
X375000Y-9427500D02*
G75*
G03*
X-25000Y-8734680I-800000J0D01*
G01*
X-325000Y-15952500D02*
X-325000Y-13252500D01*
X5575000Y-10552500D02*
G75*
G03*
X6375000Y-11352500I800000J0D01*
G01*
X-600000Y-2879289D02*
X-728000Y-2879000D01*
X29327500Y1027500D02*
X29300000Y1028000D01*
X17638089Y-9266877D02*
X17638089Y-9266877D01*
X21975000Y-9427500D02*
G75*
G03*
X21175000Y-8627500I-800000J0D01*
G01*
X28175000Y-17852500D02*
G75*
G03*
X28975000Y-17052500I0J800000D01*
G01*
X-625000Y-11352500D02*
G75*
G03*
X-1425000Y-12152500I0J-800000D01*
G01*
X19228330Y-8811548D02*
X18916567Y-8900279D01*
X12700000Y-6750000D02*
X12700000Y-8150000D01*
X6575000Y-17852500D02*
X-625000Y-17852500D01*
X-728000Y-2879000D02*
X-727500Y-7832500D01*
X17510507Y-9540477D02*
X17602723Y-9684846D01*
X-425000Y-11352500D02*
G75*
G03*
X375000Y-10552500I0J800000D01*
G01*
X20722112Y-8628134D02*
X21132000Y-8628000D01*
X11746948Y-10673273D02*
X12776558Y-8736859D01*
X15803051Y-10673274D02*
G75*
G03*
X16073536Y-10755968I176589J93894D01*
G01*
X17534812Y-9978988D02*
G75*
G03*
X17602723Y-9684846I-93892J176588D01*
G01*
X5475000Y-16752500D02*
X475000Y-16752500D01*
X8359285Y-8889771D02*
X9866664Y-9322004D01*
X15803052Y-10673273D02*
X14773442Y-8736859D01*
X20975000Y-11352500D02*
G75*
G03*
X20175000Y-12152500I0J-800000D01*
G01*
X17638089Y-9266877D02*
X18916567Y-8900279D01*
X21275000Y-15952500D02*
X21275000Y-13252500D01*
X14773439Y-8736860D02*
G75*
G03*
X14596853Y-8630753I-176589J-93890D01*
G01*
X6375000Y-8627500D02*
G75*
G03*
X5575000Y-9427500I0J-800000D01*
G01*
X27975000Y-8627500D02*
X28727500Y-8627500D01*
X7375000Y-12152500D02*
G75*
G03*
X6575000Y-11352500I-800000J0D01*
G01*
X29527500Y827500D02*
G75*
G03*
X29327500Y1027500I-200000J0D01*
G01*
X27175000Y-10552500D02*
X27175000Y-9427500D01*
X375000Y-10552500D02*
X375000Y-9427500D01*
X12953147Y-8630749D02*
G75*
G03*
X12776558Y-8736859I3J-200001D01*
G01*
X-727500Y-7832500D02*
G75*
G03*
X-493185Y-8398185I800000J0D01*
G01*
X-600000Y525000D02*
X-671000Y523000D01*
X20175000Y-17052500D02*
G75*
G03*
X20975000Y-17852500I800000J0D01*
G01*
X5575000Y-10552500D02*
X5575000Y-9427500D01*
X5475000Y-16752500D02*
G75*
G03*
X6275000Y-15952500I0J800000D01*
G01*
X20975000Y-11352500D02*
X21175000Y-11352500D01*
X-25000Y-8734680D02*
X-493185Y-8398185D01*
X19228330Y-8811548D02*
X20722112Y-8628134D01*
X27075000Y-16752500D02*
X22075000Y-16752500D01*
X21175000Y-11352500D02*
G75*
G03*
X21975000Y-10552500I0J800000D01*
G01*
X20175000Y-17052500D02*
X20175000Y-12152500D01*
X28727500Y-8627500D02*
G75*
G03*
X29527500Y-7827500I0J800000D01*
G01*
X17638088Y-9266876D02*
G75*
G03*
X17510507Y-9540477I55132J-192255D01*
G01*
X12953147Y-8630753D02*
X14596853Y-8630753D01*
X6375000Y-8627500D02*
X6551397Y-8652508D01*
X28175000Y-17852500D02*
X20975000Y-17852500D01*
X-325000Y-15952500D02*
G75*
G03*
X475000Y-16752500I800000J0D01*
G01*
X28175000Y-11352500D02*
X27975000Y-11352500D01*
X11476465Y-10755967D02*
G75*
G03*
X11746948Y-10673273I93895J176587D01*
G01*
X10015186Y-9978993D02*
X11476464Y-10755968D01*
D11*
D12*
X880000Y-4950000D02*
X1020000Y-5090000D01*
X1020000Y-4950000D02*
X880000Y-5090000D01*
D11*
X745000Y-5090000D02*
X1155000Y-5090000D01*
X745000Y-4950000D02*
X1155000Y-4950000D01*
X1155000Y-5090000D02*
G75*
G03*
X1155000Y-4950000I0J70000D01*
G01*
X745000Y-4950000D02*
G75*
G03*
X745000Y-5090000I0J-70000D01*
G01*
D12*
X880000Y-6310000D02*
X1020000Y-6450000D01*
X1020000Y-6310000D02*
X880000Y-6450000D01*
D11*
X745000Y-6450000D02*
X1155000Y-6450000D01*
X745000Y-6310000D02*
X1155000Y-6310000D01*
X1155000Y-6450000D02*
G75*
G03*
X1155000Y-6310000I0J70000D01*
G01*
X745000Y-6310000D02*
G75*
G03*
X745000Y-6450000I0J-70000D01*
G01*
D12*
X1117500Y-3050000D02*
X1257500Y-3190000D01*
X1257500Y-3050000D02*
X1117500Y-3190000D01*
D11*
X982500Y-3190000D02*
X1392500Y-3190000D01*
X982500Y-3050000D02*
X1392500Y-3050000D01*
X1392500Y-3190000D02*
G75*
G03*
X1392500Y-3050000I0J70000D01*
G01*
X982500Y-3050000D02*
G75*
G03*
X982500Y-3190000I0J-70000D01*
G01*
D12*
X1117500Y-4410000D02*
X1257500Y-4550000D01*
X1257500Y-4410000D02*
X1117500Y-4550000D01*
D11*
X982500Y-4550000D02*
X1392500Y-4550000D01*
X982500Y-4410000D02*
X1392500Y-4410000D01*
X1392500Y-4550000D02*
G75*
G03*
X1392500Y-4410000I0J70000D01*
G01*
X982500Y-4410000D02*
G75*
G03*
X982500Y-4550000I0J-70000D01*
G01*
D12*
X1117500Y-6850000D02*
X1257500Y-6990000D01*
X1257500Y-6850000D02*
X1117500Y-6990000D01*
D11*
X982500Y-6990000D02*
X1392500Y-6990000D01*
X982500Y-6850000D02*
X1392500Y-6850000D01*
X1392500Y-6990000D02*
G75*
G03*
X1392500Y-6850000I0J70000D01*
G01*
X982500Y-6850000D02*
G75*
G03*
X982500Y-6990000I0J-70000D01*
G01*
D12*
X1117500Y-8210000D02*
X1257500Y-8350000D01*
X1257500Y-8210000D02*
X1117500Y-8350000D01*
D11*
X982500Y-8350000D02*
X1392500Y-8350000D01*
X982500Y-8210000D02*
X1392500Y-8210000D01*
X1392500Y-8350000D02*
G75*
G03*
X1392500Y-8210000I0J70000D01*
G01*
X982500Y-8210000D02*
G75*
G03*
X982500Y-8350000I0J-70000D01*
G01*
D12*
X1830000Y750000D02*
X1970000Y610000D01*
X1970000Y750000D02*
X1830000Y610000D01*
D11*
X1695000Y610000D02*
X2105000Y610000D01*
X1695000Y750000D02*
X2105000Y750000D01*
X2105000Y610000D02*
G75*
G03*
X2105000Y750000I0J70000D01*
G01*
X1695000Y750000D02*
G75*
G03*
X1695000Y610000I0J-70000D01*
G01*
D12*
X1830000Y-610000D02*
X1970000Y-750000D01*
X1970000Y-610000D02*
X1830000Y-750000D01*
D11*
X1695000Y-750000D02*
X2105000Y-750000D01*
X1695000Y-610000D02*
X2105000Y-610000D01*
X2105000Y-750000D02*
G75*
G03*
X2105000Y-610000I0J70000D01*
G01*
X1695000Y-610000D02*
G75*
G03*
X1695000Y-750000I0J-70000D01*
G01*
D12*
X2305000Y-1150000D02*
X2445000Y-1290000D01*
X2445000Y-1150000D02*
X2305000Y-1290000D01*
D11*
X2170000Y-1290000D02*
X2580000Y-1290000D01*
X2170000Y-1150000D02*
X2580000Y-1150000D01*
X2580000Y-1290000D02*
G75*
G03*
X2580000Y-1150000I0J70000D01*
G01*
X2170000Y-1150000D02*
G75*
G03*
X2170000Y-1290000I0J-70000D01*
G01*
D12*
X2305000Y-2510000D02*
X2445000Y-2650000D01*
X2445000Y-2510000D02*
X2305000Y-2650000D01*
D11*
X2170000Y-2650000D02*
X2580000Y-2650000D01*
X2170000Y-2510000D02*
X2580000Y-2510000D01*
X2580000Y-2650000D02*
G75*
G03*
X2580000Y-2510000I0J70000D01*
G01*
X2170000Y-2510000D02*
G75*
G03*
X2170000Y-2650000I0J-70000D01*
G01*
D12*
X3255000Y-3050000D02*
X3395000Y-3190000D01*
X3395000Y-3050000D02*
X3255000Y-3190000D01*
D11*
X3120000Y-3190000D02*
X3530000Y-3190000D01*
X3120000Y-3050000D02*
X3530000Y-3050000D01*
X3530000Y-3190000D02*
G75*
G03*
X3530000Y-3050000I0J70000D01*
G01*
X3120000Y-3050000D02*
G75*
G03*
X3120000Y-3190000I0J-70000D01*
G01*
D12*
X3255000Y-4410000D02*
X3395000Y-4550000D01*
X3395000Y-4410000D02*
X3255000Y-4550000D01*
D11*
X3120000Y-4550000D02*
X3530000Y-4550000D01*
X3120000Y-4410000D02*
X3530000Y-4410000D01*
X3530000Y-4550000D02*
G75*
G03*
X3530000Y-4410000I0J70000D01*
G01*
X3120000Y-4410000D02*
G75*
G03*
X3120000Y-4550000I0J-70000D01*
G01*
D12*
X3255000Y-6850000D02*
X3395000Y-6990000D01*
X3395000Y-6850000D02*
X3255000Y-6990000D01*
D11*
X3120000Y-6990000D02*
X3530000Y-6990000D01*
X3120000Y-6850000D02*
X3530000Y-6850000D01*
X3530000Y-6990000D02*
G75*
G03*
X3530000Y-6850000I0J70000D01*
G01*
X3120000Y-6850000D02*
G75*
G03*
X3120000Y-6990000I0J-70000D01*
G01*
D12*
X3255000Y-8210000D02*
X3395000Y-8350000D01*
X3395000Y-8210000D02*
X3255000Y-8350000D01*
D11*
X3120000Y-8350000D02*
X3530000Y-8350000D01*
X3120000Y-8210000D02*
X3530000Y-8210000D01*
X3530000Y-8350000D02*
G75*
G03*
X3530000Y-8210000I0J70000D01*
G01*
X3120000Y-8210000D02*
G75*
G03*
X3120000Y-8350000I0J-70000D01*
G01*
D12*
X3492500Y-4950000D02*
X3632500Y-5090000D01*
X3632500Y-4950000D02*
X3492500Y-5090000D01*
D11*
X3357500Y-5090000D02*
X3767500Y-5090000D01*
X3357500Y-4950000D02*
X3767500Y-4950000D01*
X3767500Y-5090000D02*
G75*
G03*
X3767500Y-4950000I0J70000D01*
G01*
X3357500Y-4950000D02*
G75*
G03*
X3357500Y-5090000I0J-70000D01*
G01*
D12*
X3492500Y-6310000D02*
X3632500Y-6450000D01*
X3632500Y-6310000D02*
X3492500Y-6450000D01*
D11*
X3357500Y-6450000D02*
X3767500Y-6450000D01*
X3357500Y-6310000D02*
X3767500Y-6310000D01*
X3767500Y-6450000D02*
G75*
G03*
X3767500Y-6310000I0J70000D01*
G01*
X3357500Y-6310000D02*
G75*
G03*
X3357500Y-6450000I0J-70000D01*
G01*
D12*
X3730000Y750000D02*
X3870000Y610000D01*
X3870000Y750000D02*
X3730000Y610000D01*
D11*
X3595000Y610000D02*
X4005000Y610000D01*
X3595000Y750000D02*
X4005000Y750000D01*
X4005000Y610000D02*
G75*
G03*
X4005000Y750000I0J70000D01*
G01*
X3595000Y750000D02*
G75*
G03*
X3595000Y610000I0J-70000D01*
G01*
D12*
X3730000Y-610000D02*
X3870000Y-750000D01*
X3870000Y-610000D02*
X3730000Y-750000D01*
D11*
X3595000Y-750000D02*
X4005000Y-750000D01*
X3595000Y-610000D02*
X4005000Y-610000D01*
X4005000Y-750000D02*
G75*
G03*
X4005000Y-610000I0J70000D01*
G01*
X3595000Y-610000D02*
G75*
G03*
X3595000Y-750000I0J-70000D01*
G01*
D12*
X4680000Y-1150000D02*
X4820000Y-1290000D01*
X4820000Y-1150000D02*
X4680000Y-1290000D01*
D11*
X4545000Y-1290000D02*
X4955000Y-1290000D01*
X4545000Y-1150000D02*
X4955000Y-1150000D01*
X4955000Y-1290000D02*
G75*
G03*
X4955000Y-1150000I0J70000D01*
G01*
X4545000Y-1150000D02*
G75*
G03*
X4545000Y-1290000I0J-70000D01*
G01*
D12*
X4680000Y-2510000D02*
X4820000Y-2650000D01*
X4820000Y-2510000D02*
X4680000Y-2650000D01*
D11*
X4545000Y-2650000D02*
X4955000Y-2650000D01*
X4545000Y-2510000D02*
X4955000Y-2510000D01*
X4955000Y-2650000D02*
G75*
G03*
X4955000Y-2510000I0J70000D01*
G01*
X4545000Y-2510000D02*
G75*
G03*
X4545000Y-2650000I0J-70000D01*
G01*
D12*
X5155000Y-3050000D02*
X5295000Y-3190000D01*
X5295000Y-3050000D02*
X5155000Y-3190000D01*
D11*
X5020000Y-3190000D02*
X5430000Y-3190000D01*
X5020000Y-3050000D02*
X5430000Y-3050000D01*
X5430000Y-3190000D02*
G75*
G03*
X5430000Y-3050000I0J70000D01*
G01*
X5020000Y-3050000D02*
G75*
G03*
X5020000Y-3190000I0J-70000D01*
G01*
D12*
X5155000Y-4410000D02*
X5295000Y-4550000D01*
X5295000Y-4410000D02*
X5155000Y-4550000D01*
D11*
X5020000Y-4550000D02*
X5430000Y-4550000D01*
X5020000Y-4410000D02*
X5430000Y-4410000D01*
X5430000Y-4550000D02*
G75*
G03*
X5430000Y-4410000I0J70000D01*
G01*
X5020000Y-4410000D02*
G75*
G03*
X5020000Y-4550000I0J-70000D01*
G01*
D12*
X5155000Y-6850000D02*
X5295000Y-6990000D01*
X5295000Y-6850000D02*
X5155000Y-6990000D01*
D11*
X5020000Y-6990000D02*
X5430000Y-6990000D01*
X5020000Y-6850000D02*
X5430000Y-6850000D01*
X5430000Y-6990000D02*
G75*
G03*
X5430000Y-6850000I0J70000D01*
G01*
X5020000Y-6850000D02*
G75*
G03*
X5020000Y-6990000I0J-70000D01*
G01*
D12*
X5155000Y-8210000D02*
X5295000Y-8350000D01*
X5295000Y-8210000D02*
X5155000Y-8350000D01*
D11*
X5020000Y-8350000D02*
X5430000Y-8350000D01*
X5020000Y-8210000D02*
X5430000Y-8210000D01*
X5430000Y-8350000D02*
G75*
G03*
X5430000Y-8210000I0J70000D01*
G01*
X5020000Y-8210000D02*
G75*
G03*
X5020000Y-8350000I0J-70000D01*
G01*
D12*
X5630000Y750000D02*
X5770000Y610000D01*
X5770000Y750000D02*
X5630000Y610000D01*
D11*
X5495000Y610000D02*
X5905000Y610000D01*
X5495000Y750000D02*
X5905000Y750000D01*
X5905000Y610000D02*
G75*
G03*
X5905000Y750000I0J70000D01*
G01*
X5495000Y750000D02*
G75*
G03*
X5495000Y610000I0J-70000D01*
G01*
D12*
X5630000Y-610000D02*
X5770000Y-750000D01*
X5770000Y-610000D02*
X5630000Y-750000D01*
D11*
X5495000Y-750000D02*
X5905000Y-750000D01*
X5495000Y-610000D02*
X5905000Y-610000D01*
X5905000Y-750000D02*
G75*
G03*
X5905000Y-610000I0J70000D01*
G01*
X5495000Y-610000D02*
G75*
G03*
X5495000Y-750000I0J-70000D01*
G01*
D12*
X6105000Y-4950000D02*
X6245000Y-5090000D01*
X6245000Y-4950000D02*
X6105000Y-5090000D01*
D11*
X5970000Y-5090000D02*
X6380000Y-5090000D01*
X5970000Y-4950000D02*
X6380000Y-4950000D01*
X6380000Y-5090000D02*
G75*
G03*
X6380000Y-4950000I0J70000D01*
G01*
X5970000Y-4950000D02*
G75*
G03*
X5970000Y-5090000I0J-70000D01*
G01*
D12*
X6105000Y-6310000D02*
X6245000Y-6450000D01*
X6245000Y-6310000D02*
X6105000Y-6450000D01*
D11*
X5970000Y-6450000D02*
X6380000Y-6450000D01*
X5970000Y-6310000D02*
X6380000Y-6310000D01*
X6380000Y-6450000D02*
G75*
G03*
X6380000Y-6310000I0J70000D01*
G01*
X5970000Y-6310000D02*
G75*
G03*
X5970000Y-6450000I0J-70000D01*
G01*
D12*
X6580000Y-1150000D02*
X6720000Y-1290000D01*
X6720000Y-1150000D02*
X6580000Y-1290000D01*
D11*
X6445000Y-1290000D02*
X6855000Y-1290000D01*
X6445000Y-1150000D02*
X6855000Y-1150000D01*
X6855000Y-1290000D02*
G75*
G03*
X6855000Y-1150000I0J70000D01*
G01*
X6445000Y-1150000D02*
G75*
G03*
X6445000Y-1290000I0J-70000D01*
G01*
D12*
X6580000Y-2510000D02*
X6720000Y-2650000D01*
X6720000Y-2510000D02*
X6580000Y-2650000D01*
D11*
X6445000Y-2650000D02*
X6855000Y-2650000D01*
X6445000Y-2510000D02*
X6855000Y-2510000D01*
X6855000Y-2650000D02*
G75*
G03*
X6855000Y-2510000I0J70000D01*
G01*
X6445000Y-2510000D02*
G75*
G03*
X6445000Y-2650000I0J-70000D01*
G01*
D12*
X7055000Y-3050000D02*
X7195000Y-3190000D01*
X7195000Y-3050000D02*
X7055000Y-3190000D01*
D11*
X6920000Y-3190000D02*
X7330000Y-3190000D01*
X6920000Y-3050000D02*
X7330000Y-3050000D01*
X7330000Y-3190000D02*
G75*
G03*
X7330000Y-3050000I0J70000D01*
G01*
X6920000Y-3050000D02*
G75*
G03*
X6920000Y-3190000I0J-70000D01*
G01*
D12*
X7055000Y-4410000D02*
X7195000Y-4550000D01*
X7195000Y-4410000D02*
X7055000Y-4550000D01*
D11*
X6920000Y-4550000D02*
X7330000Y-4550000D01*
X6920000Y-4410000D02*
X7330000Y-4410000D01*
X7330000Y-4550000D02*
G75*
G03*
X7330000Y-4410000I0J70000D01*
G01*
X6920000Y-4410000D02*
G75*
G03*
X6920000Y-4550000I0J-70000D01*
G01*
D12*
X7072129Y-8304931D02*
X7212129Y-8444931D01*
X7212129Y-8304931D02*
X7072129Y-8444931D01*
D11*
X6930126Y-8419426D02*
X7337070Y-8469393D01*
X6947188Y-8280470D02*
X7354132Y-8330436D01*
X7337070Y-8469393D02*
G75*
G03*
X7354132Y-8330436I8531J69478D01*
G01*
X6947188Y-8280470D02*
G75*
G03*
X6930126Y-8419426I-8531J-69478D01*
G01*
D12*
X7237871Y-6955069D02*
X7377871Y-7095069D01*
X7377871Y-6955069D02*
X7237871Y-7095069D01*
D11*
X7095868Y-7069564D02*
X7502812Y-7119530D01*
X7112930Y-6930607D02*
X7519874Y-6980574D01*
X7502812Y-7119530D02*
G75*
G03*
X7519874Y-6980574I8531J69478D01*
G01*
X7112930Y-6930607D02*
G75*
G03*
X7095868Y-7069564I-8531J-69478D01*
G01*
D12*
X7530000Y750000D02*
X7670000Y610000D01*
X7670000Y750000D02*
X7530000Y610000D01*
D11*
X7395000Y610000D02*
X7805000Y610000D01*
X7395000Y750000D02*
X7805000Y750000D01*
X7805000Y610000D02*
G75*
G03*
X7805000Y750000I0J70000D01*
G01*
X7395000Y750000D02*
G75*
G03*
X7395000Y610000I0J-70000D01*
G01*
D12*
X7530000Y-610000D02*
X7670000Y-750000D01*
X7670000Y-610000D02*
X7530000Y-750000D01*
D11*
X7395000Y-750000D02*
X7805000Y-750000D01*
X7395000Y-610000D02*
X7805000Y-610000D01*
X7805000Y-750000D02*
G75*
G03*
X7805000Y-610000I0J70000D01*
G01*
X7395000Y-610000D02*
G75*
G03*
X7395000Y-750000I0J-70000D01*
G01*
D12*
X8005000Y-4950000D02*
X8145000Y-5090000D01*
X8145000Y-4950000D02*
X8005000Y-5090000D01*
D11*
X7870000Y-5090000D02*
X8280000Y-5090000D01*
X7870000Y-4950000D02*
X8280000Y-4950000D01*
X8280000Y-5090000D02*
G75*
G03*
X8280000Y-4950000I0J70000D01*
G01*
X7870000Y-4950000D02*
G75*
G03*
X7870000Y-5090000I0J-70000D01*
G01*
D12*
X8005000Y-6310000D02*
X8145000Y-6450000D01*
X8145000Y-6310000D02*
X8005000Y-6450000D01*
D11*
X7870000Y-6450000D02*
X8280000Y-6450000D01*
X7870000Y-6310000D02*
X8280000Y-6310000D01*
X8280000Y-6450000D02*
G75*
G03*
X8280000Y-6310000I0J70000D01*
G01*
X7870000Y-6310000D02*
G75*
G03*
X7870000Y-6450000I0J-70000D01*
G01*
D12*
X8480000Y-1150000D02*
X8620000Y-1290000D01*
X8620000Y-1150000D02*
X8480000Y-1290000D01*
D11*
X8345000Y-1290000D02*
X8755000Y-1290000D01*
X8345000Y-1150000D02*
X8755000Y-1150000D01*
X8755000Y-1290000D02*
G75*
G03*
X8755000Y-1150000I0J70000D01*
G01*
X8345000Y-1150000D02*
G75*
G03*
X8345000Y-1290000I0J-70000D01*
G01*
D12*
X8480000Y-2510000D02*
X8620000Y-2650000D01*
X8620000Y-2510000D02*
X8480000Y-2650000D01*
D11*
X8345000Y-2650000D02*
X8755000Y-2650000D01*
X8345000Y-2510000D02*
X8755000Y-2510000D01*
X8755000Y-2650000D02*
G75*
G03*
X8755000Y-2510000I0J70000D01*
G01*
X8345000Y-2510000D02*
G75*
G03*
X8345000Y-2650000I0J-70000D01*
G01*
D12*
X8955000Y-3050000D02*
X9095000Y-3190000D01*
X9095000Y-3050000D02*
X8955000Y-3190000D01*
D11*
X8820000Y-3190000D02*
X9230000Y-3190000D01*
X8820000Y-3050000D02*
X9230000Y-3050000D01*
X9230000Y-3190000D02*
G75*
G03*
X9230000Y-3050000I0J70000D01*
G01*
X8820000Y-3050000D02*
G75*
G03*
X8820000Y-3190000I0J-70000D01*
G01*
D12*
X8955000Y-4410000D02*
X9095000Y-4550000D01*
X9095000Y-4410000D02*
X8955000Y-4550000D01*
D11*
X8820000Y-4550000D02*
X9230000Y-4550000D01*
X8820000Y-4410000D02*
X9230000Y-4410000D01*
X9230000Y-4550000D02*
G75*
G03*
X9230000Y-4410000I0J70000D01*
G01*
X8820000Y-4410000D02*
G75*
G03*
X8820000Y-4550000I0J-70000D01*
G01*
D12*
X9145067Y-8703658D02*
X9285067Y-8843658D01*
X9285067Y-8703658D02*
X9145067Y-8843658D01*
D11*
X8998713Y-8784441D02*
X9392831Y-8897452D01*
X9037303Y-8649864D02*
X9431420Y-8762875D01*
X9392831Y-8897452D02*
G75*
G03*
X9431420Y-8762875I19295J67288D01*
G01*
X9037303Y-8649864D02*
G75*
G03*
X8998713Y-8784441I-19295J-67288D01*
G01*
D12*
X9430000Y750000D02*
X9570000Y610000D01*
X9570000Y750000D02*
X9430000Y610000D01*
D11*
X9295000Y610000D02*
X9705000Y610000D01*
X9295000Y750000D02*
X9705000Y750000D01*
X9705000Y610000D02*
G75*
G03*
X9705000Y750000I0J70000D01*
G01*
X9295000Y750000D02*
G75*
G03*
X9295000Y610000I0J-70000D01*
G01*
D12*
X9430000Y-610000D02*
X9570000Y-750000D01*
X9570000Y-610000D02*
X9430000Y-750000D01*
D11*
X9295000Y-750000D02*
X9705000Y-750000D01*
X9295000Y-610000D02*
X9705000Y-610000D01*
X9705000Y-750000D02*
G75*
G03*
X9705000Y-610000I0J70000D01*
G01*
X9295000Y-610000D02*
G75*
G03*
X9295000Y-750000I0J-70000D01*
G01*
D12*
X9519933Y-7396342D02*
X9659933Y-7536342D01*
X9659933Y-7396342D02*
X9519933Y-7536342D01*
D11*
X9373580Y-7477125D02*
X9767697Y-7590136D01*
X9412169Y-7342548D02*
X9806287Y-7455559D01*
X9767697Y-7590136D02*
G75*
G03*
X9806287Y-7455559I19295J67288D01*
G01*
X9412169Y-7342548D02*
G75*
G03*
X9373580Y-7477125I-19295J-67288D01*
G01*
D12*
X9905000Y-4950000D02*
X10045000Y-5090000D01*
X10045000Y-4950000D02*
X9905000Y-5090000D01*
D11*
X9770000Y-5090000D02*
X10180000Y-5090000D01*
X9770000Y-4950000D02*
X10180000Y-4950000D01*
X10180000Y-5090000D02*
G75*
G03*
X10180000Y-4950000I0J70000D01*
G01*
X9770000Y-4950000D02*
G75*
G03*
X9770000Y-5090000I0J-70000D01*
G01*
D12*
X9905000Y-6310000D02*
X10045000Y-6450000D01*
X10045000Y-6310000D02*
X9905000Y-6450000D01*
D11*
X9770000Y-6450000D02*
X10180000Y-6450000D01*
X9770000Y-6310000D02*
X10180000Y-6310000D01*
X10180000Y-6450000D02*
G75*
G03*
X10180000Y-6310000I0J70000D01*
G01*
X9770000Y-6310000D02*
G75*
G03*
X9770000Y-6450000I0J-70000D01*
G01*
D12*
X10380000Y-1150000D02*
X10520000Y-1290000D01*
X10520000Y-1150000D02*
X10380000Y-1290000D01*
D11*
X10245000Y-1290000D02*
X10655000Y-1290000D01*
X10245000Y-1150000D02*
X10655000Y-1150000D01*
X10655000Y-1290000D02*
G75*
G03*
X10655000Y-1150000I0J70000D01*
G01*
X10245000Y-1150000D02*
G75*
G03*
X10245000Y-1290000I0J-70000D01*
G01*
D12*
X10380000Y-2510000D02*
X10520000Y-2650000D01*
X10520000Y-2510000D02*
X10380000Y-2650000D01*
D11*
X10245000Y-2650000D02*
X10655000Y-2650000D01*
X10245000Y-2510000D02*
X10655000Y-2510000D01*
X10655000Y-2650000D02*
G75*
G03*
X10655000Y-2510000I0J70000D01*
G01*
X10245000Y-2510000D02*
G75*
G03*
X10245000Y-2650000I0J-70000D01*
G01*
D12*
X10669596Y-8860759D02*
X10809596Y-9000759D01*
X10809596Y-8860759D02*
X10669596Y-9000759D01*
D11*
X10705160Y-9144627D02*
X10897644Y-8782618D01*
X10581548Y-9078901D02*
X10774031Y-8716892D01*
X10897644Y-8782618D02*
G75*
G03*
X10774031Y-8716892I-61806J32863D01*
G01*
X10581548Y-9078901D02*
G75*
G03*
X10705160Y-9144627I61806J-32863D01*
G01*
D12*
X10855000Y-3050000D02*
X10995000Y-3190000D01*
X10995000Y-3050000D02*
X10855000Y-3190000D01*
D11*
X10720000Y-3190000D02*
X11130000Y-3190000D01*
X10720000Y-3050000D02*
X11130000Y-3050000D01*
X11130000Y-3190000D02*
G75*
G03*
X11130000Y-3050000I0J70000D01*
G01*
X10720000Y-3050000D02*
G75*
G03*
X10720000Y-3190000I0J-70000D01*
G01*
D12*
X10855000Y-4410000D02*
X10995000Y-4550000D01*
X10995000Y-4410000D02*
X10855000Y-4550000D01*
D11*
X10720000Y-4550000D02*
X11130000Y-4550000D01*
X10720000Y-4410000D02*
X11130000Y-4410000D01*
X11130000Y-4550000D02*
G75*
G03*
X11130000Y-4410000I0J70000D01*
G01*
X10720000Y-4410000D02*
G75*
G03*
X10720000Y-4550000I0J-70000D01*
G01*
D12*
X11330000Y750000D02*
X11470000Y610000D01*
X11470000Y750000D02*
X11330000Y610000D01*
D11*
X11195000Y610000D02*
X11605000Y610000D01*
X11195000Y750000D02*
X11605000Y750000D01*
X11605000Y610000D02*
G75*
G03*
X11605000Y750000I0J70000D01*
G01*
X11195000Y750000D02*
G75*
G03*
X11195000Y610000I0J-70000D01*
G01*
D12*
X11330000Y-610000D02*
X11470000Y-750000D01*
X11470000Y-610000D02*
X11330000Y-750000D01*
D11*
X11195000Y-750000D02*
X11605000Y-750000D01*
X11195000Y-610000D02*
X11605000Y-610000D01*
X11605000Y-750000D02*
G75*
G03*
X11605000Y-610000I0J70000D01*
G01*
X11195000Y-610000D02*
G75*
G03*
X11195000Y-750000I0J-70000D01*
G01*
D12*
X11805000Y-4950000D02*
X11945000Y-5090000D01*
X11945000Y-4950000D02*
X11805000Y-5090000D01*
D11*
X11670000Y-5090000D02*
X12080000Y-5090000D01*
X11670000Y-4950000D02*
X12080000Y-4950000D01*
X12080000Y-5090000D02*
G75*
G03*
X12080000Y-4950000I0J70000D01*
G01*
X11670000Y-4950000D02*
G75*
G03*
X11670000Y-5090000I0J-70000D01*
G01*
D12*
X11805000Y-6310000D02*
X11945000Y-6450000D01*
X11945000Y-6310000D02*
X11805000Y-6450000D01*
D11*
X11670000Y-6450000D02*
X12080000Y-6450000D01*
X11670000Y-6310000D02*
X12080000Y-6310000D01*
X12080000Y-6450000D02*
G75*
G03*
X12080000Y-6310000I0J70000D01*
G01*
X11670000Y-6310000D02*
G75*
G03*
X11670000Y-6450000I0J-70000D01*
G01*
D12*
X11870404Y-9499241D02*
X12010404Y-9639241D01*
X12010404Y-9499241D02*
X11870404Y-9639241D01*
D11*
X11905969Y-9783108D02*
X12098452Y-9421100D01*
X11782356Y-9717382D02*
X11974840Y-9355373D01*
X12098452Y-9421099D02*
G75*
G03*
X11974840Y-9355373I-61806J32863D01*
G01*
X11782356Y-9717382D02*
G75*
G03*
X11905969Y-9783108I61806J-32863D01*
G01*
D12*
X12280000Y-1150000D02*
X12420000Y-1290000D01*
X12420000Y-1150000D02*
X12280000Y-1290000D01*
D11*
X12145000Y-1290000D02*
X12555000Y-1290000D01*
X12145000Y-1150000D02*
X12555000Y-1150000D01*
X12555000Y-1290000D02*
G75*
G03*
X12555000Y-1150000I0J70000D01*
G01*
X12145000Y-1150000D02*
G75*
G03*
X12145000Y-1290000I0J-70000D01*
G01*
D12*
X12280000Y-2510000D02*
X12420000Y-2650000D01*
X12420000Y-2510000D02*
X12280000Y-2650000D01*
D11*
X12145000Y-2650000D02*
X12555000Y-2650000D01*
X12145000Y-2510000D02*
X12555000Y-2510000D01*
X12555000Y-2650000D02*
G75*
G03*
X12555000Y-2510000I0J70000D01*
G01*
X12145000Y-2510000D02*
G75*
G03*
X12145000Y-2650000I0J-70000D01*
G01*
D12*
X12755000Y-3050000D02*
X12895000Y-3190000D01*
X12895000Y-3050000D02*
X12755000Y-3190000D01*
D11*
X12620000Y-3190000D02*
X13030000Y-3190000D01*
X12620000Y-3050000D02*
X13030000Y-3050000D01*
X13030000Y-3190000D02*
G75*
G03*
X13030000Y-3050000I0J70000D01*
G01*
X12620000Y-3050000D02*
G75*
G03*
X12620000Y-3190000I0J-70000D01*
G01*
D12*
X12755000Y-4410000D02*
X12895000Y-4550000D01*
X12895000Y-4410000D02*
X12755000Y-4550000D01*
D11*
X12620000Y-4550000D02*
X13030000Y-4550000D01*
X12620000Y-4410000D02*
X13030000Y-4410000D01*
X13030000Y-4550000D02*
G75*
G03*
X13030000Y-4410000I0J70000D01*
G01*
X12620000Y-4410000D02*
G75*
G03*
X12620000Y-4550000I0J-70000D01*
G01*
D12*
X13230000Y750000D02*
X13370000Y610000D01*
X13370000Y750000D02*
X13230000Y610000D01*
D11*
X13095000Y610000D02*
X13505000Y610000D01*
X13095000Y750000D02*
X13505000Y750000D01*
X13505000Y610000D02*
G75*
G03*
X13505000Y750000I0J70000D01*
G01*
X13095000Y750000D02*
G75*
G03*
X13095000Y610000I0J-70000D01*
G01*
D12*
X13230000Y-610000D02*
X13370000Y-750000D01*
X13370000Y-610000D02*
X13230000Y-750000D01*
D11*
X13095000Y-750000D02*
X13505000Y-750000D01*
X13095000Y-610000D02*
X13505000Y-610000D01*
X13505000Y-750000D02*
G75*
G03*
X13505000Y-610000I0J70000D01*
G01*
X13095000Y-610000D02*
G75*
G03*
X13095000Y-750000I0J-70000D01*
G01*
D12*
X13705000Y-4950000D02*
X13845000Y-5090000D01*
X13845000Y-4950000D02*
X13705000Y-5090000D01*
D11*
X13570000Y-5090000D02*
X13980000Y-5090000D01*
X13570000Y-4950000D02*
X13980000Y-4950000D01*
X13980000Y-5090000D02*
G75*
G03*
X13980000Y-4950000I0J70000D01*
G01*
X13570000Y-4950000D02*
G75*
G03*
X13570000Y-5090000I0J-70000D01*
G01*
D12*
X13705000Y-6310000D02*
X13845000Y-6450000D01*
X13845000Y-6310000D02*
X13705000Y-6450000D01*
D11*
X13570000Y-6450000D02*
X13980000Y-6450000D01*
X13570000Y-6310000D02*
X13980000Y-6310000D01*
X13980000Y-6450000D02*
G75*
G03*
X13980000Y-6310000I0J70000D01*
G01*
X13570000Y-6310000D02*
G75*
G03*
X13570000Y-6450000I0J-70000D01*
G01*
D12*
X13705000Y-6850000D02*
X13845000Y-6990000D01*
X13845000Y-6850000D02*
X13705000Y-6990000D01*
D11*
X13570000Y-6990000D02*
X13980000Y-6990000D01*
X13570000Y-6850000D02*
X13980000Y-6850000D01*
X13980000Y-6990000D02*
G75*
G03*
X13980000Y-6850000I0J70000D01*
G01*
X13570000Y-6850000D02*
G75*
G03*
X13570000Y-6990000I0J-70000D01*
G01*
D12*
X13705000Y-8210000D02*
X13845000Y-8350000D01*
X13845000Y-8210000D02*
X13705000Y-8350000D01*
D11*
X13570000Y-8350000D02*
X13980000Y-8350000D01*
X13570000Y-8210000D02*
X13980000Y-8210000D01*
X13980000Y-8350000D02*
G75*
G03*
X13980000Y-8210000I0J70000D01*
G01*
X13570000Y-8210000D02*
G75*
G03*
X13570000Y-8350000I0J-70000D01*
G01*
D12*
X14180000Y-1150000D02*
X14320000Y-1290000D01*
X14320000Y-1150000D02*
X14180000Y-1290000D01*
D11*
X14045000Y-1290000D02*
X14455000Y-1290000D01*
X14045000Y-1150000D02*
X14455000Y-1150000D01*
X14455000Y-1290000D02*
G75*
G03*
X14455000Y-1150000I0J70000D01*
G01*
X14045000Y-1150000D02*
G75*
G03*
X14045000Y-1290000I0J-70000D01*
G01*
D12*
X14180000Y-2510000D02*
X14320000Y-2650000D01*
X14320000Y-2510000D02*
X14180000Y-2650000D01*
D11*
X14045000Y-2650000D02*
X14455000Y-2650000D01*
X14045000Y-2510000D02*
X14455000Y-2510000D01*
X14455000Y-2650000D02*
G75*
G03*
X14455000Y-2510000I0J70000D01*
G01*
X14045000Y-2510000D02*
G75*
G03*
X14045000Y-2650000I0J-70000D01*
G01*
D12*
X14655000Y-3050000D02*
X14795000Y-3190000D01*
X14795000Y-3050000D02*
X14655000Y-3190000D01*
D11*
X14520000Y-3190000D02*
X14930000Y-3190000D01*
X14520000Y-3050000D02*
X14930000Y-3050000D01*
X14930000Y-3190000D02*
G75*
G03*
X14930000Y-3050000I0J70000D01*
G01*
X14520000Y-3050000D02*
G75*
G03*
X14520000Y-3190000I0J-70000D01*
G01*
D12*
X14655000Y-4410000D02*
X14795000Y-4550000D01*
X14795000Y-4410000D02*
X14655000Y-4550000D01*
D11*
X14520000Y-4550000D02*
X14930000Y-4550000D01*
X14520000Y-4410000D02*
X14930000Y-4410000D01*
X14930000Y-4550000D02*
G75*
G03*
X14930000Y-4410000I0J70000D01*
G01*
X14520000Y-4410000D02*
G75*
G03*
X14520000Y-4550000I0J-70000D01*
G01*
D12*
X15130000Y750000D02*
X15270000Y610000D01*
X15270000Y750000D02*
X15130000Y610000D01*
D11*
X14995000Y610000D02*
X15405000Y610000D01*
X14995000Y750000D02*
X15405000Y750000D01*
X15405000Y610000D02*
G75*
G03*
X15405000Y750000I0J70000D01*
G01*
X14995000Y750000D02*
G75*
G03*
X14995000Y610000I0J-70000D01*
G01*
D12*
X15130000Y-610000D02*
X15270000Y-750000D01*
X15270000Y-610000D02*
X15130000Y-750000D01*
D11*
X14995000Y-750000D02*
X15405000Y-750000D01*
X14995000Y-610000D02*
X15405000Y-610000D01*
X15405000Y-750000D02*
G75*
G03*
X15405000Y-610000I0J70000D01*
G01*
X14995000Y-610000D02*
G75*
G03*
X14995000Y-750000I0J-70000D01*
G01*
D12*
X15539596Y-9499241D02*
X15679596Y-9639241D01*
X15679596Y-9499241D02*
X15539596Y-9639241D01*
D11*
X15767644Y-9717382D02*
X15575160Y-9355373D01*
X15644031Y-9783108D02*
X15451548Y-9421100D01*
X15575160Y-9355373D02*
G75*
G03*
X15451548Y-9421099I-61806J-32863D01*
G01*
X15644031Y-9783108D02*
G75*
G03*
X15767644Y-9717382I61806J32863D01*
G01*
D12*
X15605000Y-4950000D02*
X15745000Y-5090000D01*
X15745000Y-4950000D02*
X15605000Y-5090000D01*
D11*
X15470000Y-5090000D02*
X15880000Y-5090000D01*
X15470000Y-4950000D02*
X15880000Y-4950000D01*
X15880000Y-5090000D02*
G75*
G03*
X15880000Y-4950000I0J70000D01*
G01*
X15470000Y-4950000D02*
G75*
G03*
X15470000Y-5090000I0J-70000D01*
G01*
D12*
X15605000Y-6310000D02*
X15745000Y-6450000D01*
X15745000Y-6310000D02*
X15605000Y-6450000D01*
D11*
X15470000Y-6450000D02*
X15880000Y-6450000D01*
X15470000Y-6310000D02*
X15880000Y-6310000D01*
X15880000Y-6450000D02*
G75*
G03*
X15880000Y-6310000I0J70000D01*
G01*
X15470000Y-6310000D02*
G75*
G03*
X15470000Y-6450000I0J-70000D01*
G01*
D12*
X16080000Y-1150000D02*
X16220000Y-1290000D01*
X16220000Y-1150000D02*
X16080000Y-1290000D01*
D11*
X15945000Y-1290000D02*
X16355000Y-1290000D01*
X15945000Y-1150000D02*
X16355000Y-1150000D01*
X16355000Y-1290000D02*
G75*
G03*
X16355000Y-1150000I0J70000D01*
G01*
X15945000Y-1150000D02*
G75*
G03*
X15945000Y-1290000I0J-70000D01*
G01*
D12*
X16080000Y-2510000D02*
X16220000Y-2650000D01*
X16220000Y-2510000D02*
X16080000Y-2650000D01*
D11*
X15945000Y-2650000D02*
X16355000Y-2650000D01*
X15945000Y-2510000D02*
X16355000Y-2510000D01*
X16355000Y-2650000D02*
G75*
G03*
X16355000Y-2510000I0J70000D01*
G01*
X15945000Y-2510000D02*
G75*
G03*
X15945000Y-2650000I0J-70000D01*
G01*
D12*
X16555000Y-3050000D02*
X16695000Y-3190000D01*
X16695000Y-3050000D02*
X16555000Y-3190000D01*
D11*
X16420000Y-3190000D02*
X16830000Y-3190000D01*
X16420000Y-3050000D02*
X16830000Y-3050000D01*
X16830000Y-3190000D02*
G75*
G03*
X16830000Y-3050000I0J70000D01*
G01*
X16420000Y-3050000D02*
G75*
G03*
X16420000Y-3190000I0J-70000D01*
G01*
D12*
X16555000Y-4410000D02*
X16695000Y-4550000D01*
X16695000Y-4410000D02*
X16555000Y-4550000D01*
D11*
X16420000Y-4550000D02*
X16830000Y-4550000D01*
X16420000Y-4410000D02*
X16830000Y-4410000D01*
X16830000Y-4550000D02*
G75*
G03*
X16830000Y-4410000I0J70000D01*
G01*
X16420000Y-4410000D02*
G75*
G03*
X16420000Y-4550000I0J-70000D01*
G01*
D12*
X16740404Y-8860759D02*
X16880404Y-9000759D01*
X16880404Y-8860759D02*
X16740404Y-9000759D01*
D11*
X16968452Y-9078901D02*
X16775969Y-8716892D01*
X16844840Y-9144627D02*
X16652356Y-8782618D01*
X16775969Y-8716892D02*
G75*
G03*
X16652356Y-8782618I-61806J-32863D01*
G01*
X16844840Y-9144627D02*
G75*
G03*
X16968452Y-9078901I61806J32863D01*
G01*
D12*
X17030000Y750000D02*
X17170000Y610000D01*
X17170000Y750000D02*
X17030000Y610000D01*
D11*
X16895000Y610000D02*
X17305000Y610000D01*
X16895000Y750000D02*
X17305000Y750000D01*
X17305000Y610000D02*
G75*
G03*
X17305000Y750000I0J70000D01*
G01*
X16895000Y750000D02*
G75*
G03*
X16895000Y610000I0J-70000D01*
G01*
D12*
X17030000Y-610000D02*
X17170000Y-750000D01*
X17170000Y-610000D02*
X17030000Y-750000D01*
D11*
X16895000Y-750000D02*
X17305000Y-750000D01*
X16895000Y-610000D02*
X17305000Y-610000D01*
X17305000Y-750000D02*
G75*
G03*
X17305000Y-610000I0J70000D01*
G01*
X16895000Y-610000D02*
G75*
G03*
X16895000Y-750000I0J-70000D01*
G01*
D12*
X17505000Y-4950000D02*
X17645000Y-5090000D01*
X17645000Y-4950000D02*
X17505000Y-5090000D01*
D11*
X17370000Y-5090000D02*
X17780000Y-5090000D01*
X17370000Y-4950000D02*
X17780000Y-4950000D01*
X17780000Y-5090000D02*
G75*
G03*
X17780000Y-4950000I0J70000D01*
G01*
X17370000Y-4950000D02*
G75*
G03*
X17370000Y-5090000I0J-70000D01*
G01*
D12*
X17505000Y-6310000D02*
X17645000Y-6450000D01*
X17645000Y-6310000D02*
X17505000Y-6450000D01*
D11*
X17370000Y-6450000D02*
X17780000Y-6450000D01*
X17370000Y-6310000D02*
X17780000Y-6310000D01*
X17780000Y-6450000D02*
G75*
G03*
X17780000Y-6310000I0J70000D01*
G01*
X17370000Y-6310000D02*
G75*
G03*
X17370000Y-6450000I0J-70000D01*
G01*
D12*
X17652567Y-7396342D02*
X17792567Y-7536342D01*
X17792567Y-7396342D02*
X17652567Y-7536342D01*
D11*
X17544803Y-7590136D02*
X17938920Y-7477125D01*
X17506213Y-7455559D02*
X17900331Y-7342548D01*
X17938920Y-7477125D02*
G75*
G03*
X17900331Y-7342548I-19295J67288D01*
G01*
X17506213Y-7455559D02*
G75*
G03*
X17544803Y-7590136I19295J-67288D01*
G01*
D12*
X17980000Y-1150000D02*
X18120000Y-1290000D01*
X18120000Y-1150000D02*
X17980000Y-1290000D01*
D11*
X17845000Y-1290000D02*
X18255000Y-1290000D01*
X17845000Y-1150000D02*
X18255000Y-1150000D01*
X18255000Y-1290000D02*
G75*
G03*
X18255000Y-1150000I0J70000D01*
G01*
X17845000Y-1150000D02*
G75*
G03*
X17845000Y-1290000I0J-70000D01*
G01*
D12*
X17980000Y-2510000D02*
X18120000Y-2650000D01*
X18120000Y-2510000D02*
X17980000Y-2650000D01*
D11*
X17845000Y-2650000D02*
X18255000Y-2650000D01*
X17845000Y-2510000D02*
X18255000Y-2510000D01*
X18255000Y-2650000D02*
G75*
G03*
X18255000Y-2510000I0J70000D01*
G01*
X17845000Y-2510000D02*
G75*
G03*
X17845000Y-2650000I0J-70000D01*
G01*
D12*
X18027433Y-8703658D02*
X18167433Y-8843658D01*
X18167433Y-8703658D02*
X18027433Y-8843658D01*
D11*
X17919669Y-8897452D02*
X18313787Y-8784441D01*
X17881080Y-8762875D02*
X18275197Y-8649864D01*
X18313787Y-8784441D02*
G75*
G03*
X18275197Y-8649864I-19295J67288D01*
G01*
X17881080Y-8762875D02*
G75*
G03*
X17919669Y-8897452I19295J-67288D01*
G01*
D12*
X18455000Y-3050000D02*
X18595000Y-3190000D01*
X18595000Y-3050000D02*
X18455000Y-3190000D01*
D11*
X18320000Y-3190000D02*
X18730000Y-3190000D01*
X18320000Y-3050000D02*
X18730000Y-3050000D01*
X18730000Y-3190000D02*
G75*
G03*
X18730000Y-3050000I0J70000D01*
G01*
X18320000Y-3050000D02*
G75*
G03*
X18320000Y-3190000I0J-70000D01*
G01*
D12*
X18455000Y-4410000D02*
X18595000Y-4550000D01*
X18595000Y-4410000D02*
X18455000Y-4550000D01*
D11*
X18320000Y-4550000D02*
X18730000Y-4550000D01*
X18320000Y-4410000D02*
X18730000Y-4410000D01*
X18730000Y-4550000D02*
G75*
G03*
X18730000Y-4410000I0J70000D01*
G01*
X18320000Y-4410000D02*
G75*
G03*
X18320000Y-4550000I0J-70000D01*
G01*
D12*
X18930000Y750000D02*
X19070000Y610000D01*
X19070000Y750000D02*
X18930000Y610000D01*
D11*
X18795000Y610000D02*
X19205000Y610000D01*
X18795000Y750000D02*
X19205000Y750000D01*
X19205000Y610000D02*
G75*
G03*
X19205000Y750000I0J70000D01*
G01*
X18795000Y750000D02*
G75*
G03*
X18795000Y610000I0J-70000D01*
G01*
D12*
X18930000Y-610000D02*
X19070000Y-750000D01*
X19070000Y-610000D02*
X18930000Y-750000D01*
D11*
X18795000Y-750000D02*
X19205000Y-750000D01*
X18795000Y-610000D02*
X19205000Y-610000D01*
X19205000Y-750000D02*
G75*
G03*
X19205000Y-610000I0J70000D01*
G01*
X18795000Y-610000D02*
G75*
G03*
X18795000Y-750000I0J-70000D01*
G01*
D12*
X19405000Y-4950000D02*
X19545000Y-5090000D01*
X19545000Y-4950000D02*
X19405000Y-5090000D01*
D11*
X19270000Y-5090000D02*
X19680000Y-5090000D01*
X19270000Y-4950000D02*
X19680000Y-4950000D01*
X19680000Y-5090000D02*
G75*
G03*
X19680000Y-4950000I0J70000D01*
G01*
X19270000Y-4950000D02*
G75*
G03*
X19270000Y-5090000I0J-70000D01*
G01*
D12*
X19405000Y-6310000D02*
X19545000Y-6450000D01*
X19545000Y-6310000D02*
X19405000Y-6450000D01*
D11*
X19270000Y-6450000D02*
X19680000Y-6450000D01*
X19270000Y-6310000D02*
X19680000Y-6310000D01*
X19680000Y-6450000D02*
G75*
G03*
X19680000Y-6310000I0J70000D01*
G01*
X19270000Y-6310000D02*
G75*
G03*
X19270000Y-6450000I0J-70000D01*
G01*
D12*
X19697129Y-6955069D02*
X19837129Y-7095069D01*
X19837129Y-6955069D02*
X19697129Y-7095069D01*
D11*
X19572188Y-7119530D02*
X19979132Y-7069564D01*
X19555126Y-6980574D02*
X19962070Y-6930607D01*
X19979132Y-7069564D02*
G75*
G03*
X19962070Y-6930607I-8531J69478D01*
G01*
X19555126Y-6980574D02*
G75*
G03*
X19572188Y-7119530I8531J-69478D01*
G01*
D12*
X19862871Y-8304931D02*
X20002871Y-8444931D01*
X20002871Y-8304931D02*
X19862871Y-8444931D01*
D11*
X19737930Y-8469393D02*
X20144874Y-8419426D01*
X19720868Y-8330436D02*
X20127812Y-8280470D01*
X20144874Y-8419426D02*
G75*
G03*
X20127812Y-8280470I-8531J69478D01*
G01*
X19720868Y-8330436D02*
G75*
G03*
X19737930Y-8469393I8531J-69478D01*
G01*
D12*
X19880000Y-1150000D02*
X20020000Y-1290000D01*
X20020000Y-1150000D02*
X19880000Y-1290000D01*
D11*
X19745000Y-1290000D02*
X20155000Y-1290000D01*
X19745000Y-1150000D02*
X20155000Y-1150000D01*
X20155000Y-1290000D02*
G75*
G03*
X20155000Y-1150000I0J70000D01*
G01*
X19745000Y-1150000D02*
G75*
G03*
X19745000Y-1290000I0J-70000D01*
G01*
D12*
X19880000Y-2510000D02*
X20020000Y-2650000D01*
X20020000Y-2510000D02*
X19880000Y-2650000D01*
D11*
X19745000Y-2650000D02*
X20155000Y-2650000D01*
X19745000Y-2510000D02*
X20155000Y-2510000D01*
X20155000Y-2650000D02*
G75*
G03*
X20155000Y-2510000I0J70000D01*
G01*
X19745000Y-2510000D02*
G75*
G03*
X19745000Y-2650000I0J-70000D01*
G01*
D12*
X20355000Y-3050000D02*
X20495000Y-3190000D01*
X20495000Y-3050000D02*
X20355000Y-3190000D01*
D11*
X20220000Y-3190000D02*
X20630000Y-3190000D01*
X20220000Y-3050000D02*
X20630000Y-3050000D01*
X20630000Y-3190000D02*
G75*
G03*
X20630000Y-3050000I0J70000D01*
G01*
X20220000Y-3050000D02*
G75*
G03*
X20220000Y-3190000I0J-70000D01*
G01*
D12*
X20355000Y-4410000D02*
X20495000Y-4550000D01*
X20495000Y-4410000D02*
X20355000Y-4550000D01*
D11*
X20220000Y-4550000D02*
X20630000Y-4550000D01*
X20220000Y-4410000D02*
X20630000Y-4410000D01*
X20630000Y-4550000D02*
G75*
G03*
X20630000Y-4410000I0J70000D01*
G01*
X20220000Y-4410000D02*
G75*
G03*
X20220000Y-4550000I0J-70000D01*
G01*
D12*
X20830000Y750000D02*
X20970000Y610000D01*
X20970000Y750000D02*
X20830000Y610000D01*
D11*
X20695000Y610000D02*
X21105000Y610000D01*
X20695000Y750000D02*
X21105000Y750000D01*
X21105000Y610000D02*
G75*
G03*
X21105000Y750000I0J70000D01*
G01*
X20695000Y750000D02*
G75*
G03*
X20695000Y610000I0J-70000D01*
G01*
D12*
X20830000Y-610000D02*
X20970000Y-750000D01*
X20970000Y-610000D02*
X20830000Y-750000D01*
D11*
X20695000Y-750000D02*
X21105000Y-750000D01*
X20695000Y-610000D02*
X21105000Y-610000D01*
X21105000Y-750000D02*
G75*
G03*
X21105000Y-610000I0J70000D01*
G01*
X20695000Y-610000D02*
G75*
G03*
X20695000Y-750000I0J-70000D01*
G01*
D12*
X21305000Y-4950000D02*
X21445000Y-5090000D01*
X21445000Y-4950000D02*
X21305000Y-5090000D01*
D11*
X21170000Y-5090000D02*
X21580000Y-5090000D01*
X21170000Y-4950000D02*
X21580000Y-4950000D01*
X21580000Y-5090000D02*
G75*
G03*
X21580000Y-4950000I0J70000D01*
G01*
X21170000Y-4950000D02*
G75*
G03*
X21170000Y-5090000I0J-70000D01*
G01*
D12*
X21305000Y-6310000D02*
X21445000Y-6450000D01*
X21445000Y-6310000D02*
X21305000Y-6450000D01*
D11*
X21170000Y-6450000D02*
X21580000Y-6450000D01*
X21170000Y-6310000D02*
X21580000Y-6310000D01*
X21580000Y-6450000D02*
G75*
G03*
X21580000Y-6310000I0J70000D01*
G01*
X21170000Y-6310000D02*
G75*
G03*
X21170000Y-6450000I0J-70000D01*
G01*
D12*
X21780000Y-1150000D02*
X21920000Y-1290000D01*
X21920000Y-1150000D02*
X21780000Y-1290000D01*
D11*
X21645000Y-1290000D02*
X22055000Y-1290000D01*
X21645000Y-1150000D02*
X22055000Y-1150000D01*
X22055000Y-1290000D02*
G75*
G03*
X22055000Y-1150000I0J70000D01*
G01*
X21645000Y-1150000D02*
G75*
G03*
X21645000Y-1290000I0J-70000D01*
G01*
D12*
X21780000Y-2510000D02*
X21920000Y-2650000D01*
X21920000Y-2510000D02*
X21780000Y-2650000D01*
D11*
X21645000Y-2650000D02*
X22055000Y-2650000D01*
X21645000Y-2510000D02*
X22055000Y-2510000D01*
X22055000Y-2650000D02*
G75*
G03*
X22055000Y-2510000I0J70000D01*
G01*
X21645000Y-2510000D02*
G75*
G03*
X21645000Y-2650000I0J-70000D01*
G01*
D12*
X22255000Y-3050000D02*
X22395000Y-3190000D01*
X22395000Y-3050000D02*
X22255000Y-3190000D01*
D11*
X22120000Y-3190000D02*
X22530000Y-3190000D01*
X22120000Y-3050000D02*
X22530000Y-3050000D01*
X22530000Y-3190000D02*
G75*
G03*
X22530000Y-3050000I0J70000D01*
G01*
X22120000Y-3050000D02*
G75*
G03*
X22120000Y-3190000I0J-70000D01*
G01*
D12*
X22255000Y-4410000D02*
X22395000Y-4550000D01*
X22395000Y-4410000D02*
X22255000Y-4550000D01*
D11*
X22120000Y-4550000D02*
X22530000Y-4550000D01*
X22120000Y-4410000D02*
X22530000Y-4410000D01*
X22530000Y-4550000D02*
G75*
G03*
X22530000Y-4410000I0J70000D01*
G01*
X22120000Y-4410000D02*
G75*
G03*
X22120000Y-4550000I0J-70000D01*
G01*
D12*
X22255000Y-6850000D02*
X22395000Y-6990000D01*
X22395000Y-6850000D02*
X22255000Y-6990000D01*
D11*
X22120000Y-6990000D02*
X22530000Y-6990000D01*
X22120000Y-6850000D02*
X22530000Y-6850000D01*
X22530000Y-6990000D02*
G75*
G03*
X22530000Y-6850000I0J70000D01*
G01*
X22120000Y-6850000D02*
G75*
G03*
X22120000Y-6990000I0J-70000D01*
G01*
D12*
X22255000Y-8210000D02*
X22395000Y-8350000D01*
X22395000Y-8210000D02*
X22255000Y-8350000D01*
D11*
X22120000Y-8350000D02*
X22530000Y-8350000D01*
X22120000Y-8210000D02*
X22530000Y-8210000D01*
X22530000Y-8350000D02*
G75*
G03*
X22530000Y-8210000I0J70000D01*
G01*
X22120000Y-8210000D02*
G75*
G03*
X22120000Y-8350000I0J-70000D01*
G01*
D12*
X22730000Y750000D02*
X22870000Y610000D01*
X22870000Y750000D02*
X22730000Y610000D01*
D11*
X22595000Y610000D02*
X23005000Y610000D01*
X22595000Y750000D02*
X23005000Y750000D01*
X23005000Y610000D02*
G75*
G03*
X23005000Y750000I0J70000D01*
G01*
X22595000Y750000D02*
G75*
G03*
X22595000Y610000I0J-70000D01*
G01*
D12*
X22730000Y-610000D02*
X22870000Y-750000D01*
X22870000Y-610000D02*
X22730000Y-750000D01*
D11*
X22595000Y-750000D02*
X23005000Y-750000D01*
X22595000Y-610000D02*
X23005000Y-610000D01*
X23005000Y-750000D02*
G75*
G03*
X23005000Y-610000I0J70000D01*
G01*
X22595000Y-610000D02*
G75*
G03*
X22595000Y-750000I0J-70000D01*
G01*
D12*
X23205000Y-4950000D02*
X23345000Y-5090000D01*
X23345000Y-4950000D02*
X23205000Y-5090000D01*
D11*
X23070000Y-5090000D02*
X23480000Y-5090000D01*
X23070000Y-4950000D02*
X23480000Y-4950000D01*
X23480000Y-5090000D02*
G75*
G03*
X23480000Y-4950000I0J70000D01*
G01*
X23070000Y-4950000D02*
G75*
G03*
X23070000Y-5090000I0J-70000D01*
G01*
D12*
X23205000Y-6310000D02*
X23345000Y-6450000D01*
X23345000Y-6310000D02*
X23205000Y-6450000D01*
D11*
X23070000Y-6450000D02*
X23480000Y-6450000D01*
X23070000Y-6310000D02*
X23480000Y-6310000D01*
X23480000Y-6450000D02*
G75*
G03*
X23480000Y-6310000I0J70000D01*
G01*
X23070000Y-6310000D02*
G75*
G03*
X23070000Y-6450000I0J-70000D01*
G01*
D12*
X23680000Y-1150000D02*
X23820000Y-1290000D01*
X23820000Y-1150000D02*
X23680000Y-1290000D01*
D11*
X23545000Y-1290000D02*
X23955000Y-1290000D01*
X23545000Y-1150000D02*
X23955000Y-1150000D01*
X23955000Y-1290000D02*
G75*
G03*
X23955000Y-1150000I0J70000D01*
G01*
X23545000Y-1150000D02*
G75*
G03*
X23545000Y-1290000I0J-70000D01*
G01*
D12*
X23680000Y-2510000D02*
X23820000Y-2650000D01*
X23820000Y-2510000D02*
X23680000Y-2650000D01*
D11*
X23545000Y-2650000D02*
X23955000Y-2650000D01*
X23545000Y-2510000D02*
X23955000Y-2510000D01*
X23955000Y-2650000D02*
G75*
G03*
X23955000Y-2510000I0J70000D01*
G01*
X23545000Y-2510000D02*
G75*
G03*
X23545000Y-2650000I0J-70000D01*
G01*
D12*
X24155000Y-3050000D02*
X24295000Y-3190000D01*
X24295000Y-3050000D02*
X24155000Y-3190000D01*
D11*
X24020000Y-3190000D02*
X24430000Y-3190000D01*
X24020000Y-3050000D02*
X24430000Y-3050000D01*
X24430000Y-3190000D02*
G75*
G03*
X24430000Y-3050000I0J70000D01*
G01*
X24020000Y-3050000D02*
G75*
G03*
X24020000Y-3190000I0J-70000D01*
G01*
D12*
X24155000Y-4410000D02*
X24295000Y-4550000D01*
X24295000Y-4410000D02*
X24155000Y-4550000D01*
D11*
X24020000Y-4550000D02*
X24430000Y-4550000D01*
X24020000Y-4410000D02*
X24430000Y-4410000D01*
X24430000Y-4550000D02*
G75*
G03*
X24430000Y-4410000I0J70000D01*
G01*
X24020000Y-4410000D02*
G75*
G03*
X24020000Y-4550000I0J-70000D01*
G01*
D12*
X24155000Y-6850000D02*
X24295000Y-6990000D01*
X24295000Y-6850000D02*
X24155000Y-6990000D01*
D11*
X24020000Y-6990000D02*
X24430000Y-6990000D01*
X24020000Y-6850000D02*
X24430000Y-6850000D01*
X24430000Y-6990000D02*
G75*
G03*
X24430000Y-6850000I0J70000D01*
G01*
X24020000Y-6850000D02*
G75*
G03*
X24020000Y-6990000I0J-70000D01*
G01*
D12*
X24155000Y-8210000D02*
X24295000Y-8350000D01*
X24295000Y-8210000D02*
X24155000Y-8350000D01*
D11*
X24020000Y-8350000D02*
X24430000Y-8350000D01*
X24020000Y-8210000D02*
X24430000Y-8210000D01*
X24430000Y-8350000D02*
G75*
G03*
X24430000Y-8210000I0J70000D01*
G01*
X24020000Y-8210000D02*
G75*
G03*
X24020000Y-8350000I0J-70000D01*
G01*
D12*
X24630000Y750000D02*
X24770000Y610000D01*
X24770000Y750000D02*
X24630000Y610000D01*
D11*
X24495000Y610000D02*
X24905000Y610000D01*
X24495000Y750000D02*
X24905000Y750000D01*
X24905000Y610000D02*
G75*
G03*
X24905000Y750000I0J70000D01*
G01*
X24495000Y750000D02*
G75*
G03*
X24495000Y610000I0J-70000D01*
G01*
D12*
X24630000Y-610000D02*
X24770000Y-750000D01*
X24770000Y-610000D02*
X24630000Y-750000D01*
D11*
X24495000Y-750000D02*
X24905000Y-750000D01*
X24495000Y-610000D02*
X24905000Y-610000D01*
X24905000Y-750000D02*
G75*
G03*
X24905000Y-610000I0J70000D01*
G01*
X24495000Y-610000D02*
G75*
G03*
X24495000Y-750000I0J-70000D01*
G01*
D12*
X25580000Y-1150000D02*
X25720000Y-1290000D01*
X25720000Y-1150000D02*
X25580000Y-1290000D01*
D11*
X25445000Y-1290000D02*
X25855000Y-1290000D01*
X25445000Y-1150000D02*
X25855000Y-1150000D01*
X25855000Y-1290000D02*
G75*
G03*
X25855000Y-1150000I0J70000D01*
G01*
X25445000Y-1150000D02*
G75*
G03*
X25445000Y-1290000I0J-70000D01*
G01*
D12*
X25580000Y-2510000D02*
X25720000Y-2650000D01*
X25720000Y-2510000D02*
X25580000Y-2650000D01*
D11*
X25445000Y-2650000D02*
X25855000Y-2650000D01*
X25445000Y-2510000D02*
X25855000Y-2510000D01*
X25855000Y-2650000D02*
G75*
G03*
X25855000Y-2510000I0J70000D01*
G01*
X25445000Y-2510000D02*
G75*
G03*
X25445000Y-2650000I0J-70000D01*
G01*
D12*
X25817500Y-4950000D02*
X25957500Y-5090000D01*
X25957500Y-4950000D02*
X25817500Y-5090000D01*
D11*
X25682500Y-5090000D02*
X26092500Y-5090000D01*
X25682500Y-4950000D02*
X26092500Y-4950000D01*
X26092500Y-5090000D02*
G75*
G03*
X26092500Y-4950000I0J70000D01*
G01*
X25682500Y-4950000D02*
G75*
G03*
X25682500Y-5090000I0J-70000D01*
G01*
D12*
X25817500Y-6310000D02*
X25957500Y-6450000D01*
X25957500Y-6310000D02*
X25817500Y-6450000D01*
D11*
X25682500Y-6450000D02*
X26092500Y-6450000D01*
X25682500Y-6310000D02*
X26092500Y-6310000D01*
X26092500Y-6450000D02*
G75*
G03*
X26092500Y-6310000I0J70000D01*
G01*
X25682500Y-6310000D02*
G75*
G03*
X25682500Y-6450000I0J-70000D01*
G01*
D12*
X26055000Y-3050000D02*
X26195000Y-3190000D01*
X26195000Y-3050000D02*
X26055000Y-3190000D01*
D11*
X25920000Y-3190000D02*
X26330000Y-3190000D01*
X25920000Y-3050000D02*
X26330000Y-3050000D01*
X26330000Y-3190000D02*
G75*
G03*
X26330000Y-3050000I0J70000D01*
G01*
X25920000Y-3050000D02*
G75*
G03*
X25920000Y-3190000I0J-70000D01*
G01*
D12*
X26055000Y-4410000D02*
X26195000Y-4550000D01*
X26195000Y-4410000D02*
X26055000Y-4550000D01*
D11*
X25920000Y-4550000D02*
X26330000Y-4550000D01*
X25920000Y-4410000D02*
X26330000Y-4410000D01*
X26330000Y-4550000D02*
G75*
G03*
X26330000Y-4410000I0J70000D01*
G01*
X25920000Y-4410000D02*
G75*
G03*
X25920000Y-4550000I0J-70000D01*
G01*
D12*
X26055000Y-6850000D02*
X26195000Y-6990000D01*
X26195000Y-6850000D02*
X26055000Y-6990000D01*
D11*
X25920000Y-6990000D02*
X26330000Y-6990000D01*
X25920000Y-6850000D02*
X26330000Y-6850000D01*
X26330000Y-6990000D02*
G75*
G03*
X26330000Y-6850000I0J70000D01*
G01*
X25920000Y-6850000D02*
G75*
G03*
X25920000Y-6990000I0J-70000D01*
G01*
D12*
X26055000Y-8210000D02*
X26195000Y-8350000D01*
X26195000Y-8210000D02*
X26055000Y-8350000D01*
D11*
X25920000Y-8350000D02*
X26330000Y-8350000D01*
X25920000Y-8210000D02*
X26330000Y-8210000D01*
X26330000Y-8350000D02*
G75*
G03*
X26330000Y-8210000I0J70000D01*
G01*
X25920000Y-8210000D02*
G75*
G03*
X25920000Y-8350000I0J-70000D01*
G01*
D12*
X26530000Y750000D02*
X26670000Y610000D01*
X26670000Y750000D02*
X26530000Y610000D01*
D11*
X26395000Y610000D02*
X26805000Y610000D01*
X26395000Y750000D02*
X26805000Y750000D01*
X26805000Y610000D02*
G75*
G03*
X26805000Y750000I0J70000D01*
G01*
X26395000Y750000D02*
G75*
G03*
X26395000Y610000I0J-70000D01*
G01*
D12*
X26530000Y-610000D02*
X26670000Y-750000D01*
X26670000Y-610000D02*
X26530000Y-750000D01*
D11*
X26395000Y-750000D02*
X26805000Y-750000D01*
X26395000Y-610000D02*
X26805000Y-610000D01*
X26805000Y-750000D02*
G75*
G03*
X26805000Y-610000I0J70000D01*
G01*
X26395000Y-610000D02*
G75*
G03*
X26395000Y-750000I0J-70000D01*
G01*
D12*
X27955000Y-1150000D02*
X28095000Y-1290000D01*
X28095000Y-1150000D02*
X27955000Y-1290000D01*
D11*
X27820000Y-1290000D02*
X28230000Y-1290000D01*
X27820000Y-1150000D02*
X28230000Y-1150000D01*
X28230000Y-1290000D02*
G75*
G03*
X28230000Y-1150000I0J70000D01*
G01*
X27820000Y-1150000D02*
G75*
G03*
X27820000Y-1290000I0J-70000D01*
G01*
D12*
X27955000Y-2510000D02*
X28095000Y-2650000D01*
X28095000Y-2510000D02*
X27955000Y-2650000D01*
D11*
X27820000Y-2650000D02*
X28230000Y-2650000D01*
X27820000Y-2510000D02*
X28230000Y-2510000D01*
X28230000Y-2650000D02*
G75*
G03*
X28230000Y-2510000I0J70000D01*
G01*
X27820000Y-2510000D02*
G75*
G03*
X27820000Y-2650000I0J-70000D01*
G01*
D12*
X27955000Y-6850000D02*
X28095000Y-6990000D01*
X28095000Y-6850000D02*
X27955000Y-6990000D01*
D11*
X27820000Y-6990000D02*
X28230000Y-6990000D01*
X27820000Y-6850000D02*
X28230000Y-6850000D01*
X28230000Y-6990000D02*
G75*
G03*
X28230000Y-6850000I0J70000D01*
G01*
X27820000Y-6850000D02*
G75*
G03*
X27820000Y-6990000I0J-70000D01*
G01*
D12*
X27955000Y-8210000D02*
X28095000Y-8350000D01*
X28095000Y-8210000D02*
X27955000Y-8350000D01*
D11*
X27820000Y-8350000D02*
X28230000Y-8350000D01*
X27820000Y-8210000D02*
X28230000Y-8210000D01*
X28230000Y-8350000D02*
G75*
G03*
X28230000Y-8210000I0J70000D01*
G01*
X27820000Y-8210000D02*
G75*
G03*
X27820000Y-8350000I0J-70000D01*
G01*
D12*
X28192500Y-3050000D02*
X28332500Y-3190000D01*
X28332500Y-3050000D02*
X28192500Y-3190000D01*
D11*
X28057500Y-3190000D02*
X28467500Y-3190000D01*
X28057500Y-3050000D02*
X28467500Y-3050000D01*
X28467500Y-3190000D02*
G75*
G03*
X28467500Y-3050000I0J70000D01*
G01*
X28057500Y-3050000D02*
G75*
G03*
X28057500Y-3190000I0J-70000D01*
G01*
D12*
X28192500Y-4410000D02*
X28332500Y-4550000D01*
X28332500Y-4410000D02*
X28192500Y-4550000D01*
D11*
X28057500Y-4550000D02*
X28467500Y-4550000D01*
X28057500Y-4410000D02*
X28467500Y-4410000D01*
X28467500Y-4550000D02*
G75*
G03*
X28467500Y-4410000I0J70000D01*
G01*
X28057500Y-4410000D02*
G75*
G03*
X28057500Y-4550000I0J-70000D01*
G01*
D12*
X28430000Y750000D02*
X28570000Y610000D01*
X28570000Y750000D02*
X28430000Y610000D01*
D11*
X28295000Y610000D02*
X28705000Y610000D01*
X28295000Y750000D02*
X28705000Y750000D01*
X28705000Y610000D02*
G75*
G03*
X28705000Y750000I0J70000D01*
G01*
X28295000Y750000D02*
G75*
G03*
X28295000Y610000I0J-70000D01*
G01*
D12*
X28430000Y-610000D02*
X28570000Y-750000D01*
X28570000Y-610000D02*
X28430000Y-750000D01*
D11*
X28295000Y-750000D02*
X28705000Y-750000D01*
X28295000Y-610000D02*
X28705000Y-610000D01*
X28705000Y-750000D02*
G75*
G03*
X28705000Y-610000I0J70000D01*
G01*
X28295000Y-610000D02*
G75*
G03*
X28295000Y-750000I0J-70000D01*
G01*
D12*
X28430000Y-4950000D02*
X28570000Y-5090000D01*
X28570000Y-4950000D02*
X28430000Y-5090000D01*
D11*
X28295000Y-5090000D02*
X28705000Y-5090000D01*
X28295000Y-4950000D02*
X28705000Y-4950000D01*
X28705000Y-5090000D02*
G75*
G03*
X28705000Y-4950000I0J70000D01*
G01*
X28295000Y-4950000D02*
G75*
G03*
X28295000Y-5090000I0J-70000D01*
G01*
D12*
X28430000Y-6310000D02*
X28570000Y-6450000D01*
X28570000Y-6310000D02*
X28430000Y-6450000D01*
D11*
X28295000Y-6450000D02*
X28705000Y-6450000D01*
X28295000Y-6310000D02*
X28705000Y-6310000D01*
X28705000Y-6450000D02*
G75*
G03*
X28705000Y-6310000I0J70000D01*
G01*
X28295000Y-6310000D02*
G75*
G03*
X28295000Y-6450000I0J-70000D01*
G01*
D13*
X1115000Y-5700000D02*
G75*
G03*
X1115000Y-5700000I-165000J0D01*
G01*
X1352500Y-3800000D02*
G75*
G03*
X1352500Y-3800000I-165000J0D01*
G01*
X1352500Y-7600000D02*
G75*
G03*
X1352500Y-7600000I-165000J0D01*
G01*
X2065000Y0D02*
G75*
G03*
X2065000Y0I-165000J0D01*
G01*
X2540000Y-1900000D02*
G75*
G03*
X2540000Y-1900000I-165000J0D01*
G01*
X3490000Y-3800000D02*
G75*
G03*
X3490000Y-3800000I-165000J0D01*
G01*
X3490000Y-7600000D02*
G75*
G03*
X3490000Y-7600000I-165000J0D01*
G01*
X3727500Y-5700000D02*
G75*
G03*
X3727500Y-5700000I-165000J0D01*
G01*
X3965000Y0D02*
G75*
G03*
X3965000Y0I-165000J0D01*
G01*
X4915000Y-1900000D02*
G75*
G03*
X4915000Y-1900000I-165000J0D01*
G01*
X5390000Y-3800000D02*
G75*
G03*
X5390000Y-3800000I-165000J0D01*
G01*
X5390000Y-7600000D02*
G75*
G03*
X5390000Y-7600000I-165000J0D01*
G01*
X5865000Y0D02*
G75*
G03*
X5865000Y0I-165000J0D01*
G01*
X6340000Y-5700000D02*
G75*
G03*
X6340000Y-5700000I-165000J0D01*
G01*
X6815000Y-1900000D02*
G75*
G03*
X6815000Y-1900000I-165000J0D01*
G01*
X7290000Y-3800000D02*
G75*
G03*
X7290000Y-3800000I-165000J0D01*
G01*
X7390000Y-7700000D02*
G75*
G03*
X7390000Y-7700000I-165000J0D01*
G01*
X7765000Y0D02*
G75*
G03*
X7765000Y0I-165000J0D01*
G01*
X8240000Y-5700000D02*
G75*
G03*
X8240000Y-5700000I-165000J0D01*
G01*
X8715000Y-1900000D02*
G75*
G03*
X8715000Y-1900000I-165000J0D01*
G01*
X9190000Y-3800000D02*
G75*
G03*
X9190000Y-3800000I-165000J0D01*
G01*
X9567500Y-8120000D02*
G75*
G03*
X9567500Y-8120000I-165000J0D01*
G01*
X9665000Y0D02*
G75*
G03*
X9665000Y0I-165000J0D01*
G01*
X10140000Y-5700000D02*
G75*
G03*
X10140000Y-5700000I-165000J0D01*
G01*
X10615000Y-1900000D02*
G75*
G03*
X10615000Y-1900000I-165000J0D01*
G01*
X11090000Y-3800000D02*
G75*
G03*
X11090000Y-3800000I-165000J0D01*
G01*
X11505000Y-9250000D02*
G75*
G03*
X11505000Y-9250000I-165000J0D01*
G01*
X11565000Y0D02*
G75*
G03*
X11565000Y0I-165000J0D01*
G01*
X12040000Y-5700000D02*
G75*
G03*
X12040000Y-5700000I-165000J0D01*
G01*
X12515000Y-1900000D02*
G75*
G03*
X12515000Y-1900000I-165000J0D01*
G01*
X12990000Y-3800000D02*
G75*
G03*
X12990000Y-3800000I-165000J0D01*
G01*
X13465000Y0D02*
G75*
G03*
X13465000Y0I-165000J0D01*
G01*
X13940000Y-5700000D02*
G75*
G03*
X13940000Y-5700000I-165000J0D01*
G01*
X13940000Y-7600000D02*
G75*
G03*
X13940000Y-7600000I-165000J0D01*
G01*
X14415000Y-1900000D02*
G75*
G03*
X14415000Y-1900000I-165000J0D01*
G01*
X14890000Y-3800000D02*
G75*
G03*
X14890000Y-3800000I-165000J0D01*
G01*
X15365000Y0D02*
G75*
G03*
X15365000Y0I-165000J0D01*
G01*
X15840000Y-5700000D02*
G75*
G03*
X15840000Y-5700000I-165000J0D01*
G01*
X16315000Y-1900000D02*
G75*
G03*
X16315000Y-1900000I-165000J0D01*
G01*
X16375000Y-9250000D02*
G75*
G03*
X16375000Y-9250000I-165000J0D01*
G01*
X16790000Y-3800000D02*
G75*
G03*
X16790000Y-3800000I-165000J0D01*
G01*
X17265000Y0D02*
G75*
G03*
X17265000Y0I-165000J0D01*
G01*
X17740000Y-5700000D02*
G75*
G03*
X17740000Y-5700000I-165000J0D01*
G01*
X18075000Y-8120000D02*
G75*
G03*
X18075000Y-8120000I-165000J0D01*
G01*
X18215000Y-1900000D02*
G75*
G03*
X18215000Y-1900000I-165000J0D01*
G01*
X18690000Y-3800000D02*
G75*
G03*
X18690000Y-3800000I-165000J0D01*
G01*
X19165000Y0D02*
G75*
G03*
X19165000Y0I-165000J0D01*
G01*
X19640000Y-5700000D02*
G75*
G03*
X19640000Y-5700000I-165000J0D01*
G01*
X20015000Y-7700000D02*
G75*
G03*
X20015000Y-7700000I-165000J0D01*
G01*
X20115000Y-1900000D02*
G75*
G03*
X20115000Y-1900000I-165000J0D01*
G01*
X20590000Y-3800000D02*
G75*
G03*
X20590000Y-3800000I-165000J0D01*
G01*
X21065000Y0D02*
G75*
G03*
X21065000Y0I-165000J0D01*
G01*
X21540000Y-5700000D02*
G75*
G03*
X21540000Y-5700000I-165000J0D01*
G01*
X22015000Y-1900000D02*
G75*
G03*
X22015000Y-1900000I-165000J0D01*
G01*
X22490000Y-3800000D02*
G75*
G03*
X22490000Y-3800000I-165000J0D01*
G01*
X22490000Y-7600000D02*
G75*
G03*
X22490000Y-7600000I-165000J0D01*
G01*
X22965000Y0D02*
G75*
G03*
X22965000Y0I-165000J0D01*
G01*
X23440000Y-5700000D02*
G75*
G03*
X23440000Y-5700000I-165000J0D01*
G01*
X23915000Y-1900000D02*
G75*
G03*
X23915000Y-1900000I-165000J0D01*
G01*
X24390000Y-3800000D02*
G75*
G03*
X24390000Y-3800000I-165000J0D01*
G01*
X24390000Y-7600000D02*
G75*
G03*
X24390000Y-7600000I-165000J0D01*
G01*
X24865000Y0D02*
G75*
G03*
X24865000Y0I-165000J0D01*
G01*
X25815000Y-1900000D02*
G75*
G03*
X25815000Y-1900000I-165000J0D01*
G01*
X26052500Y-5700000D02*
G75*
G03*
X26052500Y-5700000I-165000J0D01*
G01*
X26290000Y-3800000D02*
G75*
G03*
X26290000Y-3800000I-165000J0D01*
G01*
X26290000Y-7600000D02*
G75*
G03*
X26290000Y-7600000I-165000J0D01*
G01*
X26765000Y0D02*
G75*
G03*
X26765000Y0I-165000J0D01*
G01*
X28190000Y-1900000D02*
G75*
G03*
X28190000Y-1900000I-165000J0D01*
G01*
X28190000Y-7600000D02*
G75*
G03*
X28190000Y-7600000I-165000J0D01*
G01*
X28427500Y-3800000D02*
G75*
G03*
X28427500Y-3800000I-165000J0D01*
G01*
X28665000Y0D02*
G75*
G03*
X28665000Y0I-165000J0D01*
G01*
X28665000Y-5700000D02*
G75*
G03*
X28665000Y-5700000I-165000J0D01*
G01*
D11*
X-1173381Y-18167976D02*
X-1173381Y-17967976D01*
X-1125762Y-17967976D01*
X-1097190Y-17977500D01*
X-1078143Y-17996548D01*
X-1068619Y-18015595D01*
X-1059095Y-18053690D01*
X-1059095Y-18082262D01*
X-1068619Y-18120357D01*
X-1078143Y-18139405D01*
X-1097190Y-18158452D01*
X-1125762Y-18167976D01*
X-1173381Y-18167976D01*
X-973381Y-18167976D02*
X-973381Y-18034643D01*
X-973381Y-18072738D02*
X-963857Y-18053690D01*
X-954333Y-18044167D01*
X-935286Y-18034643D01*
X-916238Y-18034643D01*
X-849571Y-18167976D02*
X-849571Y-18034643D01*
X-849571Y-17967976D02*
X-859095Y-17977500D01*
X-849571Y-17987024D01*
X-840048Y-17977500D01*
X-849571Y-17967976D01*
X-849571Y-17987024D01*
X-725762Y-18167976D02*
X-744809Y-18158452D01*
X-754333Y-18139405D01*
X-754333Y-17967976D01*
X-621000Y-18167976D02*
X-640048Y-18158452D01*
X-649571Y-18139405D01*
X-649571Y-17967976D01*
X-392428Y-18167976D02*
X-392428Y-17967976D01*
X-325762Y-18110833D01*
X-259095Y-17967976D01*
X-259095Y-18167976D01*
X-78143Y-18167976D02*
X-78143Y-18063214D01*
X-87667Y-18044167D01*
X-106714Y-18034643D01*
X-144810Y-18034643D01*
X-163857Y-18044167D01*
X-78143Y-18158452D02*
X-97190Y-18167976D01*
X-144810Y-18167976D01*
X-163857Y-18158452D01*
X-173381Y-18139405D01*
X-173381Y-18120357D01*
X-163857Y-18101310D01*
X-144810Y-18091786D01*
X-97190Y-18091786D01*
X-78143Y-18082262D01*
X17095Y-18034643D02*
X17095Y-18234643D01*
X17095Y-18044167D02*
X36143Y-18034643D01*
X74238Y-18034643D01*
X93286Y-18044167D01*
X102809Y-18053690D01*
X112333Y-18072738D01*
X112333Y-18129881D01*
X102809Y-18148929D01*
X93286Y-18158452D01*
X74238Y-18167976D01*
X36143Y-18167976D01*
X17095Y-18158452D01*
X198048Y-18148929D02*
X207571Y-18158452D01*
X198048Y-18167976D01*
X188524Y-18158452D01*
X198048Y-18148929D01*
X198048Y-18167976D01*
X198048Y-18044167D02*
X207571Y-18053690D01*
X198048Y-18063214D01*
X188524Y-18053690D01*
X198048Y-18044167D01*
X198048Y-18063214D01*
D12*
X-1571000Y-18427500D02*
X-1431000Y-18567500D01*
X-1431000Y-18427500D02*
X-1571000Y-18567500D01*
D11*
X-1068619Y-18587976D02*
X-1182905Y-18587976D01*
X-1125762Y-18587976D02*
X-1125762Y-18387976D01*
X-1144810Y-18416548D01*
X-1163857Y-18435595D01*
X-1182905Y-18445119D01*
X-982905Y-18568929D02*
X-973381Y-18578452D01*
X-982905Y-18587976D01*
X-992428Y-18578452D01*
X-982905Y-18568929D01*
X-982905Y-18587976D01*
X-801952Y-18454643D02*
X-801952Y-18587976D01*
X-849571Y-18378452D02*
X-897190Y-18521310D01*
X-773381Y-18521310D01*
X-659095Y-18387976D02*
X-640048Y-18387976D01*
X-621000Y-18397500D01*
X-611476Y-18407024D01*
X-601952Y-18426071D01*
X-592429Y-18464167D01*
X-592429Y-18511786D01*
X-601952Y-18549881D01*
X-611476Y-18568929D01*
X-621000Y-18578452D01*
X-640048Y-18587976D01*
X-659095Y-18587976D01*
X-678143Y-18578452D01*
X-687667Y-18568929D01*
X-697190Y-18549881D01*
X-706714Y-18511786D01*
X-706714Y-18464167D01*
X-697190Y-18426071D01*
X-687667Y-18407024D01*
X-678143Y-18397500D01*
X-659095Y-18387976D01*
X-468619Y-18387976D02*
X-449571Y-18387976D01*
X-430524Y-18397500D01*
X-421000Y-18407024D01*
X-411476Y-18426071D01*
X-401952Y-18464167D01*
X-401952Y-18511786D01*
X-411476Y-18549881D01*
X-421000Y-18568929D01*
X-430524Y-18578452D01*
X-449571Y-18587976D01*
X-468619Y-18587976D01*
X-487667Y-18578452D01*
X-497190Y-18568929D01*
X-506714Y-18549881D01*
X-516238Y-18511786D01*
X-516238Y-18464167D01*
X-506714Y-18426071D01*
X-497190Y-18407024D01*
X-487667Y-18397500D01*
X-468619Y-18387976D01*
X-316238Y-18587976D02*
X-316238Y-18454643D01*
X-316238Y-18473690D02*
X-306714Y-18464167D01*
X-287667Y-18454643D01*
X-259095Y-18454643D01*
X-240048Y-18464167D01*
X-230524Y-18483214D01*
X-230524Y-18587976D01*
X-230524Y-18483214D02*
X-221000Y-18464167D01*
X-201952Y-18454643D01*
X-173381Y-18454643D01*
X-154333Y-18464167D01*
X-144810Y-18483214D01*
X-144810Y-18587976D01*
X-49571Y-18587976D02*
X-49571Y-18454643D01*
X-49571Y-18473690D02*
X-40048Y-18464167D01*
X-21000Y-18454643D01*
X7571Y-18454643D01*
X26619Y-18464167D01*
X36143Y-18483214D01*
X36143Y-18587976D01*
X36143Y-18483214D02*
X45667Y-18464167D01*
X64714Y-18454643D01*
X93286Y-18454643D01*
X112333Y-18464167D01*
X121857Y-18483214D01*
X121857Y-18587976D01*
X512333Y-18378452D02*
X340905Y-18635595D01*
X769476Y-18387976D02*
X788524Y-18387976D01*
X807571Y-18397500D01*
X817095Y-18407024D01*
X826619Y-18426071D01*
X836143Y-18464167D01*
X836143Y-18511786D01*
X826619Y-18549881D01*
X817095Y-18568929D01*
X807571Y-18578452D01*
X788524Y-18587976D01*
X769476Y-18587976D01*
X750428Y-18578452D01*
X740905Y-18568929D01*
X731381Y-18549881D01*
X721857Y-18511786D01*
X721857Y-18464167D01*
X731381Y-18426071D01*
X740905Y-18407024D01*
X750428Y-18397500D01*
X769476Y-18387976D01*
X921857Y-18568929D02*
X931381Y-18578452D01*
X921857Y-18587976D01*
X912333Y-18578452D01*
X921857Y-18568929D01*
X921857Y-18587976D01*
X1055190Y-18387976D02*
X1074238Y-18387976D01*
X1093286Y-18397500D01*
X1102810Y-18407024D01*
X1112333Y-18426071D01*
X1121857Y-18464167D01*
X1121857Y-18511786D01*
X1112333Y-18549881D01*
X1102810Y-18568929D01*
X1093286Y-18578452D01*
X1074238Y-18587976D01*
X1055190Y-18587976D01*
X1036143Y-18578452D01*
X1026619Y-18568929D01*
X1017095Y-18549881D01*
X1007571Y-18511786D01*
X1007571Y-18464167D01*
X1017095Y-18426071D01*
X1026619Y-18407024D01*
X1036143Y-18397500D01*
X1055190Y-18387976D01*
X1302810Y-18387976D02*
X1207571Y-18387976D01*
X1198048Y-18483214D01*
X1207571Y-18473690D01*
X1226619Y-18464167D01*
X1274238Y-18464167D01*
X1293286Y-18473690D01*
X1302810Y-18483214D01*
X1312333Y-18502262D01*
X1312333Y-18549881D01*
X1302810Y-18568929D01*
X1293286Y-18578452D01*
X1274238Y-18587976D01*
X1226619Y-18587976D01*
X1207571Y-18578452D01*
X1198048Y-18568929D01*
X1493286Y-18387976D02*
X1398048Y-18387976D01*
X1388524Y-18483214D01*
X1398048Y-18473690D01*
X1417095Y-18464167D01*
X1464714Y-18464167D01*
X1483762Y-18473690D01*
X1493286Y-18483214D01*
X1502809Y-18502262D01*
X1502809Y-18549881D01*
X1493286Y-18568929D01*
X1483762Y-18578452D01*
X1464714Y-18587976D01*
X1417095Y-18587976D01*
X1398048Y-18578452D01*
X1388524Y-18568929D01*
X1693286Y-18587976D02*
X1579000Y-18587976D01*
X1636143Y-18587976D02*
X1636143Y-18387976D01*
X1617095Y-18416548D01*
X1598048Y-18435595D01*
X1579000Y-18445119D01*
X1769476Y-18387976D02*
X1769476Y-18426071D01*
X1845667Y-18387976D02*
X1845667Y-18426071D01*
X2140905Y-18664167D02*
X2131381Y-18654643D01*
X2112333Y-18626071D01*
X2102810Y-18607024D01*
X2093286Y-18578452D01*
X2083762Y-18530833D01*
X2083762Y-18492738D01*
X2093286Y-18445119D01*
X2102810Y-18416548D01*
X2112333Y-18397500D01*
X2131381Y-18368929D01*
X2140905Y-18359405D01*
X2255190Y-18387976D02*
X2274238Y-18387976D01*
X2293286Y-18397500D01*
X2302810Y-18407024D01*
X2312333Y-18426071D01*
X2321857Y-18464167D01*
X2321857Y-18511786D01*
X2312333Y-18549881D01*
X2302810Y-18568929D01*
X2293286Y-18578452D01*
X2274238Y-18587976D01*
X2255190Y-18587976D01*
X2236143Y-18578452D01*
X2226619Y-18568929D01*
X2217095Y-18549881D01*
X2207571Y-18511786D01*
X2207571Y-18464167D01*
X2217095Y-18426071D01*
X2226619Y-18407024D01*
X2236143Y-18397500D01*
X2255190Y-18387976D01*
X2559952Y-18587976D02*
X2559952Y-18387976D01*
X2645667Y-18587976D02*
X2645667Y-18483214D01*
X2636143Y-18464167D01*
X2617095Y-18454643D01*
X2588524Y-18454643D01*
X2569476Y-18464167D01*
X2559952Y-18473690D01*
X2769476Y-18587976D02*
X2750429Y-18578452D01*
X2740905Y-18568929D01*
X2731381Y-18549881D01*
X2731381Y-18492738D01*
X2740905Y-18473690D01*
X2750429Y-18464167D01*
X2769476Y-18454643D01*
X2798048Y-18454643D01*
X2817095Y-18464167D01*
X2826619Y-18473690D01*
X2836143Y-18492738D01*
X2836143Y-18549881D01*
X2826619Y-18568929D01*
X2817095Y-18578452D01*
X2798048Y-18587976D01*
X2769476Y-18587976D01*
X2950428Y-18587976D02*
X2931381Y-18578452D01*
X2921857Y-18559405D01*
X2921857Y-18387976D01*
X3102809Y-18578452D02*
X3083762Y-18587976D01*
X3045667Y-18587976D01*
X3026619Y-18578452D01*
X3017095Y-18559405D01*
X3017095Y-18483214D01*
X3026619Y-18464167D01*
X3045667Y-18454643D01*
X3083762Y-18454643D01*
X3102809Y-18464167D01*
X3112333Y-18483214D01*
X3112333Y-18502262D01*
X3017095Y-18521310D01*
X3188524Y-18578452D02*
X3207571Y-18587976D01*
X3245667Y-18587976D01*
X3264714Y-18578452D01*
X3274238Y-18559405D01*
X3274238Y-18549881D01*
X3264714Y-18530833D01*
X3245667Y-18521310D01*
X3217095Y-18521310D01*
X3198048Y-18511786D01*
X3188524Y-18492738D01*
X3188524Y-18483214D01*
X3198048Y-18464167D01*
X3217095Y-18454643D01*
X3245667Y-18454643D01*
X3264714Y-18464167D01*
X3512333Y-18511786D02*
X3664714Y-18511786D01*
X3588524Y-18587976D02*
X3588524Y-18435595D01*
X4017095Y-18587976D02*
X3902809Y-18587976D01*
X3959952Y-18587976D02*
X3959952Y-18387976D01*
X3940905Y-18416548D01*
X3921857Y-18435595D01*
X3902809Y-18445119D01*
X4188524Y-18454643D02*
X4188524Y-18587976D01*
X4140905Y-18378452D02*
X4093286Y-18521310D01*
X4217095Y-18521310D01*
X4379000Y-18454643D02*
X4379000Y-18587976D01*
X4331381Y-18378452D02*
X4283762Y-18521310D01*
X4407571Y-18521310D01*
X4626619Y-18578452D02*
X4645667Y-18587976D01*
X4683762Y-18587976D01*
X4702810Y-18578452D01*
X4712333Y-18559405D01*
X4712333Y-18549881D01*
X4702810Y-18530833D01*
X4683762Y-18521310D01*
X4655190Y-18521310D01*
X4636143Y-18511786D01*
X4626619Y-18492738D01*
X4626619Y-18483214D01*
X4636143Y-18464167D01*
X4655190Y-18454643D01*
X4683762Y-18454643D01*
X4702810Y-18464167D01*
X4826619Y-18587976D02*
X4807571Y-18578452D01*
X4798048Y-18559405D01*
X4798048Y-18387976D01*
X4931381Y-18587976D02*
X4912333Y-18578452D01*
X4902810Y-18568929D01*
X4893286Y-18549881D01*
X4893286Y-18492738D01*
X4902810Y-18473690D01*
X4912333Y-18464167D01*
X4931381Y-18454643D01*
X4959952Y-18454643D01*
X4979000Y-18464167D01*
X4988524Y-18473690D01*
X4998048Y-18492738D01*
X4998048Y-18549881D01*
X4988524Y-18568929D01*
X4979000Y-18578452D01*
X4959952Y-18587976D01*
X4931381Y-18587976D01*
X5055190Y-18454643D02*
X5131381Y-18454643D01*
X5083762Y-18387976D02*
X5083762Y-18559405D01*
X5093286Y-18578452D01*
X5112333Y-18587976D01*
X5131381Y-18587976D01*
X5188524Y-18578452D02*
X5207571Y-18587976D01*
X5245667Y-18587976D01*
X5264714Y-18578452D01*
X5274238Y-18559405D01*
X5274238Y-18549881D01*
X5264714Y-18530833D01*
X5245667Y-18521310D01*
X5217095Y-18521310D01*
X5198048Y-18511786D01*
X5188524Y-18492738D01*
X5188524Y-18483214D01*
X5198048Y-18464167D01*
X5217095Y-18454643D01*
X5245667Y-18454643D01*
X5264714Y-18464167D01*
X5340905Y-18664167D02*
X5350429Y-18654643D01*
X5369476Y-18626071D01*
X5379000Y-18607024D01*
X5388524Y-18578452D01*
X5398048Y-18530833D01*
X5398048Y-18492738D01*
X5388524Y-18445119D01*
X5379000Y-18416548D01*
X5369476Y-18397500D01*
X5350429Y-18368929D01*
X5340905Y-18359405D01*
X5702809Y-18664167D02*
X5693286Y-18654643D01*
X5674238Y-18626071D01*
X5664714Y-18607024D01*
X5655190Y-18578452D01*
X5645667Y-18530833D01*
X5645667Y-18492738D01*
X5655190Y-18445119D01*
X5664714Y-18416548D01*
X5674238Y-18397500D01*
X5693286Y-18368929D01*
X5702809Y-18359405D01*
X5779000Y-18454643D02*
X5779000Y-18587976D01*
X5779000Y-18473690D02*
X5788524Y-18464167D01*
X5807571Y-18454643D01*
X5836143Y-18454643D01*
X5855190Y-18464167D01*
X5864714Y-18483214D01*
X5864714Y-18587976D01*
X5988524Y-18587976D02*
X5969476Y-18578452D01*
X5959952Y-18568929D01*
X5950428Y-18549881D01*
X5950428Y-18492738D01*
X5959952Y-18473690D01*
X5969476Y-18464167D01*
X5988524Y-18454643D01*
X6017095Y-18454643D01*
X6036143Y-18464167D01*
X6045667Y-18473690D01*
X6055190Y-18492738D01*
X6055190Y-18549881D01*
X6045667Y-18568929D01*
X6036143Y-18578452D01*
X6017095Y-18587976D01*
X5988524Y-18587976D01*
X6112333Y-18454643D02*
X6188524Y-18454643D01*
X6140905Y-18387976D02*
X6140905Y-18559405D01*
X6150428Y-18578452D01*
X6169476Y-18587976D01*
X6188524Y-18587976D01*
X6407571Y-18454643D02*
X6407571Y-18654643D01*
X6407571Y-18464167D02*
X6426619Y-18454643D01*
X6464714Y-18454643D01*
X6483762Y-18464167D01*
X6493286Y-18473690D01*
X6502809Y-18492738D01*
X6502809Y-18549881D01*
X6493286Y-18568929D01*
X6483762Y-18578452D01*
X6464714Y-18587976D01*
X6426619Y-18587976D01*
X6407571Y-18578452D01*
X6617095Y-18587976D02*
X6598048Y-18578452D01*
X6588524Y-18559405D01*
X6588524Y-18387976D01*
X6779000Y-18587976D02*
X6779000Y-18483214D01*
X6769476Y-18464167D01*
X6750428Y-18454643D01*
X6712333Y-18454643D01*
X6693286Y-18464167D01*
X6779000Y-18578452D02*
X6759952Y-18587976D01*
X6712333Y-18587976D01*
X6693286Y-18578452D01*
X6683762Y-18559405D01*
X6683762Y-18540357D01*
X6693286Y-18521310D01*
X6712333Y-18511786D01*
X6759952Y-18511786D01*
X6779000Y-18502262D01*
X6845667Y-18454643D02*
X6921857Y-18454643D01*
X6874238Y-18387976D02*
X6874238Y-18559405D01*
X6883762Y-18578452D01*
X6902809Y-18587976D01*
X6921857Y-18587976D01*
X7064714Y-18578452D02*
X7045667Y-18587976D01*
X7007571Y-18587976D01*
X6988524Y-18578452D01*
X6979000Y-18559405D01*
X6979000Y-18483214D01*
X6988524Y-18464167D01*
X7007571Y-18454643D01*
X7045667Y-18454643D01*
X7064714Y-18464167D01*
X7074238Y-18483214D01*
X7074238Y-18502262D01*
X6979000Y-18521310D01*
X7245667Y-18587976D02*
X7245667Y-18387976D01*
X7245667Y-18578452D02*
X7226619Y-18587976D01*
X7188524Y-18587976D01*
X7169476Y-18578452D01*
X7159952Y-18568929D01*
X7150428Y-18549881D01*
X7150428Y-18492738D01*
X7159952Y-18473690D01*
X7169476Y-18464167D01*
X7188524Y-18454643D01*
X7226619Y-18454643D01*
X7245667Y-18464167D01*
X7321857Y-18664167D02*
X7331381Y-18654643D01*
X7350428Y-18626071D01*
X7359952Y-18607024D01*
X7369476Y-18578452D01*
X7379000Y-18530833D01*
X7379000Y-18492738D01*
X7369476Y-18445119D01*
X7359952Y-18416548D01*
X7350428Y-18397500D01*
X7331381Y-18368929D01*
X7321857Y-18359405D01*
X-1431000Y-18761500D02*
G75*
G03*
X-1431000Y-18761500I-100000J0D01*
G01*
X-1192429Y-18651976D02*
X-1068619Y-18651976D01*
X-1135286Y-18728167D01*
X-1106714Y-18728167D01*
X-1087667Y-18737690D01*
X-1078143Y-18747214D01*
X-1068619Y-18766262D01*
X-1068619Y-18813881D01*
X-1078143Y-18832929D01*
X-1087667Y-18842452D01*
X-1106714Y-18851976D01*
X-1163857Y-18851976D01*
X-1182905Y-18842452D01*
X-1192429Y-18832929D01*
X-982905Y-18832929D02*
X-973381Y-18842452D01*
X-982905Y-18851976D01*
X-992428Y-18842452D01*
X-982905Y-18832929D01*
X-982905Y-18851976D01*
X-906714Y-18651976D02*
X-782905Y-18651976D01*
X-849571Y-18728167D01*
X-821000Y-18728167D01*
X-801952Y-18737690D01*
X-792428Y-18747214D01*
X-782905Y-18766262D01*
X-782905Y-18813881D01*
X-792428Y-18832929D01*
X-801952Y-18842452D01*
X-821000Y-18851976D01*
X-878143Y-18851976D01*
X-897190Y-18842452D01*
X-906714Y-18832929D01*
X-659095Y-18651976D02*
X-640048Y-18651976D01*
X-621000Y-18661500D01*
X-611476Y-18671024D01*
X-601952Y-18690071D01*
X-592429Y-18728167D01*
X-592429Y-18775786D01*
X-601952Y-18813881D01*
X-611476Y-18832929D01*
X-621000Y-18842452D01*
X-640048Y-18851976D01*
X-659095Y-18851976D01*
X-678143Y-18842452D01*
X-687667Y-18832929D01*
X-697190Y-18813881D01*
X-706714Y-18775786D01*
X-706714Y-18728167D01*
X-697190Y-18690071D01*
X-687667Y-18671024D01*
X-678143Y-18661500D01*
X-659095Y-18651976D01*
X-468619Y-18651976D02*
X-449571Y-18651976D01*
X-430524Y-18661500D01*
X-421000Y-18671024D01*
X-411476Y-18690071D01*
X-401952Y-18728167D01*
X-401952Y-18775786D01*
X-411476Y-18813881D01*
X-421000Y-18832929D01*
X-430524Y-18842452D01*
X-449571Y-18851976D01*
X-468619Y-18851976D01*
X-487667Y-18842452D01*
X-497190Y-18832929D01*
X-506714Y-18813881D01*
X-516238Y-18775786D01*
X-516238Y-18728167D01*
X-506714Y-18690071D01*
X-497190Y-18671024D01*
X-487667Y-18661500D01*
X-468619Y-18651976D01*
X-316238Y-18851976D02*
X-316238Y-18718643D01*
X-316238Y-18737690D02*
X-306714Y-18728167D01*
X-287667Y-18718643D01*
X-259095Y-18718643D01*
X-240048Y-18728167D01*
X-230524Y-18747214D01*
X-230524Y-18851976D01*
X-230524Y-18747214D02*
X-221000Y-18728167D01*
X-201952Y-18718643D01*
X-173381Y-18718643D01*
X-154333Y-18728167D01*
X-144810Y-18747214D01*
X-144810Y-18851976D01*
X-49571Y-18851976D02*
X-49571Y-18718643D01*
X-49571Y-18737690D02*
X-40048Y-18728167D01*
X-21000Y-18718643D01*
X7571Y-18718643D01*
X26619Y-18728167D01*
X36143Y-18747214D01*
X36143Y-18851976D01*
X36143Y-18747214D02*
X45667Y-18728167D01*
X64714Y-18718643D01*
X93286Y-18718643D01*
X112333Y-18728167D01*
X121857Y-18747214D01*
X121857Y-18851976D01*
X512333Y-18642452D02*
X340905Y-18899595D01*
X769476Y-18651976D02*
X788524Y-18651976D01*
X807571Y-18661500D01*
X817095Y-18671024D01*
X826619Y-18690071D01*
X836143Y-18728167D01*
X836143Y-18775786D01*
X826619Y-18813881D01*
X817095Y-18832929D01*
X807571Y-18842452D01*
X788524Y-18851976D01*
X769476Y-18851976D01*
X750428Y-18842452D01*
X740905Y-18832929D01*
X731381Y-18813881D01*
X721857Y-18775786D01*
X721857Y-18728167D01*
X731381Y-18690071D01*
X740905Y-18671024D01*
X750428Y-18661500D01*
X769476Y-18651976D01*
X921857Y-18832929D02*
X931381Y-18842452D01*
X921857Y-18851976D01*
X912333Y-18842452D01*
X921857Y-18832929D01*
X921857Y-18851976D01*
X1121857Y-18851976D02*
X1007571Y-18851976D01*
X1064714Y-18851976D02*
X1064714Y-18651976D01*
X1045667Y-18680548D01*
X1026619Y-18699595D01*
X1007571Y-18709119D01*
X1198048Y-18671024D02*
X1207571Y-18661500D01*
X1226619Y-18651976D01*
X1274238Y-18651976D01*
X1293286Y-18661500D01*
X1302810Y-18671024D01*
X1312333Y-18690071D01*
X1312333Y-18709119D01*
X1302810Y-18737690D01*
X1188524Y-18851976D01*
X1312333Y-18851976D01*
X1407571Y-18851976D02*
X1445667Y-18851976D01*
X1464714Y-18842452D01*
X1474238Y-18832929D01*
X1493286Y-18804357D01*
X1502809Y-18766262D01*
X1502809Y-18690071D01*
X1493286Y-18671024D01*
X1483762Y-18661500D01*
X1464714Y-18651976D01*
X1426619Y-18651976D01*
X1407571Y-18661500D01*
X1398048Y-18671024D01*
X1388524Y-18690071D01*
X1388524Y-18737690D01*
X1398048Y-18756738D01*
X1407571Y-18766262D01*
X1426619Y-18775786D01*
X1464714Y-18775786D01*
X1483762Y-18766262D01*
X1493286Y-18756738D01*
X1502809Y-18737690D01*
X1598048Y-18851976D02*
X1636143Y-18851976D01*
X1655190Y-18842452D01*
X1664714Y-18832929D01*
X1683762Y-18804357D01*
X1693286Y-18766262D01*
X1693286Y-18690071D01*
X1683762Y-18671024D01*
X1674238Y-18661500D01*
X1655190Y-18651976D01*
X1617095Y-18651976D01*
X1598048Y-18661500D01*
X1588524Y-18671024D01*
X1579000Y-18690071D01*
X1579000Y-18737690D01*
X1588524Y-18756738D01*
X1598048Y-18766262D01*
X1617095Y-18775786D01*
X1655190Y-18775786D01*
X1674238Y-18766262D01*
X1683762Y-18756738D01*
X1693286Y-18737690D01*
X1769476Y-18651976D02*
X1769476Y-18690071D01*
X1845667Y-18651976D02*
X1845667Y-18690071D01*
X2140905Y-18928167D02*
X2131381Y-18918643D01*
X2112333Y-18890071D01*
X2102810Y-18871024D01*
X2093286Y-18842452D01*
X2083762Y-18794833D01*
X2083762Y-18756738D01*
X2093286Y-18709119D01*
X2102810Y-18680548D01*
X2112333Y-18661500D01*
X2131381Y-18632929D01*
X2140905Y-18623405D01*
X2198048Y-18651976D02*
X2331381Y-18651976D01*
X2245667Y-18851976D01*
X2398048Y-18671024D02*
X2407571Y-18661500D01*
X2426619Y-18651976D01*
X2474238Y-18651976D01*
X2493286Y-18661500D01*
X2502810Y-18671024D01*
X2512333Y-18690071D01*
X2512333Y-18709119D01*
X2502810Y-18737690D01*
X2388524Y-18851976D01*
X2512333Y-18851976D01*
X2750429Y-18851976D02*
X2750429Y-18651976D01*
X2836143Y-18851976D02*
X2836143Y-18747214D01*
X2826619Y-18728167D01*
X2807571Y-18718643D01*
X2779000Y-18718643D01*
X2759952Y-18728167D01*
X2750429Y-18737690D01*
X2959952Y-18851976D02*
X2940905Y-18842452D01*
X2931381Y-18832929D01*
X2921857Y-18813881D01*
X2921857Y-18756738D01*
X2931381Y-18737690D01*
X2940905Y-18728167D01*
X2959952Y-18718643D01*
X2988524Y-18718643D01*
X3007571Y-18728167D01*
X3017095Y-18737690D01*
X3026619Y-18756738D01*
X3026619Y-18813881D01*
X3017095Y-18832929D01*
X3007571Y-18842452D01*
X2988524Y-18851976D01*
X2959952Y-18851976D01*
X3140905Y-18851976D02*
X3121857Y-18842452D01*
X3112333Y-18823405D01*
X3112333Y-18651976D01*
X3293286Y-18842452D02*
X3274238Y-18851976D01*
X3236143Y-18851976D01*
X3217095Y-18842452D01*
X3207571Y-18823405D01*
X3207571Y-18747214D01*
X3217095Y-18728167D01*
X3236143Y-18718643D01*
X3274238Y-18718643D01*
X3293286Y-18728167D01*
X3302809Y-18747214D01*
X3302809Y-18766262D01*
X3207571Y-18785310D01*
X3379000Y-18842452D02*
X3398048Y-18851976D01*
X3436143Y-18851976D01*
X3455190Y-18842452D01*
X3464714Y-18823405D01*
X3464714Y-18813881D01*
X3455190Y-18794833D01*
X3436143Y-18785310D01*
X3407571Y-18785310D01*
X3388524Y-18775786D01*
X3379000Y-18756738D01*
X3379000Y-18747214D01*
X3388524Y-18728167D01*
X3407571Y-18718643D01*
X3436143Y-18718643D01*
X3455190Y-18728167D01*
X3531381Y-18928167D02*
X3540905Y-18918643D01*
X3559952Y-18890071D01*
X3569476Y-18871024D01*
X3579000Y-18842452D01*
X3588524Y-18794833D01*
X3588524Y-18756738D01*
X3579000Y-18709119D01*
X3569476Y-18680548D01*
X3559952Y-18661500D01*
X3540905Y-18632929D01*
X3531381Y-18623405D01*
X3893286Y-18928167D02*
X3883762Y-18918643D01*
X3864714Y-18890071D01*
X3855190Y-18871024D01*
X3845667Y-18842452D01*
X3836143Y-18794833D01*
X3836143Y-18756738D01*
X3845667Y-18709119D01*
X3855190Y-18680548D01*
X3864714Y-18661500D01*
X3883762Y-18632929D01*
X3893286Y-18623405D01*
X3969476Y-18718643D02*
X3969476Y-18851976D01*
X3969476Y-18737690D02*
X3979000Y-18728167D01*
X3998048Y-18718643D01*
X4026619Y-18718643D01*
X4045667Y-18728167D01*
X4055190Y-18747214D01*
X4055190Y-18851976D01*
X4179000Y-18851976D02*
X4159952Y-18842452D01*
X4150428Y-18832929D01*
X4140905Y-18813881D01*
X4140905Y-18756738D01*
X4150428Y-18737690D01*
X4159952Y-18728167D01*
X4179000Y-18718643D01*
X4207571Y-18718643D01*
X4226619Y-18728167D01*
X4236143Y-18737690D01*
X4245667Y-18756738D01*
X4245667Y-18813881D01*
X4236143Y-18832929D01*
X4226619Y-18842452D01*
X4207571Y-18851976D01*
X4179000Y-18851976D01*
X4302810Y-18718643D02*
X4379000Y-18718643D01*
X4331381Y-18651976D02*
X4331381Y-18823405D01*
X4340905Y-18842452D01*
X4359952Y-18851976D01*
X4379000Y-18851976D01*
X4598048Y-18718643D02*
X4598048Y-18918643D01*
X4598048Y-18728167D02*
X4617095Y-18718643D01*
X4655190Y-18718643D01*
X4674238Y-18728167D01*
X4683762Y-18737690D01*
X4693286Y-18756738D01*
X4693286Y-18813881D01*
X4683762Y-18832929D01*
X4674238Y-18842452D01*
X4655190Y-18851976D01*
X4617095Y-18851976D01*
X4598048Y-18842452D01*
X4807571Y-18851976D02*
X4788524Y-18842452D01*
X4779000Y-18823405D01*
X4779000Y-18651976D01*
X4969476Y-18851976D02*
X4969476Y-18747214D01*
X4959952Y-18728167D01*
X4940905Y-18718643D01*
X4902810Y-18718643D01*
X4883762Y-18728167D01*
X4969476Y-18842452D02*
X4950429Y-18851976D01*
X4902810Y-18851976D01*
X4883762Y-18842452D01*
X4874238Y-18823405D01*
X4874238Y-18804357D01*
X4883762Y-18785310D01*
X4902810Y-18775786D01*
X4950429Y-18775786D01*
X4969476Y-18766262D01*
X5036143Y-18718643D02*
X5112333Y-18718643D01*
X5064714Y-18651976D02*
X5064714Y-18823405D01*
X5074238Y-18842452D01*
X5093286Y-18851976D01*
X5112333Y-18851976D01*
X5255190Y-18842452D02*
X5236143Y-18851976D01*
X5198048Y-18851976D01*
X5179000Y-18842452D01*
X5169476Y-18823405D01*
X5169476Y-18747214D01*
X5179000Y-18728167D01*
X5198048Y-18718643D01*
X5236143Y-18718643D01*
X5255190Y-18728167D01*
X5264714Y-18747214D01*
X5264714Y-18766262D01*
X5169476Y-18785310D01*
X5436143Y-18851976D02*
X5436143Y-18651976D01*
X5436143Y-18842452D02*
X5417095Y-18851976D01*
X5379000Y-18851976D01*
X5359952Y-18842452D01*
X5350429Y-18832929D01*
X5340905Y-18813881D01*
X5340905Y-18756738D01*
X5350429Y-18737690D01*
X5359952Y-18728167D01*
X5379000Y-18718643D01*
X5417095Y-18718643D01*
X5436143Y-18728167D01*
X5512333Y-18928167D02*
X5521857Y-18918643D01*
X5540905Y-18890071D01*
X5550429Y-18871024D01*
X5559952Y-18842452D01*
X5569476Y-18794833D01*
X5569476Y-18756738D01*
X5559952Y-18709119D01*
X5550429Y-18680548D01*
X5540905Y-18661500D01*
X5521857Y-18632929D01*
X5512333Y-18623405D01*
M02*
