G04 #@! TF.GenerationSoftware,KiCad,Pcbnew,(6.0.7-1)-1*
G04 #@! TF.CreationDate,2022-10-27T21:15:07+02:00*
G04 #@! TF.ProjectId,pcb,7063622e-6b69-4636-9164-5f7063625858,rev?*
G04 #@! TF.SameCoordinates,Original*
G04 #@! TF.FileFunction,Profile,NP*
%FSLAX46Y46*%
G04 Gerber Fmt 4.6, Leading zero omitted, Abs format (unit mm)*
G04 Created by KiCad (PCBNEW (6.0.7-1)-1) date 2022-10-27 21:15:07*
%MOMM*%
%LPD*%
G01*
G04 APERTURE LIST*
G04 #@! TA.AperFunction,Profile*
%ADD10C,0.100000*%
G04 #@! TD*
G04 #@! TA.AperFunction,Profile*
%ADD11C,0.120000*%
G04 #@! TD*
G04 APERTURE END LIST*
D10*
X278750000Y-132525000D02*
G75*
G03*
X270750000Y-124525000I-8000000J0D01*
G01*
X4750000Y-124525000D02*
G75*
G03*
X-3250000Y-132525000I0J-8000000D01*
G01*
X270750000Y-167525000D02*
G75*
G03*
X278750000Y-159525000I0J8000000D01*
G01*
X211750000Y-86275000D02*
X211320000Y-86280000D01*
X-14250000Y-121525000D02*
X-14260000Y-170360000D01*
X38750000Y-99525000D02*
G75*
G03*
X38750000Y-99525000I-9000000J0D01*
G01*
X-6250000Y-113525000D02*
X-4250000Y-113525000D01*
X270750000Y-124525000D02*
X220750000Y-124525000D01*
X83592850Y-88897706D02*
X78466702Y-88115478D01*
X73750000Y-121525000D02*
X73750000Y-170525000D01*
X65513975Y-86525083D02*
X78466702Y-88115478D01*
X62750000Y-132525000D02*
X62750000Y-159525000D01*
X65750000Y-178525000D02*
G75*
G03*
X73750000Y-170525000I0J8000000D01*
G01*
X175348140Y-99789928D02*
X160735358Y-107559682D01*
X254750000Y-99525000D02*
G75*
G03*
X254750000Y-99525000I-9000000J0D01*
G01*
X219750000Y-105525000D02*
X219750000Y-94275000D01*
X65750000Y-113525000D02*
X63750000Y-113525000D01*
X99324867Y-97085069D02*
G75*
G03*
X100151859Y-99789928I1765933J-938931D01*
G01*
X212750000Y-159525000D02*
G75*
G03*
X220750000Y-167525000I8000000J0D01*
G01*
X62750000Y-132525000D02*
G75*
G03*
X54750000Y-124525000I-8000000J0D01*
G01*
X278750000Y-132525000D02*
X278750000Y-159525000D01*
X-14250000Y-170525000D02*
G75*
G03*
X-6250000Y-178525000I8000001J1D01*
G01*
X220750000Y-124525000D02*
G75*
G03*
X212750000Y-132525000I0J-8000000D01*
G01*
X99942452Y-95956040D02*
X99324907Y-97085090D01*
X-14250000Y-170525000D02*
X-14260000Y-170360000D01*
X295275000Y8275000D02*
X295275000Y-78275000D01*
X725000Y10275703D02*
X293000000Y10280000D01*
X289750000Y-121525000D02*
G75*
G03*
X281750000Y-113525000I-8000000J0D01*
G01*
X279750000Y-86275000D02*
G75*
G03*
X271750000Y-94275000I0J-8000000D01*
G01*
X271750000Y-105525000D02*
G75*
G03*
X279750000Y-113525000I8000000J0D01*
G01*
X289750000Y-121525000D02*
X289750000Y-170525000D01*
X725000Y10275703D02*
G75*
G03*
X-6710000Y5230000I0J-8000703D01*
G01*
X54750000Y-124525000D02*
X4750000Y-124525000D01*
X99942515Y-95956068D02*
G75*
G03*
X98666635Y-93220044I-1827115J813468D01*
G01*
X3750000Y-94275000D02*
G75*
G03*
X-250000Y-87346797I-8000001J-1D01*
G01*
X-3250000Y-159525000D02*
X-3250000Y-132525000D01*
X55750000Y-105525000D02*
G75*
G03*
X63750000Y-113525000I8000000J0D01*
G01*
X-6000000Y-28792893D02*
X-7280000Y-28790000D01*
X293275000Y10275000D02*
X293000000Y10280000D01*
X176380887Y-92668769D02*
X176380887Y-92668769D01*
X219750000Y-94275000D02*
G75*
G03*
X211750000Y-86275000I-8000000J0D01*
G01*
X281750000Y-178525000D02*
G75*
G03*
X289750000Y-170525000I0J8000000D01*
G01*
X-6250000Y-113525000D02*
G75*
G03*
X-14250000Y-121525000I1J-8000001D01*
G01*
X192283297Y-88115478D02*
X189165668Y-89002792D01*
X127000000Y-67500000D02*
X127000000Y-81500000D01*
X65750000Y-178525000D02*
X-6250000Y-178525000D01*
X-7280000Y-28790000D02*
X-7275000Y-78325000D01*
X175105071Y-95404767D02*
X176027231Y-96848463D01*
X-4250000Y-113525000D02*
G75*
G03*
X3750000Y-105525000I-1J8000001D01*
G01*
X207221117Y-86281344D02*
X211320000Y-86280000D01*
X117469480Y-106732730D02*
X127765578Y-87368586D01*
X158030507Y-106732737D02*
G75*
G03*
X160735358Y-107559682I1765893J938937D01*
G01*
X175348117Y-99789884D02*
G75*
G03*
X176027231Y-96848463I-938917J1765884D01*
G01*
X54750000Y-167525000D02*
X4750000Y-167525000D01*
X83592850Y-88897706D02*
X98666635Y-93220044D01*
X158030519Y-106732730D02*
X147734421Y-87368586D01*
X209750000Y-113525000D02*
G75*
G03*
X201750000Y-121525000I0J-8000000D01*
G01*
X176380887Y-92668769D02*
X189165668Y-89002792D01*
X212750000Y-159525000D02*
X212750000Y-132525000D01*
X147734387Y-87368604D02*
G75*
G03*
X145968526Y-86307529I-1765887J-938896D01*
G01*
X63750000Y-86275000D02*
G75*
G03*
X55750000Y-94275000I0J-8000000D01*
G01*
X279750000Y-86275000D02*
X287275000Y-86275000D01*
X73750000Y-121525000D02*
G75*
G03*
X65750000Y-113525000I-8000000J0D01*
G01*
X295275000Y8275000D02*
G75*
G03*
X293275000Y10275000I-2000000J0D01*
G01*
X271750000Y-105525000D02*
X271750000Y-94275000D01*
X3750000Y-105525000D02*
X3750000Y-94275000D01*
X129531473Y-86307490D02*
G75*
G03*
X127765578Y-87368586I27J-2000010D01*
G01*
X-7275000Y-78325000D02*
G75*
G03*
X-4931854Y-83981854I8000000J0D01*
G01*
X-6000000Y5250000D02*
X-6710000Y5230000D01*
X201750000Y-170525000D02*
G75*
G03*
X209750000Y-178525000I8000000J0D01*
G01*
X55750000Y-105525000D02*
X55750000Y-94275000D01*
X54750000Y-167525000D02*
G75*
G03*
X62750000Y-159525000I0J8000000D01*
G01*
X209750000Y-113525000D02*
X211750000Y-113525000D01*
X-250000Y-87346797D02*
X-4931854Y-83981854D01*
X192283297Y-88115478D02*
X207221117Y-86281344D01*
X270750000Y-167525000D02*
X220750000Y-167525000D01*
X211750000Y-113525000D02*
G75*
G03*
X219750000Y-105525000I0J8000000D01*
G01*
X201750000Y-170525000D02*
X201750000Y-121525000D01*
X287275000Y-86275000D02*
G75*
G03*
X295275000Y-78275000I0J8000000D01*
G01*
X176380883Y-92668755D02*
G75*
G03*
X175105071Y-95404767I551317J-1922545D01*
G01*
X129531473Y-86307529D02*
X145968526Y-86307529D01*
X63750000Y-86275000D02*
X65513975Y-86525083D01*
X281750000Y-178525000D02*
X209750000Y-178525000D01*
X-3250000Y-159525000D02*
G75*
G03*
X4750000Y-167525000I8000000J0D01*
G01*
X281750000Y-113525000D02*
X279750000Y-113525000D01*
X114764648Y-107559668D02*
G75*
G03*
X117469479Y-106732730I938952J1765868D01*
G01*
X100151859Y-99789928D02*
X114764641Y-107559682D01*
D11*
X9000000Y5250000D02*
X-6000000Y5250000D01*
X-6000000Y-28792893D02*
X9000000Y-28792893D01*
X10000000Y-27792893D02*
X10000000Y4250000D01*
X10000000Y4250000D02*
G75*
G03*
X9000000Y5250000I-1000000J0D01*
G01*
X9000000Y-28792900D02*
G75*
G03*
X10000000Y-27792893I0J1000000D01*
G01*
X106000000Y-67500000D02*
X106000000Y-81500000D01*
X106500000Y-82000000D02*
X126500000Y-82000000D01*
X126500000Y-67000000D02*
X106500000Y-67000000D01*
X106000000Y-81500000D02*
G75*
G03*
X106500000Y-82000000I500001J1D01*
G01*
X126500000Y-82000000D02*
G75*
G03*
X127000000Y-81500000I0J500000D01*
G01*
X106500000Y-67000000D02*
G75*
G03*
X106000000Y-67500000I1J-500001D01*
G01*
X127000000Y-67500000D02*
G75*
G03*
X126500000Y-67000000I-500000J0D01*
G01*
M02*
