M48
; DRILL file {KiCad (6.0.7-1)-1} date Thursday, October 27, 2022 at 09:15:11 PM
; FORMAT={-:-/ absolute / metric / decimal}
; #@! TF.CreationDate,2022-10-27T21:15:11+02:00
; #@! TF.GenerationSoftware,Kicad,Pcbnew,(6.0.7-1)-1
; #@! TF.FileFunction,NonPlated,1,2,NPTH
FMAT,2
METRIC
; #@! TA.AperFunction,NonPlated,NPTH,ComponentDrill
T1C1.400
; #@! TA.AperFunction,NonPlated,NPTH,ComponentDrill
T2C3.300
%
G90
G05
T2
X9.5Y-57.0
X11.875Y-38.0
X11.875Y-76.0
X19.0Y0.0
X23.75Y-19.0
X33.25Y-38.0
X33.25Y-76.0
X35.625Y-57.0
X38.0Y0.0
X47.5Y-19.0
X52.25Y-38.0
X52.25Y-76.0
X57.0Y0.0
X61.75Y-57.0
X66.5Y-19.0
X71.25Y-38.0
X72.25Y-77.0
X76.0Y0.0
X80.75Y-57.0
X85.5Y-19.0
X90.25Y-38.0
X94.025Y-81.2
X95.0Y0.0
X99.75Y-57.0
X104.5Y-19.0
X109.25Y-38.0
X113.4Y-92.5
X114.0Y0.0
X118.75Y-57.0
X123.5Y-19.0
X128.25Y-38.0
X133.0Y0.0
X137.75Y-57.0
X137.75Y-76.0
X142.5Y-19.0
X147.25Y-38.0
X152.0Y0.0
X156.75Y-57.0
X161.5Y-19.0
X162.1Y-92.5
X166.25Y-38.0
X171.0Y0.0
X175.75Y-57.0
X179.1Y-81.2
X180.5Y-19.0
X185.25Y-38.0
X190.0Y0.0
X194.75Y-57.0
X198.5Y-77.0
X199.5Y-19.0
X204.25Y-38.0
X209.0Y0.0
X213.75Y-57.0
X218.5Y-19.0
X223.25Y-38.0
X223.25Y-76.0
X228.0Y0.0
X232.75Y-57.0
X237.5Y-19.0
X242.25Y-38.0
X242.25Y-76.0
X247.0Y0.0
X256.5Y-19.0
X258.875Y-57.0
X261.25Y-38.0
X261.25Y-76.0
X266.0Y0.0
X280.25Y-19.0
X280.25Y-76.0
X282.625Y-38.0
X285.0Y0.0
X285.0Y-57.0
T1
X7.45Y-50.2G85X11.55Y-50.2
G05
X7.45Y-63.8G85X11.55Y-63.8
G05
X9.825Y-31.2G85X13.925Y-31.2
G05
X9.825Y-44.8G85X13.925Y-44.8
G05
X9.825Y-69.2G85X13.925Y-69.2
G05
X9.825Y-82.8G85X13.925Y-82.8
G05
X16.95Y6.8G85X21.05Y6.8
G05
X16.95Y-6.8G85X21.05Y-6.8
G05
X21.7Y-12.2G85X25.8Y-12.2
G05
X21.7Y-25.8G85X25.8Y-25.8
G05
X31.2Y-31.2G85X35.3Y-31.2
G05
X31.2Y-44.8G85X35.3Y-44.8
G05
X31.2Y-69.2G85X35.3Y-69.2
G05
X31.2Y-82.8G85X35.3Y-82.8
G05
X33.575Y-50.2G85X37.675Y-50.2
G05
X33.575Y-63.8G85X37.675Y-63.8
G05
X35.95Y6.8G85X40.05Y6.8
G05
X35.95Y-6.8G85X40.05Y-6.8
G05
X45.45Y-12.2G85X49.55Y-12.2
G05
X45.45Y-25.8G85X49.55Y-25.8
G05
X50.2Y-31.2G85X54.3Y-31.2
G05
X50.2Y-44.8G85X54.3Y-44.8
G05
X50.2Y-69.2G85X54.3Y-69.2
G05
X50.2Y-82.8G85X54.3Y-82.8
G05
X54.95Y6.8G85X59.05Y6.8
G05
X54.95Y-6.8G85X59.05Y-6.8
G05
X59.7Y-50.2G85X63.8Y-50.2
G05
X59.7Y-63.8G85X63.8Y-63.8
G05
X64.45Y-12.2G85X68.55Y-12.2
G05
X64.45Y-25.8G85X68.55Y-25.8
G05
X69.2Y-31.2G85X73.3Y-31.2
G05
X69.2Y-44.8G85X73.3Y-44.8
G05
X69.387Y-83.499G85X73.456Y-83.999
G05
X71.044Y-70.001G85X75.113Y-70.501
G05
X73.95Y6.8G85X78.05Y6.8
G05
X73.95Y-6.8G85X78.05Y-6.8
G05
X78.7Y-50.2G85X82.8Y-50.2
G05
X78.7Y-63.8G85X82.8Y-63.8
G05
X83.45Y-12.2G85X87.55Y-12.2
G05
X83.45Y-25.8G85X87.55Y-25.8
G05
X88.2Y-31.2G85X92.3Y-31.2
G05
X88.2Y-44.8G85X92.3Y-44.8
G05
X90.18Y-87.172G85X94.121Y-88.302
G05
X92.95Y6.8G85X97.05Y6.8
G05
X92.95Y-6.8G85X97.05Y-6.8
G05
X93.929Y-74.098G85X97.87Y-75.228
G05
X97.7Y-50.2G85X101.8Y-50.2
G05
X97.7Y-63.8G85X101.8Y-63.8
G05
X102.45Y-12.2G85X106.55Y-12.2
G05
X102.45Y-25.8G85X106.55Y-25.8
G05
X106.434Y-91.118G85X108.358Y-87.498
G05
X107.2Y-31.2G85X111.3Y-31.2
G05
X107.2Y-44.8G85X111.3Y-44.8
G05
X111.95Y6.8G85X116.05Y6.8
G05
X111.95Y-6.8G85X116.05Y-6.8
G05
X116.7Y-50.2G85X120.8Y-50.2
G05
X116.7Y-63.8G85X120.8Y-63.8
G05
X118.442Y-97.502G85X120.366Y-93.882
G05
X121.45Y-12.2G85X125.55Y-12.2
G05
X121.45Y-25.8G85X125.55Y-25.8
G05
X126.2Y-31.2G85X130.3Y-31.2
G05
X126.2Y-44.8G85X130.3Y-44.8
G05
X130.95Y6.8G85X135.05Y6.8
G05
X130.95Y-6.8G85X135.05Y-6.8
G05
X135.7Y-50.2G85X139.8Y-50.2
G05
X135.7Y-63.8G85X139.8Y-63.8
G05
X135.7Y-69.2G85X139.8Y-69.2
G05
X135.7Y-82.8G85X139.8Y-82.8
G05
X140.45Y-12.2G85X144.55Y-12.2
G05
X140.45Y-25.8G85X144.55Y-25.8
G05
X145.2Y-31.2G85X149.3Y-31.2
G05
X145.2Y-44.8G85X149.3Y-44.8
G05
X149.95Y6.8G85X154.05Y6.8
G05
X149.95Y-6.8G85X154.05Y-6.8
G05
X157.058Y-97.502G85X155.134Y-93.882
G05
X154.7Y-50.2G85X158.8Y-50.2
G05
X154.7Y-63.8G85X158.8Y-63.8
G05
X159.45Y-12.2G85X163.55Y-12.2
G05
X159.45Y-25.8G85X163.55Y-25.8
G05
X164.2Y-31.2G85X168.3Y-31.2
G05
X164.2Y-44.8G85X168.3Y-44.8
G05
X169.066Y-91.118G85X167.142Y-87.498
G05
X168.95Y6.8G85X173.05Y6.8
G05
X168.95Y-6.8G85X173.05Y-6.8
G05
X173.7Y-50.2G85X177.8Y-50.2
G05
X173.7Y-63.8G85X177.8Y-63.8
G05
X175.255Y-75.228G85X179.196Y-74.098
G05
X178.45Y-12.2G85X182.55Y-12.2
G05
X178.45Y-25.8G85X182.55Y-25.8
G05
X179.004Y-88.302G85X182.945Y-87.172
G05
X183.2Y-31.2G85X187.3Y-31.2
G05
X183.2Y-44.8G85X187.3Y-44.8
G05
X187.95Y6.8G85X192.05Y6.8
G05
X187.95Y-6.8G85X192.05Y-6.8
G05
X192.7Y-50.2G85X196.8Y-50.2
G05
X192.7Y-63.8G85X196.8Y-63.8
G05
X195.637Y-70.501G85X199.706Y-70.001
G05
X197.294Y-83.999G85X201.363Y-83.499
G05
X197.45Y-12.2G85X201.55Y-12.2
G05
X197.45Y-25.8G85X201.55Y-25.8
G05
X202.2Y-31.2G85X206.3Y-31.2
G05
X202.2Y-44.8G85X206.3Y-44.8
G05
X206.95Y6.8G85X211.05Y6.8
G05
X206.95Y-6.8G85X211.05Y-6.8
G05
X211.7Y-50.2G85X215.8Y-50.2
G05
X211.7Y-63.8G85X215.8Y-63.8
G05
X216.45Y-12.2G85X220.55Y-12.2
G05
X216.45Y-25.8G85X220.55Y-25.8
G05
X221.2Y-31.2G85X225.3Y-31.2
G05
X221.2Y-44.8G85X225.3Y-44.8
G05
X221.2Y-69.2G85X225.3Y-69.2
G05
X221.2Y-82.8G85X225.3Y-82.8
G05
X225.95Y6.8G85X230.05Y6.8
G05
X225.95Y-6.8G85X230.05Y-6.8
G05
X230.7Y-50.2G85X234.8Y-50.2
G05
X230.7Y-63.8G85X234.8Y-63.8
G05
X235.45Y-12.2G85X239.55Y-12.2
G05
X235.45Y-25.8G85X239.55Y-25.8
G05
X240.2Y-31.2G85X244.3Y-31.2
G05
X240.2Y-44.8G85X244.3Y-44.8
G05
X240.2Y-69.2G85X244.3Y-69.2
G05
X240.2Y-82.8G85X244.3Y-82.8
G05
X244.95Y6.8G85X249.05Y6.8
G05
X244.95Y-6.8G85X249.05Y-6.8
G05
X254.45Y-12.2G85X258.55Y-12.2
G05
X254.45Y-25.8G85X258.55Y-25.8
G05
X256.825Y-50.2G85X260.925Y-50.2
G05
X256.825Y-63.8G85X260.925Y-63.8
G05
X259.2Y-31.2G85X263.3Y-31.2
G05
X259.2Y-44.8G85X263.3Y-44.8
G05
X259.2Y-69.2G85X263.3Y-69.2
G05
X259.2Y-82.8G85X263.3Y-82.8
G05
X263.95Y6.8G85X268.05Y6.8
G05
X263.95Y-6.8G85X268.05Y-6.8
G05
X278.2Y-12.2G85X282.3Y-12.2
G05
X278.2Y-25.8G85X282.3Y-25.8
G05
X278.2Y-69.2G85X282.3Y-69.2
G05
X278.2Y-82.8G85X282.3Y-82.8
G05
X280.575Y-31.2G85X284.675Y-31.2
G05
X280.575Y-44.8G85X284.675Y-44.8
G05
X282.95Y6.8G85X287.05Y6.8
G05
X282.95Y-6.8G85X287.05Y-6.8
G05
X282.95Y-50.2G85X287.05Y-50.2
G05
X282.95Y-63.8G85X287.05Y-63.8
G05
T0
M30
